<svg width="25" height="24" viewBox="0 0 25 24" fill="none" xmlns="http://www.w3.org/2000/svg">
<path d="M15.9674 5.21389C17.7602 5.98466 19.2239 7.32395 20.1138 9.00803C21.0038 10.6921 21.2662 12.619 20.8571 14.4668C20.4481 16.3146 19.3924 17.9714 17.8664 19.1605C16.3405 20.3495 14.4366 20.9988 12.4729 20.9999C10.793 21 9.15011 20.5254 7.74814 19.635C6.34618 18.7447 5.24692 17.4777 4.58685 15.9915C3.92679 14.5053 3.73499 12.8653 4.03527 11.2752C4.33556 9.68501 5.1147 8.21473 6.27595 7.04689C7.07569 8.12235 8.13133 8.99807 9.35468 9.60089C9.37611 8.27951 9.70031 6.97896 10.3042 5.79198C10.908 4.60499 11.7767 3.56081 12.8481 2.73389C13.6659 3.78908 14.7353 4.63965 15.9664 5.21389H15.9674Z" stroke="#6D6D6D" stroke-width="1.5" stroke-linecap="round" stroke-linejoin="round"/>
<path d="M12.4729 18.0002C13.4631 18.0018 14.4169 17.6407 15.1404 16.9903C15.864 16.3399 16.3031 15.4489 16.3686 14.4982C16.4341 13.5476 16.121 12.6087 15.4931 11.8721C14.8651 11.1355 13.9692 10.6564 12.9874 10.5322C11.9141 11.4563 11.207 12.7098 10.9866 14.0792C10.1858 13.8904 9.43213 13.5502 8.76949 13.0782C8.57685 13.6416 8.52582 14.2408 8.62059 14.8268C8.71536 15.4128 8.95323 15.9688 9.31468 16.4492C9.67613 16.9295 10.1508 17.3206 10.6998 17.5902C11.2489 17.8598 11.8565 18.0004 12.4729 18.0002Z" stroke="#6D6D6D" stroke-width="1.5" stroke-linecap="round" stroke-linejoin="round"/>
</svg>
