<svg width="25" height="24" viewBox="0 0 25 24" fill="none" xmlns="http://www.w3.org/2000/svg">
<path d="M12.4729 12.75C13.6661 12.75 14.8407 12.83 15.9892 12.987C17.0671 13.133 17.9288 13.953 17.9288 15C17.9288 18.728 15.4862 21.75 12.4719 21.75C9.45758 21.75 7.01601 18.728 7.01601 15C7.01601 13.954 7.87872 13.133 8.95555 12.987C10.1208 12.829 11.2961 12.7498 12.4729 12.75ZM12.4729 12.75C15.4695 12.75 18.3424 13.258 21.0033 14.19C20.8778 16.2513 20.4754 18.2882 19.8059 20.25M12.4729 12.75C9.47629 12.75 6.60336 13.258 3.94144 14.19C4.07136 16.294 4.48193 18.326 5.13988 20.25M12.4729 12.75C12.7892 12.7501 13.1021 12.6884 13.3929 12.5688C13.6837 12.4491 13.9462 12.274 14.1647 12.054C14.3831 11.8339 14.5528 11.5735 14.6637 11.2886C14.7745 11.0036 14.8241 10.7 14.8095 10.396M12.4729 12.75C12.1566 12.7501 11.8437 12.6884 11.5529 12.5688C11.2621 12.4491 10.9996 12.274 10.7812 12.054C10.5627 11.8339 10.393 11.5735 10.2821 11.2886C10.1713 11.0036 10.1217 10.7 10.1363 10.396M14.8095 10.396C14.7817 9.81784 14.5234 9.27221 14.0882 8.87254C13.653 8.47287 13.0745 8.24992 12.4729 8.25002M14.8095 10.396C16.6554 10.2315 18.4774 9.86859 20.2394 9.31402C20.1822 8.18702 20.045 7.08002 19.8319 6.00002M10.1363 10.396C10.1641 9.81784 10.4225 9.27221 10.8576 8.87254C11.2928 8.47287 11.8713 8.24992 12.4729 8.25002M10.1363 10.396C8.2581 10.228 6.44121 9.86002 4.70748 9.31402C4.76337 8.20161 4.89951 7.09428 5.11493 6.00002M12.4729 8.25002C13.5071 8.25002 14.5216 8.17002 15.5101 8.01402C15.9289 7.94802 16.2792 7.65602 16.3364 7.25202C16.4429 6.47882 16.298 5.69286 15.9217 5.00202M12.4729 8.25002C11.4387 8.25002 10.4253 8.17002 9.43575 8.01402C9.01791 7.94802 8.66659 7.65602 8.60942 7.25202C8.49952 6.47767 8.64494 5.68966 9.02519 4.99902M9.02519 4.99902C8.58245 4.71537 8.17904 4.37967 7.82467 3.99802C7.89743 3.36802 8.10531 2.77602 8.42129 2.25102M9.02519 4.99902C9.35607 4.39496 9.85211 3.89029 10.4598 3.53754C11.0675 3.18479 11.7637 2.99836 12.4734 2.99836C13.1831 2.99836 13.8794 3.18479 14.4871 3.53754C15.0947 3.89029 15.5908 4.39596 15.9217 5.00002C16.3655 4.71702 16.7688 4.38002 17.1222 4.00102C17.0517 3.38341 16.8481 2.78673 16.5245 2.24902" stroke="white" stroke-width="1.5" stroke-linecap="round" stroke-linejoin="round"/>
</svg>
