<svg width="30" height="30" viewBox="0 0 30 30" fill="none" xmlns="http://www.w3.org/2000/svg">
<path d="M17.8125 9.695C16.9642 9.39595 16.0566 9.30469 15.1657 9.42886C14.2749 9.55304 13.4268 9.88904 12.6926 10.4087C11.9585 10.9283 11.3596 11.6164 10.9463 12.4153C10.533 13.2142 10.3173 14.1005 10.3173 15C10.3173 15.8995 10.533 16.7858 10.9463 17.5847C11.3596 18.3836 11.9585 19.0717 12.6926 19.5913C13.4268 20.111 14.2749 20.447 15.1657 20.5711C16.0566 20.6953 16.9642 20.604 17.8125 20.305M9.375 13.125H15.9375M9.375 16.875H15.9375M26.25 15C26.25 16.4774 25.959 17.9403 25.3936 19.3052C24.8283 20.6701 23.9996 21.9103 22.955 22.955C21.9103 23.9996 20.6701 24.8283 19.3052 25.3936C17.9403 25.959 16.4774 26.25 15 26.25C13.5226 26.25 12.0597 25.959 10.6948 25.3936C9.3299 24.8283 8.08971 23.9996 7.04505 22.955C6.00039 21.9103 5.17172 20.6701 4.60636 19.3052C4.04099 17.9403 3.75 16.4774 3.75 15C3.75 12.0163 4.93526 9.15483 7.04505 7.04505C9.15483 4.93526 12.0163 3.75 15 3.75C17.9837 3.75 20.8452 4.93526 22.955 7.04505C25.0647 9.15483 26.25 12.0163 26.25 15Z" stroke="white" stroke-width="1.5" stroke-linecap="round" stroke-linejoin="round"/>
</svg>
