<svg width="30" height="30" viewBox="0 0 30 30" fill="none" xmlns="http://www.w3.org/2000/svg">
<path d="M13.08 17.38C13 16.8333 13.0333 16.3467 13.18 15.92C13.3267 15.48 13.5267 15.0867 13.78 14.74C14.0467 14.38 14.32 14.0533 14.6 13.76C14.88 13.4533 15.1133 13.16 15.3 12.88C15.5 12.5867 15.6 12.2933 15.6 12C15.6 11.5867 15.4733 11.2733 15.22 11.06C14.98 10.8467 14.66 10.74 14.26 10.74C13.8867 10.74 13.5533 10.8267 13.26 11C12.98 11.1733 12.7067 11.3933 12.44 11.66L10.82 10.18C11.2867 9.63333 11.8467 9.19333 12.5 8.86C13.1533 8.52667 13.8667 8.36 14.64 8.36C15.36 8.36 16 8.48 16.56 8.72C17.1333 8.96 17.5867 9.33333 17.92 9.84C18.2533 10.3467 18.42 10.9933 18.42 11.78C18.42 12.2733 18.32 12.7133 18.12 13.1C17.92 13.4733 17.6733 13.82 17.38 14.14C17.0867 14.46 16.8 14.78 16.52 15.1C16.24 15.4067 16.0133 15.7467 15.84 16.12C15.6667 16.48 15.6067 16.9 15.66 17.38H13.08ZM14.36 22.24C13.8533 22.24 13.4333 22.0667 13.1 21.72C12.7667 21.36 12.6 20.92 12.6 20.4C12.6 19.8667 12.7667 19.4267 13.1 19.08C13.4333 18.72 13.8533 18.54 14.36 18.54C14.8667 18.54 15.2867 18.72 15.62 19.08C15.9667 19.4267 16.14 19.8667 16.14 20.4C16.14 20.92 15.9667 21.36 15.62 21.72C15.2867 22.0667 14.8667 22.24 14.36 22.24Z" fill="#FFA239"/>
</svg>
