<svg width="25" height="24" viewBox="0 0 25 24" fill="none" xmlns="http://www.w3.org/2000/svg">
<path d="M2.33867 21H22.6071M3.89778 3V21M14.8116 3V21M21.048 7.5V21M7.01601 6.75H7.79557M7.01601 9.75H7.79557M7.01601 12.75H7.79557M10.9138 6.75H11.6933M10.9138 9.75H11.6933M10.9138 12.75H11.6933M7.01601 21V17.625C7.01601 17.004 7.53987 16.5 8.18534 16.5H10.524C11.1695 16.5 11.6933 17.004 11.6933 17.625V21M3.11823 3H15.5911M14.8116 7.5H21.8276M17.9298 11.25H17.9381V11.258H17.9298V11.25ZM17.9298 14.25H17.9381V14.258H17.9298V14.25ZM17.9298 17.25H17.9381V17.258H17.9298V17.25Z" stroke="#737373" stroke-width="1.5" stroke-linecap="round" stroke-linejoin="round"/>
</svg>
