<svg width="14" height="13" viewBox="0 0 14 13" fill="none" xmlns="http://www.w3.org/2000/svg">
<path d="M4.66667 0.130859L3.44667 1.46419H1.33333C0.6 1.46419 0 2.06419 0 2.79753V10.7975C0 11.5309 0.6 12.1309 1.33333 12.1309H12C12.7333 12.1309 13.3333 11.5309 13.3333 10.7975V2.79753C13.3333 2.06419 12.7333 1.46419 12 1.46419H9.88667L8.66667 0.130859H4.66667ZM6.66667 10.1309C4.82667 10.1309 3.33333 8.63753 3.33333 6.79753C3.33333 4.95753 4.82667 3.46419 6.66667 3.46419C8.50667 3.46419 10 4.95753 10 6.79753C10 8.63753 8.50667 10.1309 6.66667 10.1309Z" fill="#141A27"/>
</svg>
