<svg width="25" height="24" viewBox="0 0 25 24" fill="none" xmlns="http://www.w3.org/2000/svg">
<path d="M11.9324 3.49921C11.9764 3.39605 12.0512 3.30779 12.1475 3.24567C12.2437 3.18356 12.357 3.15039 12.4729 3.15039C12.5888 3.15039 12.7021 3.18356 12.7983 3.24567C12.8946 3.30779 12.9694 3.39605 13.0134 3.49921L15.2221 8.61021C15.2635 8.70585 15.3315 8.78866 15.4186 8.84953C15.5057 8.9104 15.6085 8.94697 15.7159 8.95521L21.4513 9.39721C21.97 9.43721 22.1799 10.0602 21.785 10.3852L17.4153 13.9872C17.3337 14.0544 17.2728 14.1419 17.2395 14.2402C17.2061 14.3384 17.2015 14.4436 17.2261 14.5442L18.5618 19.9292C18.5886 20.0373 18.5816 20.1505 18.5415 20.2547C18.5015 20.3589 18.4303 20.4494 18.3369 20.5146C18.2434 20.5799 18.132 20.6171 18.0166 20.6214C17.9013 20.6258 17.7871 20.5972 17.6887 20.5392L12.7775 17.6542C12.6857 17.6003 12.5804 17.5718 12.4729 17.5718C12.3654 17.5718 12.2601 17.6003 12.1684 17.6542L7.25715 20.5402C7.15868 20.5982 7.04454 20.6268 6.92917 20.6224C6.8138 20.6181 6.70237 20.5809 6.60894 20.5156C6.51552 20.4504 6.4443 20.3599 6.40427 20.2557C6.36424 20.1515 6.3572 20.0383 6.38405 19.9302L7.71969 14.5442C7.74446 14.4436 7.73991 14.3384 7.70653 14.2401C7.67315 14.1418 7.61225 14.0543 7.53052 13.9872L3.16084 10.3852C3.07285 10.313 3.0091 10.2174 2.97766 10.1103C2.94622 10.0033 2.94851 9.88966 2.98424 9.78386C3.01996 9.67807 3.08752 9.58485 3.17836 9.51602C3.26919 9.44719 3.37922 9.40584 3.49449 9.39721L9.22995 8.95521C9.33727 8.94697 9.44014 8.9104 9.52725 8.84953C9.61436 8.78866 9.68232 8.70585 9.72367 8.61021L11.9324 3.49921Z" stroke="#737373" stroke-width="1.5" stroke-linecap="round" stroke-linejoin="round"/>
</svg>
