<svg width="212" height="100" viewBox="0 0 212 100" fill="none" xmlns="http://www.w3.org/2000/svg">
<g clip-path="url(#clip0_339_2962)">
<path d="M131.774 24.9359C131.774 25.0962 131.935 25.2249 132.137 25.2249H194.486C194.687 25.2249 194.849 25.0962 194.849 24.9359C194.849 24.7757 194.687 24.647 194.486 24.647H132.137C131.935 24.647 131.774 24.7757 131.774 24.9359Z" fill="#E6E6E6"/>
<path d="M81.0662 66.2012L81.6832 84.3672H80.1813V86.4237H84.3792V84.3672H83.1548L83.2423 66.2012H81.0662Z" fill="#3F3D56"/>
<path d="M79.4464 81.4536C80.0853 81.4536 80.6033 82.0291 80.6033 82.7389V88.0516C80.6033 88.7615 80.0853 89.337 79.4463 89.337C78.8074 89.337 78.2894 88.7615 78.2894 88.0516V82.7389C78.2894 82.0291 78.8074 81.4536 79.4464 81.4536Z" fill="#3F3D56"/>
<path d="M85.3084 81.4536C85.9474 81.4536 86.4654 82.0291 86.4654 82.7389V88.0516C86.4654 88.7615 85.9474 89.337 85.3084 89.337C84.6694 89.337 84.1514 88.7615 84.1514 88.0516V82.7389C84.1514 82.0291 84.6694 81.4536 85.3084 81.4536Z" fill="#3F3D56"/>
<path d="M94.7186 54.8826L70.9618 53.683L74.6642 51.7979L95.4899 52.1406L94.7186 54.8826Z" fill="#FFA239"/>
<path d="M0 57.5463L2.86908 56.3467L91.9418 58.9173L95.6442 57.0322L94.1015 68.6859L23.3471 60.3101L0 57.5463Z" fill="#FFA239"/>
<path d="M22.9083 64.3157L23.3471 60.3101L94.1015 68.6858L93.7159 74.5983L22.9083 64.3157Z" fill="#3F3D56"/>
<path d="M70.499 76.1412C74.5459 76.1412 77.8266 72.2664 77.8266 67.4866C77.8266 62.7068 74.5459 58.832 70.499 58.832C66.4521 58.832 63.1714 62.7068 63.1714 67.4866C63.1714 72.2664 66.4521 76.1412 70.499 76.1412Z" fill="#3F3D56"/>
<path d="M70.499 71.9422C73.4809 71.9422 75.8983 69.2567 75.8983 65.944C75.8983 62.6313 73.4809 59.9458 70.499 59.9458C67.5171 59.9458 65.0997 62.6313 65.0997 65.944C65.0997 69.2567 67.5171 71.9422 70.499 71.9422Z" fill="#FFA239"/>
<path d="M130.739 66.2012L130.122 84.3672H131.624V86.4237H127.426V84.3672H128.651L128.563 66.2012H130.739Z" fill="#3F3D56"/>
<path d="M132.359 81.4536H132.359C131.72 81.4536 131.202 82.0291 131.202 82.7389V88.0517C131.202 88.7615 131.72 89.337 132.359 89.337H132.359C132.998 89.337 133.516 88.7615 133.516 88.0517V82.7389C133.516 82.0291 132.998 81.4536 132.359 81.4536Z" fill="#3F3D56"/>
<path d="M126.497 81.4536H126.497C125.858 81.4536 125.34 82.0291 125.34 82.7389V88.0517C125.34 88.7615 125.858 89.337 126.497 89.337H126.497C127.136 89.337 127.654 88.7615 127.654 88.0517V82.7389C127.654 82.0291 127.136 81.4536 126.497 81.4536Z" fill="#3F3D56"/>
<path d="M117.087 54.8826L140.844 53.683L137.141 51.7979L116.316 52.1406L117.087 54.8826Z" fill="#FFA239"/>
<path d="M108.584 51.1905L107.504 24.7983L105.807 28.9114L106.116 52.0474L108.584 51.1905Z" fill="#FFA239"/>
<path d="M211.806 57.5463L208.936 56.3467L119.864 58.9173L116.161 57.0322L117.704 68.6859L188.458 60.3101L211.806 57.5463Z" fill="#FFA239"/>
<path d="M188.897 64.3157L188.458 60.3101L117.704 68.6858L118.09 74.5983L188.897 64.3157Z" fill="#3F3D56"/>
<path d="M141.307 76.1412C145.353 76.1412 148.634 72.2664 148.634 67.4866C148.634 62.7068 145.353 58.832 141.307 58.832C137.26 58.832 133.979 62.7068 133.979 67.4866C133.979 72.2664 137.26 76.1412 141.307 76.1412Z" fill="#3F3D56"/>
<path d="M141.307 71.9422C144.288 71.9422 146.706 69.2567 146.706 65.944C146.706 62.6313 144.288 59.9458 141.307 59.9458C138.325 59.9458 135.907 62.6313 135.907 65.944C135.907 69.2567 138.325 71.9422 141.307 71.9422Z" fill="#FFA239"/>
<path d="M119.362 51.595L119.012 54.4616L118.83 69.8925C118.816 71.0407 118.691 72.1752 118.457 73.2755C117.781 76.4802 116.203 79.3954 113.872 81.5084C111.757 83.4279 108.872 84.8811 105.054 84.6241C94.8729 83.9386 93.9735 74.3123 93.9735 74.3123L94.3576 56.8558L94.4101 54.4616L94.8729 50.1417C94.8729 50.1417 96.107 37.9739 107.523 38.3167C118.938 38.6594 119.362 51.595 119.362 51.595Z" fill="#FFA239"/>
<path d="M97.3411 47.571L99.655 43.458L102.586 42.4297H112.613L115.082 43.458L117.321 47.571L113.23 45.5145H101.754L97.3411 47.571Z" fill="#E6E6E6"/>
<path d="M105.827 77.1416L106.223 88.7953H105.259V90.1146H107.952V88.7953H107.167L107.223 77.1416H105.827Z" fill="#3F3D56"/>
<path d="M104.788 86.9263C105.198 86.9263 105.53 87.2954 105.53 87.7508V91.159C105.53 91.6144 105.198 91.9835 104.788 91.9835C104.378 91.9835 104.046 91.6144 104.046 91.159V87.7508C104.046 87.2954 104.378 86.9263 104.788 86.9263Z" fill="#3F3D56"/>
<path d="M108.548 86.9263C108.958 86.9263 109.291 87.2954 109.291 87.7508V91.159C109.291 91.6144 108.958 91.9835 108.548 91.9835C108.138 91.9835 107.806 91.6144 107.806 91.159V87.7508C107.806 87.2954 108.138 86.9263 108.548 86.9263Z" fill="#3F3D56"/>
<path d="M102.955 39.9039L100.824 48.4282L101.235 48.5549L103.366 40.0306L102.955 39.9039Z" fill="#FFA239"/>
<path d="M112.62 41.2637L112.201 41.355L113.737 50.0361L114.155 49.9447L112.62 41.2637Z" fill="#FFA239"/>
<path d="M156.535 27.6457C158.065 27.6457 159.306 26.2675 159.306 24.5675C159.306 22.8674 158.065 21.4893 156.535 21.4893C155.005 21.4893 153.764 22.8674 153.764 24.5675C153.764 26.2675 155.005 27.6457 156.535 27.6457Z" fill="#FFA239"/>
<path d="M79.8434 37.7214C81.3736 37.7214 82.6142 36.3432 82.6142 34.6432C82.6142 32.9431 81.3736 31.5649 79.8434 31.5649C78.3131 31.5649 77.0725 32.9431 77.0725 34.6432C77.0725 36.3432 78.3131 37.7214 79.8434 37.7214Z" fill="#FFA239"/>
<path d="M17.1033 92.4198C17.1033 92.5801 17.2651 92.7088 17.4665 92.7088H79.8155C80.0169 92.7088 80.1786 92.5801 80.1786 92.4198C80.1786 92.2596 80.0169 92.1309 79.8155 92.1309H17.4665C17.2651 92.1309 17.1033 92.2596 17.1033 92.4198Z" fill="#E6E6E6"/>
<path d="M41.8645 95.1296C43.3948 95.1296 44.6354 93.7514 44.6354 92.0514C44.6354 90.3513 43.3948 88.9731 41.8645 88.9731C40.3342 88.9731 39.0937 90.3513 39.0937 92.0514C39.0937 93.7514 40.3342 95.1296 41.8645 95.1296Z" fill="#FFA239"/>
</g>
<defs>
<clipPath id="clip0_339_2962">
<rect width="211.806" height="100" fill="white"/>
</clipPath>
</defs>
</svg>
