<svg width="61" height="47" viewBox="0 0 61 47" fill="none" xmlns="http://www.w3.org/2000/svg">
<g clip-path="url(#clip0_339_3265)">
<path d="M43.2233 17.873H38.0128V21.2053H43.2233V17.873Z" fill="#FFA239"/>
<path d="M35.1046 23.084H29.8941V26.4163H35.1046V23.084Z" fill="#FFA239"/>
<path d="M58.4553 18.9638V11.8751H54.5172V7.27048H51.8513V11.8751H47.9131V18.9638H45.732V3.02937H41.3091V1.51468H35.4322V0H29.6158V1.51468H24.1023V3.02937H19.3159V18.9032H16.7713V11.8145H12.8331V7.20989H10.1672V11.8145H6.22907V18.9032H3.6844V44.047H9.50078V35.1406H13.4995V44.047H29.1311V33.6865H35.9169V44.047H45.3685V44.1076H51.1849V35.2012H55.1836V44.1076H61V18.9638H58.4553ZM5.77466 21.9932H8.07698V23.8108H5.77466V21.9932ZM5.80496 27.0825H8.10728V28.9001H5.80496V27.0825ZM8.13757 33.9895H5.83525V32.1719H8.13757V33.9895ZM14.166 17.5703H8.83432V16.4797H14.166V17.5703ZM14.166 15.995H8.83432V14.9045H14.166V15.995ZM14.166 14.4198H8.83432V13.3292H14.166V14.4198ZM14.9234 21.9932H17.2257V23.8108H14.9234V21.9932ZM14.9536 27.0825H17.256V28.9001H14.9536V27.0825ZM17.2863 33.9895H14.9839V32.1719H17.2863V33.9895ZM26.7076 30.9601H22.4665V29.0819H26.7076V30.9601ZM26.7076 25.5678H22.4665V23.6896H26.7076V25.5678ZM26.7076 20.1756H22.4665V18.2974H26.7076V20.1756ZM26.7076 14.7833H22.4665V12.9051H26.7076V14.7833ZM26.7076 9.39103H22.4665V7.51283H26.7076V9.39103ZM34.6445 30.9601H30.4034V29.0819H34.6445V30.9601ZM34.6445 25.5678H30.4034V23.6896H34.6445V25.5678ZM34.6445 20.1756H30.4034V18.2974H34.6445V20.1756ZM34.6445 14.7833H30.4034V12.9051H34.6445V14.7833ZM34.6445 9.39103H30.4034V7.51283H34.6445V9.39103ZM42.5815 30.9601H38.3403V29.0819H42.5815V30.9601ZM42.5815 25.5678H38.3403V23.6896H42.5815V25.5678ZM42.5815 20.1756H38.3403V18.2974H42.5815V20.1756ZM42.5815 14.7833H38.3403V12.9051H42.5815V14.7833ZM42.5815 9.39103H38.3403V7.51283H42.5815V9.39103ZM47.4587 22.0538H49.7611V23.8714H47.4587V22.0538ZM47.489 27.1431H49.7913V28.9607H47.489V27.1431ZM49.8216 34.0501H47.5193V32.2324H49.8216V34.0501ZM55.8501 17.6309H50.5184V16.5403H55.8501V17.6309ZM55.8501 16.0556H50.5184V14.9651H55.8501V16.0556ZM55.8501 14.4804H50.5184V13.3898H55.8501V14.4804ZM56.6074 22.0538H58.9097V23.8714H56.6074V22.0538ZM56.6377 27.1431H58.94V28.9607H56.6377V27.1431ZM58.9703 34.0501H56.668V32.2324H58.9703V34.0501Z" fill="#D5D5D5"/>
<path d="M7.27048 37.9098C7.25353 38.1495 7.227 38.4176 7.18599 38.6993L7.92671 37.8778L7.93079 37.8915C7.88549 37.6938 7.81255 37.5035 7.71413 37.3262L7.71887 37.3392L7.27048 37.9098Z" fill="#FFA239"/>
<path d="M7.27338 37.8681L7.70773 37.3153C7.61532 37.1467 7.48165 37.0042 7.31923 36.9013C7.31127 36.8966 7.30327 36.8921 7.29527 36.8877C7.29764 36.953 7.30902 37.3362 7.27338 37.8681Z" fill="#FFA239"/>
<path d="M6.88152 40.0349C6.86243 40.093 6.84272 40.1501 6.82239 40.2061L7.91324 39.5665L7.91477 39.5825C7.93756 39.4831 7.95654 39.3836 7.97172 39.2842L6.8825 40.0422L6.88152 40.0349Z" fill="#FFA239"/>
<path d="M7.03322 39.4984L8.01568 38.6881L8.01848 38.7033C8.02194 38.4354 7.99366 38.168 7.93424 37.9067L7.17939 38.7439C7.13975 39.0077 7.09102 39.2592 7.03322 39.4984Z" fill="#FFA239"/>
<path d="M7.16254 38.7279L5.98696 37.4162L5.99325 37.4014C5.88274 37.557 5.78824 37.7233 5.71118 37.8979L7.0527 39.3262C7.09866 39.1177 7.13455 38.9159 7.16254 38.7279Z" fill="#FFA239"/>
<path d="M5.6985 37.9283L5.69855 37.9284C5.70078 37.9233 5.70272 37.9177 5.70496 37.9126L5.6985 37.9283Z" fill="#FFA239"/>
<path d="M5.63341 38.0884L5.62704 38.1041C5.62907 38.0987 5.63137 38.0938 5.63341 38.0884Z" fill="#FFA239"/>
<path d="M7.04496 39.3608L5.69854 37.9272C5.67578 37.9794 5.65398 38.033 5.63312 38.0881L7.00924 39.5124C7.02176 39.4616 7.03366 39.411 7.04496 39.3608Z" fill="#FFA239"/>
<path d="M7.97459 39.2652C8.00139 39.0849 8.016 38.903 8.01832 38.7207L7.02256 39.5419C6.98311 39.7012 6.9397 39.8543 6.89233 40.0012L7.97247 39.2495L7.97459 39.2652Z" fill="#FFA239"/>
<path d="M5.45457 39.3672L6.54444 40.7891C6.63399 40.616 6.71307 40.4377 6.78127 40.2552L5.45141 38.8584C5.43823 39.033 5.43677 39.2083 5.44703 39.3831L5.45457 39.3672Z" fill="#FFA239"/>
<path d="M7.27535 36.8862L7.28512 36.8819C7.04644 36.7543 6.78804 36.768 6.54037 36.8973L7.25418 37.8668C7.2926 37.2914 7.27561 36.8919 7.27535 36.8862Z" fill="#FFA239"/>
<path d="M6.78702 40.3011C6.72446 40.4654 6.65301 40.6261 6.57297 40.7826L7.66926 40.2154L7.67037 40.2312C7.75296 40.0916 7.81755 39.9422 7.86258 39.7864C7.88 39.7251 7.89589 39.6637 7.91026 39.6021L6.80639 40.2493C6.79995 40.2666 6.79358 40.284 6.78702 40.3011Z" fill="#FFA239"/>
<path d="M7.25122 37.9097L6.52105 36.9179L6.5279 36.9038C6.31891 37.0247 6.13932 37.1904 6.00203 37.3891L7.16803 38.6901C7.20839 38.4115 7.23452 38.1466 7.25122 37.9097Z" fill="#FFA239"/>
<path d="M6.79322 40.2233C6.87451 40.0016 6.94381 39.7757 7.00079 39.5465L5.62125 38.1187C5.58841 38.2078 5.55825 38.3006 5.53076 38.3969C5.49263 38.5351 5.46717 38.6764 5.45471 38.8192L6.79218 40.224L6.79322 40.2233Z" fill="#FFA239"/>
<path d="M8.21019 41.7637C8.04428 41.9375 7.85286 42.1271 7.6416 42.3179L8.73606 42.1576L8.73042 42.1708C8.82163 41.9896 8.88685 41.7965 8.92415 41.5972L8.91951 41.6102L8.21019 41.7637Z" fill="#FFA239"/>
<path d="M8.89119 41.018C8.88809 41.0092 8.88477 41.0007 8.88142 40.9922C8.84162 41.044 8.60593 41.3464 8.23926 41.7333L8.92635 41.5846C8.96273 41.3958 8.95064 41.2008 8.89119 41.018Z" fill="#FFA239"/>
<path d="M6.55527 43.1523C6.5035 43.1849 6.45192 43.2163 6.40053 43.2465L7.64865 43.4496L7.63958 43.463C7.72057 43.4009 7.79862 43.3364 7.87374 43.2695L6.55136 43.1586L6.55527 43.1523Z" fill="#FFA239"/>
<path d="M7.01451 42.8357L8.28798 42.8383L8.28046 42.8518C8.45401 42.6477 8.60277 42.4237 8.72364 42.1846L7.60832 42.3479C7.4095 42.5258 7.21157 42.6884 7.01451 42.8357Z" fill="#FFA239"/>
<path d="M6.58519 43.133L7.89654 43.243L7.88818 43.2564C8.02383 43.1346 8.1511 43.0038 8.26914 42.8649L6.97844 42.8623C6.84648 42.9598 6.7154 43.05 6.58519 43.133Z" fill="#FFA239"/>
<path d="M4.97901 43.7822C4.98829 43.7728 4.99812 43.7626 5.00782 43.7526C5.27521 43.71 5.53651 43.6354 5.78605 43.5303L5.82169 42.5852C5.83226 42.5611 5.84254 42.5369 5.85251 42.5125L5.81458 43.5183C5.99394 43.4421 6.16857 43.3553 6.33753 43.2582L6.21575 41.5012C6.22514 41.4964 6.23459 41.4914 6.24433 41.4863L6.36596 43.2409L6.36715 43.2411C6.57119 43.1222 6.76867 42.9923 6.95875 42.8522L6.82614 41.1232C6.83553 41.1164 6.84489 41.1096 6.8543 41.1026L6.9869 42.8314C7.02897 42.8003 7.07038 42.7689 7.11113 42.7374L7.00173 40.9872C7.0111 40.9796 7.02046 40.9719 7.02981 40.964L7.13928 42.7156C7.30764 42.5843 7.46401 42.4518 7.6055 42.3248L7.53669 40.5648L7.551 40.5574C7.50213 40.5701 7.45246 40.5852 7.40237 40.6017C7.49656 40.4941 7.58129 40.3786 7.65561 40.2564L6.54883 40.8291C6.47222 40.9746 6.38605 41.115 6.29088 41.2491C6.2711 41.2678 6.25132 41.2864 6.23183 41.3059L6.23329 41.3269C6.22425 41.3388 6.21527 41.3508 6.20613 41.3625L6.20416 41.3342C6.19019 41.3485 6.17657 41.3637 6.16276 41.3784C6.30292 41.2034 6.42593 41.0153 6.53009 40.8168L5.44819 39.4053C5.45556 39.5314 5.46789 39.6584 5.48376 39.7844C5.38331 39.6211 5.26132 39.4721 5.12108 39.3413L5.12961 39.3522L4.87956 40.0335C4.93753 40.2667 4.99516 40.5298 5.04323 40.8104L5.48757 39.8141C5.4896 39.8296 5.49175 39.8451 5.49389 39.8606L5.05062 40.8545C5.09447 41.1177 5.12587 41.3719 5.14482 41.6172L5.67684 40.7816C5.67988 40.7936 5.68292 40.8056 5.68596 40.8174L5.1482 41.6621C5.1599 41.8257 5.16594 41.9848 5.16631 42.1392L5.81665 41.2811C5.82013 41.2924 5.82351 41.3034 5.82688 41.3142L5.16966 42.1813L5.16646 42.1747C5.16628 42.2358 5.16517 42.2962 5.16315 42.3558L5.89673 41.5298C5.90063 41.5413 5.90425 41.5519 5.90759 41.5616L5.16131 42.4018C5.16055 42.4203 5.15987 42.4389 5.15893 42.4572C5.1502 42.6327 5.13191 42.8076 5.10416 42.9812L5.17496 42.9095C5.16155 42.9373 5.14849 42.9647 5.13578 42.9918L5.09549 43.0326C5.09087 43.0591 5.0856 43.085 5.08053 43.1111C5.06567 43.1437 5.05134 43.1756 5.03756 43.2067C5.05086 43.1471 5.06327 43.0872 5.07387 43.0267L3.60866 42.0187C3.99092 42.9967 4.71076 43.927 4.75684 43.986C4.79425 43.9161 4.82824 43.8442 4.85945 43.7708C4.86852 43.77 4.87759 43.7691 4.88665 43.7682C4.8829 43.7772 4.87901 43.7861 4.87519 43.795C4.87063 43.7955 4.866 43.7962 4.86144 43.7967C4.86499 43.7977 4.86925 43.7988 4.87311 43.7999C4.85112 43.8512 4.82835 43.9016 4.80391 43.9503C4.83589 43.9215 4.8846 43.8761 4.94284 43.8184C5.28738 43.9064 6.21556 44.0944 7.01031 43.8166L5.79264 43.5517C5.53206 43.6621 5.25874 43.7395 4.97901 43.7822ZM5.83465 42.2414L5.86385 42.2119L5.86218 42.2562L5.83298 42.2857L5.83465 42.2414Z" fill="#FFA239"/>
<path d="M8.86685 40.9783L8.87715 40.9812C8.77466 40.7307 8.56691 40.5765 8.2937 40.5181L8.22508 41.7201C8.62169 41.3014 8.86339 40.9829 8.86685 40.9783Z" fill="#FFA239"/>
<path d="M6.31262 43.2971C6.15967 43.3837 6.00213 43.4619 5.84068 43.5314L7.04681 43.7938L7.0376 43.8066C7.19021 43.7518 7.33527 43.6779 7.4693 43.5867C7.52181 43.5506 7.57324 43.5134 7.62361 43.4751L6.36062 43.2695C6.34461 43.2788 6.32858 43.2881 6.31262 43.2971Z" fill="#FFA239"/>
<path d="M7.63367 42.2995C7.8424 42.1107 8.0315 41.9233 8.19546 41.7515L8.26566 40.522L8.27995 40.5154C8.04187 40.4753 7.79785 40.4884 7.56543 40.5538L7.63367 42.2995Z" fill="#FFA239"/>
<path d="M5.11155 39.3324C4.97155 39.2006 4.8004 39.1065 4.61411 39.0588C4.60508 39.0567 4.59609 39.055 4.58711 39.0532C4.60955 39.1146 4.73883 39.4755 4.86933 39.9924L5.11155 39.3324Z" fill="#FFA239"/>
<path d="M5.02966 40.8445L3.50622 39.9604L3.50761 39.9443C3.45061 40.1265 3.41216 40.3139 3.39284 40.5037L5.11014 41.4474C5.08942 41.235 5.06116 41.0319 5.02966 40.8445Z" fill="#FFA239"/>
<path d="M3.38989 40.5367L3.38996 40.5368C3.39051 40.5311 3.39062 40.5251 3.3912 40.5195L3.38989 40.5367Z" fill="#FFA239"/>
<path d="M3.37751 40.709L3.37631 40.7262C3.37656 40.7204 3.37723 40.7148 3.37751 40.709Z" fill="#FFA239"/>
<path d="M5.11354 41.4828L3.38996 40.5356C3.38443 40.5923 3.38027 40.65 3.37747 40.7089L5.12644 41.638C5.12263 41.5858 5.11833 41.5341 5.11354 41.4828Z" fill="#FFA239"/>
<path d="M5.13925 42.4154L3.44276 41.498C3.48421 41.6682 3.537 41.8354 3.6008 41.9984L3.60303 41.9809L5.07904 42.9963C5.11071 42.8041 5.13081 42.6101 5.13925 42.4154Z" fill="#FFA239"/>
<path d="M4.5678 39.0585L4.57574 39.0513C4.30933 39.0038 4.06781 39.0967 3.87224 39.2962L4.85077 39.9976C4.70944 39.4385 4.56982 39.0638 4.5678 39.0585Z" fill="#FFA239"/>
<path d="M4.8612 40.0392L3.86023 39.3217L3.86238 39.3062C3.701 39.4857 3.58143 39.6989 3.51225 39.9302L5.02329 40.8071C4.97557 40.5297 4.91853 40.2697 4.8612 40.0392Z" fill="#FFA239"/>
<path d="M5.14069 42.3811C5.14947 42.1451 5.14553 41.9088 5.12888 41.6732L3.37556 40.7417C3.3719 40.8367 3.37188 40.9342 3.37552 41.0343C3.38196 41.1775 3.40143 41.3198 3.43371 41.4594L5.13989 42.382L5.14069 42.3811Z" fill="#FFA239"/>
<path d="M59.1332 37.7282C59.1163 37.9678 59.0897 38.2359 59.0487 38.5176L59.7895 37.6961L59.7935 37.7099C59.7482 37.5122 59.6753 37.3219 59.5769 37.1445L59.5816 37.1575L59.1332 37.7282Z" fill="#FFA239"/>
<path d="M59.1361 37.6864L59.5705 37.1337C59.4781 36.965 59.3444 36.8226 59.182 36.7197C59.174 36.7149 59.166 36.7105 59.158 36.7061C59.1604 36.7713 59.1718 37.1546 59.1361 37.6864Z" fill="#FFA239"/>
<path d="M58.7442 39.8532C58.7252 39.9114 58.7055 39.9684 58.6851 40.0244L59.776 39.3848L59.7775 39.4009C59.8003 39.3014 59.8193 39.202 59.8345 39.1025L58.7452 39.8605L58.7442 39.8532Z" fill="#FFA239"/>
<path d="M58.896 39.3162L59.8784 38.506L59.8812 38.5212C59.8847 38.2532 59.8564 37.9859 59.797 37.7246L59.0421 38.5617C59.0025 38.8256 58.9538 39.0771 58.896 39.3162Z" fill="#FFA239"/>
<path d="M59.0253 38.5462L57.8497 37.2346L57.856 37.2197C57.7455 37.3753 57.651 37.5417 57.5739 37.7163L58.9154 39.1446C58.9614 38.9361 58.9973 38.7343 59.0253 38.5462Z" fill="#FFA239"/>
<path d="M57.5612 37.7462L57.5613 37.7462C57.5635 37.7411 57.5654 37.7356 57.5677 37.7305L57.5612 37.7462Z" fill="#FFA239"/>
<path d="M58.9077 39.1791L57.5613 37.7456C57.5385 37.7977 57.5167 37.8514 57.4958 37.9065L58.872 39.3307C58.8845 39.2799 58.8964 39.2294 58.9077 39.1791Z" fill="#FFA239"/>
<path d="M57.4961 37.9062L57.4898 37.922C57.4918 37.9166 57.4941 37.9116 57.4961 37.9062Z" fill="#FFA239"/>
<path d="M59.8373 39.0835C59.8641 38.9032 59.8788 38.7213 59.8811 38.5391L58.8853 39.3603C58.8459 39.5195 58.8024 39.6726 58.7551 39.8196L59.8352 39.0679L59.8373 39.0835Z" fill="#FFA239"/>
<path d="M57.3173 39.1855L58.4072 40.6075C58.4967 40.4344 58.5758 40.2561 58.644 40.0735L57.3141 38.6768C57.301 38.8514 57.2995 39.0267 57.3098 39.2015L57.3173 39.1855Z" fill="#FFA239"/>
<path d="M59.1381 36.7046L59.1479 36.7002C58.9092 36.5727 58.6508 36.5864 58.4031 36.7157L59.1169 37.6852C59.1553 37.1098 59.1384 36.7103 59.1381 36.7046Z" fill="#FFA239"/>
<path d="M58.6498 40.1195C58.5872 40.2837 58.5157 40.4445 58.4357 40.6009L59.532 40.0337L59.5331 40.0495C59.6157 39.91 59.6803 39.7605 59.7253 39.6048C59.7427 39.5435 59.7586 39.482 59.773 39.4204L58.6691 40.0676C58.6627 40.085 58.6563 40.1024 58.6498 40.1195Z" fill="#FFA239"/>
<path d="M59.114 37.7281L58.3838 36.7363L58.3906 36.7222C58.1816 36.8431 58.002 37.0088 57.8648 37.2074L59.0308 38.5084C59.0711 38.2299 59.0973 37.965 59.114 37.7281Z" fill="#FFA239"/>
<path d="M58.656 40.0417C58.7372 39.82 58.8065 39.594 58.8635 39.3648L57.484 37.937C57.4511 38.0262 57.421 38.119 57.3935 38.2153C57.3554 38.3534 57.3299 38.4948 57.3174 38.6376L58.6549 40.0423L58.656 40.0417Z" fill="#FFA239"/>
<path d="M60.0729 41.5821C59.907 41.7559 59.7156 41.9454 59.5043 42.1362L60.5988 41.976L60.5932 41.9892C60.6844 41.808 60.7496 41.6149 60.7869 41.4155L60.7823 41.4286L60.0729 41.5821Z" fill="#FFA239"/>
<path d="M60.7539 40.8363C60.7508 40.8276 60.7475 40.8191 60.7442 40.8105C60.7043 40.8623 60.4687 41.1648 60.102 41.5517L60.7891 41.403C60.8255 41.2142 60.8134 41.0192 60.7539 40.8363Z" fill="#FFA239"/>
<path d="M58.418 42.9707C58.3662 43.0033 58.3147 43.0347 58.2633 43.0648L59.5114 43.268L59.5023 43.2813C59.5833 43.2193 59.6614 43.1548 59.7365 43.0879L58.4141 42.977L58.418 42.9707Z" fill="#FFA239"/>
<path d="M58.8773 42.6541L60.1507 42.6567L60.1432 42.6702C60.3168 42.466 60.4655 42.2421 60.5864 42.0029L59.4711 42.1662C59.2723 42.3442 59.0743 42.5068 58.8773 42.6541Z" fill="#FFA239"/>
<path d="M58.4479 42.9514L59.7593 43.0613L59.7509 43.0748C59.8866 42.953 60.0138 42.8222 60.1319 42.6833L58.8412 42.6807C58.7092 42.7782 58.5781 42.8684 58.4479 42.9514Z" fill="#FFA239"/>
<path d="M56.8417 43.6006C56.851 43.5912 56.8608 43.581 56.8705 43.571C57.1379 43.5284 57.3992 43.4537 57.6488 43.3486L57.6844 42.4036C57.695 42.3795 57.7053 42.3553 57.7152 42.3309L57.6773 43.3367C57.8567 43.2605 58.0313 43.1736 58.2003 43.0765L58.0785 41.3196C58.0879 41.3147 58.0973 41.3098 58.1071 41.3046L58.2287 43.0593L58.2299 43.0595C58.4339 42.9405 58.6314 42.8107 58.8215 42.6705L58.6889 40.9416C58.6983 40.9347 58.7076 40.928 58.717 40.921L58.8496 42.6498C58.8917 42.6186 58.9331 42.5873 58.9739 42.5558L58.8645 40.8056C58.8738 40.7979 58.8832 40.7902 58.8925 40.7824L59.002 42.5339C59.1704 42.4027 59.3267 42.2701 59.4682 42.1432L59.3994 40.3831L59.4137 40.3757C59.3649 40.3885 59.3152 40.4036 59.2651 40.42C59.3593 40.3125 59.444 40.197 59.5183 40.0748L58.4116 40.6474C58.3349 40.793 58.2488 40.9333 58.1536 41.0675C58.1338 41.0861 58.114 41.1048 58.0946 41.1243L58.096 41.1453C58.087 41.1572 58.078 41.1692 58.0689 41.1809L58.0669 41.1525C58.0529 41.1669 58.0393 41.182 58.0255 41.1967C58.1656 41.0218 58.2887 40.8337 58.3928 40.6352L57.3109 39.2236C57.3183 39.3498 57.3306 39.4768 57.3465 39.6028C57.246 39.4395 57.124 39.2904 56.9838 39.1597L56.9923 39.1706L56.7423 39.8519C56.8003 40.085 56.8579 40.3482 56.906 40.6288L57.3503 39.6324C57.3523 39.648 57.3545 39.6635 57.3566 39.6789L56.9133 40.6729C56.9572 40.936 56.9886 41.1903 57.0075 41.4356L57.5396 40.5999C57.5426 40.6119 57.5456 40.6239 57.5487 40.6358L57.0109 41.4804C57.0226 41.6441 57.0287 41.8031 57.029 41.9575L57.6794 41.0995C57.6829 41.1108 57.6862 41.1217 57.6896 41.1326L57.0324 41.9997L57.0292 41.993C57.029 42.0542 57.0279 42.1146 57.0259 42.1741L57.7595 41.3482C57.7634 41.3597 57.767 41.3703 57.7703 41.38L57.024 42.2202C57.0233 42.2387 57.0226 42.2572 57.0217 42.2755C57.0129 42.4511 56.9946 42.626 56.9669 42.7996L57.0377 42.7279C57.0243 42.7557 57.0112 42.7831 56.9985 42.8101L56.9582 42.8509C56.9536 42.8775 56.9483 42.9034 56.9433 42.9295C56.9284 42.9621 56.9141 42.994 56.9003 43.025C56.9136 42.9654 56.926 42.9055 56.9366 42.845L55.4714 41.8371C55.8537 42.8151 56.5735 43.7453 56.6196 43.8044C56.657 43.7345 56.691 43.6626 56.7222 43.5892C56.7313 43.5883 56.7403 43.5875 56.7494 43.5865C56.7456 43.5956 56.7417 43.6044 56.7379 43.6134C56.7334 43.6139 56.7287 43.6146 56.7242 43.615C56.7277 43.616 56.732 43.6172 56.7358 43.6183C56.7139 43.6695 56.6911 43.7199 56.6666 43.7686C56.6986 43.7399 56.7473 43.6944 56.8056 43.6368C57.1501 43.7247 58.0783 43.9128 58.8731 43.635L57.6554 43.3701C57.3948 43.4804 57.1215 43.5578 56.8417 43.6006ZM57.6974 42.0598L57.7266 42.0302L57.7249 42.0745L57.6957 42.1041L57.6974 42.0598Z" fill="#FFA239"/>
<path d="M60.7296 40.7967L60.7399 40.7995C60.6374 40.5491 60.4296 40.3948 60.1564 40.3364L60.0878 41.5384C60.4844 41.1197 60.7261 40.8012 60.7296 40.7967Z" fill="#FFA239"/>
<path d="M58.1753 43.1155C58.0224 43.2021 57.8649 43.2803 57.7034 43.3498L58.9095 43.6121L58.9003 43.625C59.0529 43.5702 59.198 43.4963 59.332 43.405C59.3845 43.369 59.436 43.3318 59.4863 43.2935L58.2234 43.0879C58.2073 43.0971 58.1913 43.1065 58.1753 43.1155Z" fill="#FFA239"/>
<path d="M59.4964 42.1174C59.7051 41.9286 59.8943 41.7412 60.0582 41.5694L60.1284 40.3398L60.1427 40.3333C59.9046 40.2932 59.6606 40.3062 59.4282 40.3716L59.4964 42.1174Z" fill="#FFA239"/>
<path d="M56.9743 39.1508C56.8343 39.019 56.6631 38.9248 56.4768 38.8771C56.4678 38.8751 56.4588 38.8733 56.4498 38.8716C56.4723 38.9329 56.6016 39.2939 56.7321 39.8107L56.9743 39.1508Z" fill="#FFA239"/>
<path d="M56.8924 40.6628L55.369 39.7787L55.3704 39.7627C55.3134 39.9448 55.2749 40.1322 55.2556 40.3221L56.9729 41.2658C56.9522 41.0533 56.9239 40.8503 56.8924 40.6628Z" fill="#FFA239"/>
<path d="M55.2402 40.5273L55.239 40.5446C55.2393 40.5387 55.24 40.5332 55.2402 40.5273Z" fill="#FFA239"/>
<path d="M55.2526 40.3551L55.2527 40.3551C55.2533 40.3495 55.2534 40.3435 55.2539 40.3379L55.2526 40.3551Z" fill="#FFA239"/>
<path d="M56.9763 41.3011L55.2527 40.354C55.2472 40.4106 55.243 40.4684 55.2402 40.5272L56.9892 41.4564C56.9854 41.4042 56.9811 41.3524 56.9763 41.3011Z" fill="#FFA239"/>
<path d="M57.002 42.2332L55.3055 41.3159C55.3469 41.4861 55.3997 41.6532 55.4635 41.8163L55.4658 41.7988L56.9418 42.8142C56.9734 42.6219 56.9935 42.4279 57.002 42.2332Z" fill="#FFA239"/>
<path d="M56.4305 38.8768L56.4385 38.8696C56.1721 38.8221 55.9305 38.915 55.735 39.1145L56.7135 39.816C56.5722 39.2568 56.4325 38.8822 56.4305 38.8768Z" fill="#FFA239"/>
<path d="M56.7239 39.8576L55.723 39.1401L55.7251 39.1245C55.5637 39.3041 55.4442 39.5172 55.375 39.7485L56.886 40.6254C56.8383 40.3481 56.7813 40.088 56.7239 39.8576Z" fill="#FFA239"/>
<path d="M57.0034 42.1994C57.0122 41.9634 57.0083 41.7271 56.9916 41.4915L55.2383 40.5601C55.2346 40.655 55.2346 40.7526 55.2383 40.8527C55.2447 40.9959 55.2642 41.1381 55.2965 41.2778L57.0026 42.2003L57.0034 42.1994Z" fill="#FFA239"/>
<path d="M3.6844 44.0469H61V44.8669C61 45.2119 60.863 45.5426 60.6191 45.7865C60.3752 46.0304 60.0444 46.1674 59.6995 46.1674H4.98488C4.63997 46.1674 4.30919 46.0304 4.0653 45.7865C3.82142 45.5426 3.6844 45.2119 3.6844 44.8669V44.0469Z" fill="#2F2E41"/>
<path d="M61 43.3804H3.6844V44.5315H61V43.3804Z" fill="#3F3D56"/>
<path d="M48.1036 3.99727L48.7618 4.4147L48.3622 3.68804C48.4754 3.59772 48.6154 3.54772 48.7602 3.54596C48.7638 3.54596 48.7673 3.54599 48.7708 3.54606C48.8166 3.54679 48.8623 3.54341 48.9074 3.53596L49.1305 3.67742L49.0348 3.50354C49.1929 3.44843 49.3295 3.34476 49.4251 3.20737L49.8244 3.46057L49.5722 3.00196C49.8056 2.72167 50.1204 2.5498 50.4667 2.5498C50.8819 2.5498 51.2518 2.79674 51.4906 3.18148C51.5612 3.2966 51.6609 3.39099 51.7798 3.45508C51.8987 3.51917 52.0324 3.55066 52.1673 3.54638C52.1747 3.5461 52.1822 3.54597 52.1896 3.54596C52.648 3.54596 53.0196 4.06568 53.0196 4.70678C53.0196 5.34788 52.648 5.86759 52.1896 5.86759C52.0888 5.86722 51.9896 5.84238 51.9006 5.79522C51.7445 5.71938 51.5739 5.67835 51.4004 5.67496C51.227 5.67157 51.0549 5.7059 50.896 5.77558C50.7618 5.8359 50.6163 5.86725 50.4692 5.86759C50.322 5.86793 50.1764 5.83725 50.0419 5.77755C49.8843 5.7092 49.7138 5.67555 49.542 5.67887C49.3702 5.68219 49.2012 5.72241 49.0463 5.7968C48.958 5.84296 48.8599 5.86723 48.7602 5.86759C48.3019 5.86759 47.9303 5.34788 47.9303 4.70678C47.9276 4.45948 47.9872 4.21549 48.1036 3.99727Z" fill="#F2F2F2"/>
<path d="M14.6135 7.4066L15.0322 7.67215L14.778 7.2099C14.85 7.15244 14.9391 7.12064 15.0312 7.11952C15.0334 7.11952 15.0357 7.11954 15.0379 7.11958C15.067 7.12005 15.0961 7.1179 15.1248 7.11316L15.2667 7.20314L15.2059 7.09254C15.3064 7.05748 15.3933 6.99153 15.4541 6.90413L15.7081 7.0652L15.5477 6.77346C15.6152 6.68631 15.7013 6.61528 15.7998 6.56553C15.8982 6.51579 16.0065 6.48856 16.1167 6.48584C16.3808 6.48584 16.6161 6.64292 16.768 6.88766C16.8129 6.96089 16.8764 7.02094 16.952 7.0617C17.0276 7.10247 17.1126 7.12251 17.1985 7.11978C17.2032 7.11961 17.2079 7.11952 17.2127 7.11952C17.5043 7.11952 17.7407 7.45012 17.7407 7.85794C17.7407 8.26576 17.5043 8.59636 17.2127 8.59636C17.1486 8.59612 17.0855 8.58032 17.0288 8.55032C16.9295 8.50208 16.821 8.47598 16.7107 8.47382C16.6003 8.47167 16.4908 8.4935 16.3898 8.53783C16.3044 8.5762 16.2119 8.59614 16.1183 8.59636C16.0247 8.59657 15.9321 8.57706 15.8465 8.53908C15.7462 8.49561 15.6378 8.4742 15.5285 8.47631C15.4192 8.47842 15.3116 8.50401 15.2131 8.55133C15.157 8.58069 15.0946 8.59613 15.0312 8.59636C14.7396 8.59636 14.5032 8.26576 14.5032 7.85794C14.5015 7.70063 14.5394 7.54542 14.6135 7.4066Z" fill="#F2F2F2"/>
<path d="M3.34422 8.82994L3.76295 9.09548L3.50872 8.63324C3.58072 8.57578 3.66982 8.54398 3.76193 8.54286C3.76418 8.54286 3.76643 8.54288 3.76867 8.54292C3.79777 8.54339 3.82684 8.54124 3.85555 8.5365L3.99746 8.62648L3.93663 8.51588C4.03717 8.48082 4.12406 8.41487 4.18488 8.32747L4.43887 8.48854L4.27841 8.1968C4.34599 8.10965 4.43211 8.03862 4.53053 7.98887C4.62896 7.93913 4.73722 7.9119 4.84747 7.90918C5.11159 7.90918 5.34687 8.06626 5.49876 8.311C5.54366 8.38423 5.60713 8.44428 5.68274 8.48505C5.75835 8.52581 5.8434 8.54585 5.92925 8.54312C5.93397 8.54295 5.93871 8.54286 5.94346 8.54286C6.23504 8.54286 6.47141 8.87346 6.47141 9.28128C6.47141 9.6891 6.23504 10.0197 5.94346 10.0197C5.87933 10.0195 5.81623 10.0037 5.75956 9.97366C5.6603 9.92542 5.55176 9.89932 5.44142 9.89716C5.33109 9.89501 5.2216 9.91684 5.12053 9.96117C5.03515 9.99954 4.94264 10.0195 4.84903 10.0197C4.75542 10.0199 4.66281 10.0004 4.57725 9.96242C4.47697 9.91895 4.36851 9.89754 4.25924 9.89965C4.14996 9.90176 4.04241 9.92735 3.94388 9.97467C3.88771 10.004 3.82531 10.0195 3.76193 10.0197C3.47035 10.0197 3.23397 9.6891 3.23397 9.28128C3.23227 9.12397 3.27019 8.96876 3.34422 8.82994Z" fill="#F2F2F2"/>
<path d="M18.4622 36.1626L18.389 36.2357C18.389 36.2357 18.4134 37.0402 18.4378 37.2109C18.4622 37.3815 18.5597 37.6741 18.4865 37.8935C18.4134 38.1129 18.389 38.2835 18.4134 38.3079C18.4378 38.3323 18.389 38.4298 18.389 38.4298L18.5841 38.3079L18.901 37.5766L18.7547 36.7964L18.4622 36.1626Z" fill="#FFA239"/>
<path opacity="0.1" d="M18.4622 36.1626L18.389 36.2357C18.389 36.2357 18.4134 37.0402 18.4378 37.2109C18.4622 37.3815 18.5597 37.6741 18.4865 37.8935C18.4134 38.1129 18.389 38.2835 18.4134 38.3079C18.4378 38.3323 18.389 38.4298 18.389 38.4298L18.5841 38.3079L18.901 37.5766L18.7547 36.7964L18.4622 36.1626Z" fill="black"/>
<path d="M19.7542 43.7443C19.7542 43.7443 19.7542 43.4762 19.7055 43.4274C19.6567 43.3787 19.5836 43.208 19.4861 43.208C19.3886 43.208 19.0473 43.3055 19.0473 43.3299C19.05 43.406 19.0332 43.4815 18.9985 43.5493C18.9497 43.6224 18.6816 43.915 18.9497 43.9637C19.0389 43.9784 19.1301 43.9752 19.218 43.9542C19.3059 43.9333 19.3887 43.8951 19.4617 43.8418C19.4861 43.8175 19.5836 43.7931 19.608 43.8175C19.6323 43.8419 19.7542 43.7443 19.7542 43.7443Z" fill="#FFA239"/>
<path d="M20.4368 43.3051L20.5831 43.5733C20.5831 43.5733 20.6319 43.8171 20.705 43.8415H20.7781C20.7781 43.8415 20.8513 44.1096 21.0219 44.0853C21.1926 44.0609 21.3876 43.9634 21.3876 43.9146C21.3876 43.8658 21.3876 43.7196 21.3145 43.6708C21.2119 43.5871 21.1142 43.4975 21.0219 43.4027L20.9 43.2808L20.4368 43.3051Z" fill="#FFA239"/>
<path d="M18.5659 34.375C18.519 34.399 18.4785 34.4338 18.4478 34.4767C18.4172 34.5195 18.3973 34.5691 18.3898 34.6212C18.3762 34.7953 18.5483 34.9593 18.4929 35.1249C18.4615 35.2189 18.3636 35.2798 18.3355 35.3748C18.3206 35.4506 18.3317 35.5292 18.367 35.5979C18.4055 35.6921 18.4524 35.7827 18.507 35.8685C18.6098 36.0299 18.7436 36.1829 18.771 36.3723C18.7786 36.4054 18.7783 36.4398 18.77 36.4728C18.7618 36.5057 18.7458 36.5362 18.7235 36.5618C18.7729 36.5244 18.8295 36.4975 18.8898 36.4827C19.139 36.3994 19.3704 36.2705 19.5724 36.1025C19.6458 36.0509 19.701 35.9775 19.7303 35.8927C19.7675 35.7429 19.6538 35.5931 19.6647 35.4391C19.6717 35.3406 19.7285 35.2537 19.7607 35.1603C19.7886 35.0674 19.7976 34.9698 19.7869 34.8734C19.7762 34.777 19.7461 34.6837 19.6985 34.5991C19.659 34.5174 19.6034 34.4445 19.5348 34.3849C19.4663 34.3253 19.3864 34.2803 19.3 34.2525C19.167 34.2216 19.0282 34.2256 18.8973 34.2642C18.7828 34.2879 18.6716 34.3251 18.5659 34.375Z" fill="#2F2E41"/>
<path d="M18.7031 35.7271C18.7568 35.6274 18.8363 35.5439 18.9333 35.4854C19.0303 35.4269 19.1412 35.3955 19.2545 35.3945C19.6445 35.3945 19.5714 35.3701 19.5714 35.3701L19.4495 35.8577L19.2057 36.1015L18.7031 35.7271Z" fill="#FFA239"/>
<path d="M18.8035 35.2117C18.8035 35.2117 19.0229 35.5773 18.8766 35.7236C18.7303 35.8699 18.8035 36.0162 18.8278 36.0405C18.8522 36.0649 19.5348 36.1137 19.5348 36.1137L19.5592 35.7724L19.6323 35.4798C19.6323 35.4798 19.2423 35.4067 19.291 35.236C19.3398 35.0654 18.8035 35.2117 18.8035 35.2117Z" fill="#FBBEBE"/>
<path opacity="0.1" d="M18.8035 35.2117C18.8035 35.2117 19.0229 35.5773 18.8766 35.7236C18.7303 35.8699 18.8035 36.0162 18.8278 36.0405C18.8522 36.0649 19.5348 36.1137 19.5348 36.1137L19.5592 35.7724L19.6323 35.4798C19.6323 35.4798 19.2423 35.4067 19.291 35.236C19.3398 35.0654 18.8035 35.2117 18.8035 35.2117Z" fill="black"/>
<path d="M20.51 38.6732C20.4839 38.7569 20.4513 38.8384 20.4124 38.917C20.3881 38.9414 20.3149 38.7463 20.3149 38.7463L20.3881 38.5757L20.51 38.6732Z" fill="#FBBEBE"/>
<path d="M20.2296 37.564L20.3271 38.1247H18.8644L18.9375 37.564H20.2296Z" fill="#FBBEBE"/>
<path d="M19.0716 35.4069C19.3274 35.4069 19.5348 35.1995 19.5348 34.9437C19.5348 34.6878 19.3274 34.4805 19.0716 34.4805C18.8158 34.4805 18.6084 34.6878 18.6084 34.9437C18.6084 35.1995 18.8158 35.4069 19.0716 35.4069Z" fill="#FBBEBE"/>
<path d="M19.1691 35.8942C19.1691 35.8942 18.901 35.9185 18.901 35.8698C18.901 35.821 18.8766 35.6748 18.8278 35.6991C18.7791 35.7235 18.4622 35.7479 18.4865 35.821C18.5109 35.8942 18.5597 36.0404 18.5109 36.0404C18.4898 36.0447 18.4699 36.0533 18.4522 36.0656C18.4345 36.0778 18.4195 36.0936 18.4081 36.1118C18.3967 36.13 18.3892 36.1504 18.3859 36.1717C18.3826 36.1929 18.3837 36.2146 18.389 36.2355C18.4134 36.3574 18.6816 37.0887 18.6816 37.0887C18.6816 37.0887 18.706 37.3325 18.7791 37.4056C18.8088 37.444 18.825 37.4912 18.825 37.5397C18.825 37.5883 18.8088 37.6354 18.7791 37.6738C18.7303 37.7226 18.901 37.7713 18.9741 37.8688C19.0473 37.9663 19.608 37.8932 19.6323 37.8688C19.6567 37.8445 20.2418 37.8445 20.2906 37.7957C20.3393 37.7469 20.2662 37.6007 20.2662 37.6007C20.2662 37.6007 20.2418 37.3813 20.2662 37.3081C20.2906 37.235 20.1687 36.0404 20.0955 35.9673C20.0224 35.8942 20.3149 35.6748 20.3149 35.6748C20.3149 35.6748 20.2662 35.4797 19.9493 35.4554C19.9493 35.4554 19.8517 35.3091 19.7542 35.3091C19.6567 35.3091 19.445 35.4225 19.445 35.4225C19.445 35.4225 19.3886 35.7479 19.3154 35.7723C19.2576 35.8006 19.2074 35.8424 19.1691 35.8942Z" fill="#FFA239"/>
<path d="M20.1443 35.6016L20.3149 35.6747C20.3149 35.6747 20.8025 37.1862 20.7538 37.4787C20.705 37.7713 20.5831 38.7708 20.51 38.7708C20.4368 38.7708 20.2906 38.6245 20.2906 38.6245V38.3807C20.2906 38.332 20.2174 38.1857 20.2662 38.1857C20.3149 38.1857 20.3881 38.1369 20.3393 38.0882C20.2906 38.0394 20.2418 37.9663 20.2906 37.8931C20.3393 37.82 20.3637 37.7956 20.3393 37.7225C20.3149 37.6494 20.2662 37.5762 20.3149 37.5275C20.3637 37.4787 20.193 37.2349 20.193 37.2349L19.9249 36.1623L19.9736 35.7235L20.1443 35.6016Z" fill="#FFA239"/>
<path d="M20.2418 37.9174C20.2418 37.9174 19.3154 37.8443 19.1935 37.8443C19.0716 37.8443 18.7982 37.7295 18.7982 37.7295C18.7982 37.7295 18.0965 38.4294 18.3403 39.5752C18.5841 40.721 18.6328 42.1349 18.7791 42.5493C18.8785 42.8448 18.9599 43.146 19.0229 43.4514C19.0229 43.4514 19.2667 43.0125 19.7298 43.5001C19.7298 43.5001 19.7786 43.1344 19.7055 42.9882C19.6323 42.8419 19.5348 42.0618 19.5348 42.0618C19.5348 42.0618 19.3642 40.8185 19.3642 40.6722C19.3642 40.5259 19.2667 39.2826 19.291 39.2582C19.3154 39.2339 19.4373 40.209 19.4617 40.3797C19.4861 40.5503 19.5592 41.8667 19.6323 42.013C19.7055 42.1593 20.0468 43.3295 20.2418 43.4026C20.4368 43.4757 21.095 43.3782 21.0707 43.3295C21.0463 43.2807 20.8756 43.0125 20.8269 42.9394L20.6319 42.6469L20.1687 41.0623L20.3881 39.1363C20.3881 39.1363 20.51 37.893 20.2418 37.9174Z" fill="#2F2E41"/>
<path d="M19.3538 34.8826H18.7598C18.7346 34.8826 18.7102 34.8736 18.6911 34.8573C18.6719 34.8409 18.6592 34.8182 18.6553 34.7933L18.5963 34.4194H19.5226L19.4398 34.8128C19.4357 34.8326 19.4248 34.8503 19.4092 34.863C19.3935 34.8757 19.374 34.8826 19.3538 34.8826Z" fill="#2F2E41"/>
<path d="M49.9673 34.7671H50.9045V36.106C50.7814 36.106 50.6595 36.0817 50.5458 36.0346C50.4321 35.9875 50.3288 35.9185 50.2418 35.8315C50.1547 35.7444 50.0857 35.6411 50.0386 35.5274C49.9915 35.4137 49.9673 35.2918 49.9673 35.1688V34.7671Z" fill="#2F2E41"/>
<path d="M49.4206 42.6104L49.3536 42.9451H49.8222L49.8445 42.6104H49.4206Z" fill="#A0616A"/>
<path d="M49.4206 42.8786C49.4206 42.8786 49.3313 42.8117 49.2867 42.8563C49.242 42.9009 49.0858 43.7712 49.0635 43.7935C49.0412 43.8158 48.3718 44.1505 48.528 44.1729C48.6842 44.1952 49.2867 44.2175 49.3759 44.1729C49.4652 44.1282 49.7106 43.7043 49.7106 43.7043V44.0836H49.7553C49.7553 44.0836 49.7999 43.6819 49.9115 43.5704C50.023 43.4588 49.8222 43.0794 49.8222 43.0794C49.8222 43.0794 49.8668 42.834 49.8445 42.834C49.8222 42.834 49.4206 42.8786 49.4206 42.8786Z" fill="#FFA239"/>
<path d="M50.804 42.3765L50.7371 42.7112H51.2057L51.228 42.3765H50.804Z" fill="#A0616A"/>
<path d="M50.2685 40.2004C50.2685 40.2004 50.4917 40.8699 50.5363 40.9368C50.5809 41.0038 50.7371 42.2534 50.7371 42.2534C50.7371 42.2534 50.5809 42.4988 50.7817 42.5212C50.9826 42.5435 50.8933 42.4765 51.0272 42.5212C51.0636 42.5349 51.1027 42.5401 51.1414 42.5362C51.1801 42.5323 51.2174 42.5195 51.2503 42.4988C51.2503 42.4988 51.3173 42.3649 51.2727 42.3203C51.228 42.2757 51.3173 41.1153 51.3173 41.1153L51.1834 40.7137L51.0718 39.4418C51.0718 39.4418 51.2057 39.107 51.1388 39.0178C51.0718 38.9285 50.8487 39.0847 50.8487 39.0847L50.2685 40.2004Z" fill="#2F2E41"/>
<path d="M49.9784 38.46C49.9784 38.46 49.9115 39.174 49.8669 39.2187C49.8222 39.2633 49.3313 40.5129 49.3313 40.5129C49.3313 40.5129 49.1974 40.6691 49.242 41.2493C49.2867 41.8294 49.3983 42.4096 49.3983 42.4096C49.3983 42.4096 49.309 42.7443 49.4652 42.7443C49.6214 42.7443 49.6883 42.6551 49.7553 42.722C49.8222 42.789 49.8669 42.722 49.8892 42.6774C49.9115 42.6328 50.0007 42.4766 50.0007 42.4319C50.0007 42.3873 50.09 41.2493 50.09 41.2493C50.09 41.2493 50.8264 39.6203 50.8933 39.5311C50.9603 39.4418 51.3396 38.9509 51.3173 38.6162L49.9784 38.46Z" fill="#2F2E41"/>
<path d="M50.5363 35.4475C50.7951 35.4475 51.0049 35.2377 51.0049 34.9789C51.0049 34.7201 50.7951 34.5103 50.5363 34.5103C50.2775 34.5103 50.0677 34.7201 50.0677 34.9789C50.0677 35.2377 50.2775 35.4475 50.5363 35.4475Z" fill="#A0616A"/>
<path d="M50.447 35.3806C50.447 35.3806 50.6255 35.7822 50.6479 35.8938C50.6702 36.0054 51.0941 35.6707 51.0941 35.6707C51.0941 35.6707 50.871 35.2913 50.9379 35.1128L50.447 35.3806Z" fill="#A0616A"/>
<path d="M51.1611 35.6041C51.1611 35.6041 50.8264 35.3586 50.5809 35.8719C50.3355 36.3851 50.2685 36.3628 50.2685 36.3628C50.2685 36.3628 49.9784 36.452 50.0677 37.0768C50.1569 37.7016 49.7776 38.5273 49.9338 38.5719C50.09 38.6165 51.5404 38.862 51.5404 38.6835C51.5404 38.505 51.4065 37.8132 51.5181 37.3892C51.6297 36.9653 51.3619 35.4925 51.1611 35.6041Z" fill="#3F3D56"/>
<path d="M50.8264 35.7153C50.8264 35.7153 50.5586 36.117 50.5809 36.4294C50.6032 36.7418 50.6032 36.9426 50.6032 36.9426C50.6032 36.9426 50.1569 39.0848 50.2462 39.0848C50.3355 39.0848 50.6032 39.1964 50.6255 39.1294C50.6479 39.0625 51.2057 37.7013 51.2057 37.7013C51.2057 37.7013 51.3396 36.3401 51.1834 36.0277C51.0272 35.7153 50.8264 35.7153 50.8264 35.7153Z" fill="#3F3D56"/>
<path d="M50.2908 39.0181C50.2908 39.0181 50.0677 39.7768 50.3801 39.7991C50.6925 39.8214 50.514 39.0627 50.514 39.0627L50.2908 39.0181Z" fill="#A0616A"/>
<path d="M50.8847 42.5371C50.8847 42.5371 50.8066 42.4785 50.7675 42.5176C50.7284 42.5567 50.5916 43.3188 50.5721 43.3383C50.5525 43.3579 49.9663 43.651 50.1031 43.6705C50.2399 43.6901 50.7675 43.7096 50.8457 43.6705C50.9238 43.6314 51.1388 43.2602 51.1388 43.2602V43.5924H51.1779C51.1779 43.5924 51.2169 43.2406 51.3146 43.1429C51.4123 43.0452 51.2365 42.713 51.2365 42.713C51.2365 42.713 51.2756 42.498 51.256 42.498C51.2365 42.498 50.8847 42.5371 50.8847 42.5371Z" fill="#FFA239"/>
<path d="M50.3046 34.6721C50.3195 34.654 50.339 34.6401 50.3611 34.6322C50.3817 34.6284 50.403 34.6303 50.4227 34.6375C50.5626 34.6783 50.6839 34.7665 50.7659 34.887C50.7818 34.9178 50.8057 34.9436 50.8351 34.9619C50.8542 34.9676 50.8729 34.9747 50.891 34.9832C50.9432 35.0177 50.9121 35.0976 50.8821 35.1525C50.8053 35.2936 50.7698 35.4535 50.7797 35.6139C50.7791 35.6417 50.7873 35.6691 50.8032 35.6921C50.8285 35.7154 50.8615 35.7286 50.8959 35.7291C51.0042 35.7427 51.1134 35.7485 51.2225 35.7465C51.3293 35.7446 51.4478 35.7295 51.517 35.6481C51.5914 35.5606 51.5797 35.4266 51.5313 35.3225C51.4829 35.2184 51.4043 35.1313 51.3484 35.031C51.2954 34.925 51.2535 34.8138 51.2235 34.6991C51.1848 34.5528 51.1225 34.4138 51.039 34.2875C50.9969 34.2247 50.9422 34.1711 50.8785 34.1303C50.8148 34.0894 50.7433 34.0621 50.6685 34.05C50.4658 34.0274 50.2789 34.1523 50.116 34.275C49.933 34.4127 49.7383 34.5832 49.7236 34.8117C49.7117 34.9969 49.8229 35.1644 49.881 35.3406C49.9707 35.6127 49.9331 35.9082 49.8946 36.192C50.0598 36.0931 50.2467 35.9556 50.2359 35.7634C50.2286 35.6336 50.1307 35.5301 50.0698 35.4153C49.9022 35.0997 50.0933 34.8881 50.3046 34.6721Z" fill="#2F2E41"/>
<path d="M56.8944 36.9526C57.0362 36.7051 57.1095 36.4242 57.1067 36.139C57.1067 35.4037 56.6513 34.8076 56.0896 34.8076C55.528 34.8076 55.0726 35.4037 55.0726 36.139C55.0698 36.4242 55.1431 36.7051 55.2849 36.9526C55.1457 37.2012 55.0726 37.4813 55.0726 37.7662C55.0726 38.0511 55.1457 38.3313 55.2849 38.5799C55.1457 38.8284 55.0726 39.1086 55.0726 39.3935C55.0726 39.6784 55.1457 39.9585 55.2849 40.2071C55.1457 40.4557 55.0726 40.7358 55.0726 41.0207C55.0726 41.3056 55.1457 41.5858 55.2849 41.8343C55.1431 42.0819 55.0698 42.3627 55.0726 42.648C55.0726 43.3833 55.528 43.9793 56.0896 43.9793C56.6513 43.9793 57.1067 43.3833 57.1067 42.648C57.1095 42.3627 57.0362 42.0819 56.8944 41.8343C57.0336 41.5858 57.1067 41.3056 57.1067 41.0207C57.1067 40.7358 57.0336 40.4557 56.8944 40.2071C57.0336 39.9585 57.1067 39.6784 57.1067 39.3935C57.1067 39.1086 57.0336 38.8284 56.8944 38.5799C57.0336 38.3313 57.1067 38.0511 57.1067 37.7662C57.1067 37.4813 57.0336 37.2012 56.8944 36.9526Z" fill="#3F3D56"/>
<path d="M56.0896 35.8434C56.6513 35.8434 57.1067 35.2473 57.1067 34.512C57.1067 33.7767 56.6513 33.1807 56.0896 33.1807C55.528 33.1807 55.0726 33.7767 55.0726 34.512C55.0726 35.2473 55.528 35.8434 56.0896 35.8434Z" fill="#3F3D56"/>
<path d="M56.0896 34.216C56.6513 34.216 57.1067 33.6199 57.1067 32.8846C57.1067 32.1493 56.6513 31.5532 56.0896 31.5532C55.528 31.5532 55.0726 32.1493 55.0726 32.8846C55.0726 33.6199 55.528 34.216 56.0896 34.216Z" fill="#3F3D56"/>
<path d="M59.8969 21.7491C60.0358 21.5722 60.1624 21.3859 60.2756 21.1915L57.6033 20.7526L60.4935 20.7741C60.7707 20.1709 60.922 19.5174 60.938 18.8537C60.954 18.19 60.8344 17.53 60.5865 16.9141L56.709 18.9256L60.285 16.297C59.95 15.718 59.4993 15.2143 58.9611 14.8171C58.4229 14.4199 57.8087 14.1378 57.1567 13.9884C56.5048 13.8389 55.829 13.8254 55.1715 13.9485C54.5141 14.0716 53.889 14.3287 53.3353 14.7039C52.7816 15.0792 52.311 15.5644 51.953 16.1294C51.595 16.6943 51.3571 17.327 51.2542 17.9879C51.1514 18.6489 51.1857 19.3239 51.3551 19.971C51.5245 20.618 51.8253 21.2233 52.2388 21.7491C52.0222 22.0244 51.836 22.3222 51.6832 22.6375L55.1521 24.4397L51.4533 23.1983C51.1936 23.966 51.1294 24.7864 51.2666 25.5852C51.4037 26.3839 51.7379 27.1359 52.2388 27.773C51.6736 28.4916 51.322 29.3547 51.2242 30.2637C51.1264 31.1727 51.2864 32.0908 51.6858 32.9132C52.0853 33.7356 52.708 34.4289 53.4829 34.914C54.2578 35.3991 55.1536 35.6564 56.0678 35.6564C56.9821 35.6564 57.8778 35.3991 58.6528 34.914C59.4277 34.4289 60.0504 33.7356 60.4499 32.9132C60.8493 32.0908 61.0093 31.1727 60.9115 30.2637C60.8137 29.3547 60.4621 28.4916 59.8969 27.773C60.5722 26.9143 60.9394 25.8535 60.9394 24.761C60.9394 23.6686 60.5722 22.6078 59.8969 21.7491Z" fill="#F2F2F2"/>
<path d="M51.1963 24.7607C51.1946 25.8535 51.562 26.9148 52.2388 27.7727C51.6736 28.4913 51.322 29.3544 51.2242 30.2634C51.1264 31.1724 51.2864 32.0905 51.6858 32.9129C52.0853 33.7353 52.708 34.4286 53.4829 34.9137C54.2578 35.3988 55.1536 35.6561 56.0678 35.6561C56.9821 35.6561 57.8778 35.3988 58.6528 34.9137C59.4277 34.4286 60.0504 33.7353 60.4499 32.9129C60.8493 32.0905 61.0093 31.1724 60.9115 30.2634C60.8137 29.3544 60.4621 28.4913 59.8969 27.7727C60.5498 26.9438 51.1963 24.214 51.1963 24.7607Z" fill="#F2F2F2"/>
<path d="M59.8969 21.7491C60.0358 21.5722 60.1624 21.3859 60.2756 21.1915L57.6033 20.7526L60.4935 20.7741C60.7707 20.1709 60.922 19.5174 60.938 18.8537C60.954 18.19 60.8344 17.53 60.5865 16.9141L56.709 18.9256L60.285 16.297C59.95 15.718 59.4993 15.2143 58.9611 14.8171C58.4229 14.4199 57.8087 14.1378 57.1567 13.9884C56.5048 13.8389 55.829 13.8254 55.1715 13.9485C54.5141 14.0716 53.889 14.3287 53.3353 14.7039C52.7816 15.0792 52.311 15.5644 51.953 16.1294C51.595 16.6943 51.3571 17.327 51.2542 17.9879C51.1514 18.6489 51.1857 19.3239 51.3551 19.971C51.5245 20.618 51.8253 21.2233 52.2388 21.7491C52.0222 22.0244 51.836 22.3222 51.6832 22.6375L55.1521 24.4397L51.4533 23.1983C51.1936 23.966 51.1294 24.7864 51.2666 25.5852C51.4037 26.3839 51.7379 27.1359 52.2388 27.773C51.6736 28.4916 51.322 29.3547 51.2242 30.2637C51.1264 31.1727 51.2864 32.0908 51.6858 32.9132C52.0853 33.7356 52.708 34.4289 53.4829 34.914C54.2578 35.3991 55.1536 35.6564 56.0678 35.6564C56.9821 35.6564 57.8778 35.3991 58.6528 34.914C59.4277 34.4289 60.0504 33.7356 60.4499 32.9132C60.8493 32.0908 61.0093 31.1727 60.9115 30.2637C60.8137 29.3547 60.4621 28.4916 59.8969 27.773C60.5722 26.9143 60.9394 25.8535 60.9394 24.761C60.9394 23.6686 60.5722 22.6078 59.8969 21.7491Z" fill="#57B894"/>
<path opacity="0.1" d="M51.1963 24.7607C51.1946 25.8535 51.562 26.9148 52.2388 27.7727C51.6736 28.4913 51.322 29.3544 51.2242 30.2634C51.1264 31.1724 51.2864 32.0905 51.6858 32.9129C52.0853 33.7353 52.708 34.4286 53.4829 34.9137C54.2578 35.3988 55.1536 35.6561 56.0678 35.6561C56.9821 35.6561 57.8778 35.3988 58.6528 34.9137C59.4277 34.4286 60.0504 33.7353 60.4499 32.9129C60.8493 32.0905 61.0093 31.1724 60.9115 30.2634C60.8137 29.3544 60.4621 28.4913 59.8969 27.7727C60.5498 26.9438 51.1963 24.214 51.1963 24.7607Z" fill="black"/>
<path d="M5.69812 36.9526C5.83993 36.7051 5.9132 36.4242 5.9104 36.139C5.9104 35.4037 5.45506 34.8076 4.89337 34.8076C4.33168 34.8076 3.87634 35.4037 3.87634 36.139C3.87354 36.4242 3.94681 36.7051 4.08862 36.9526C3.94943 37.2012 3.87634 37.4813 3.87634 37.7662C3.87634 38.0511 3.94943 38.3313 4.08862 38.5799C3.94943 38.8284 3.87634 39.1086 3.87634 39.3935C3.87634 39.6784 3.94943 39.9585 4.08862 40.2071C3.94943 40.4557 3.87634 40.7358 3.87634 41.0207C3.87634 41.3056 3.94943 41.5858 4.08862 41.8343C3.94681 42.0819 3.87354 42.3627 3.87634 42.648C3.87634 43.3833 4.33168 43.9793 4.89337 43.9793C5.45506 43.9793 5.9104 43.3833 5.9104 42.648C5.9132 42.3627 5.83993 42.0819 5.69812 41.8343C5.83731 41.5858 5.9104 41.3056 5.9104 41.0207C5.9104 40.7358 5.83731 40.4557 5.69812 40.2071C5.83731 39.9585 5.9104 39.6784 5.9104 39.3935C5.9104 39.1086 5.83731 38.8284 5.69812 38.5799C5.83731 38.3313 5.9104 38.0511 5.9104 37.7662C5.9104 37.4813 5.83731 37.2012 5.69812 36.9526Z" fill="#3F3D56"/>
<path d="M4.89337 35.8434C5.45506 35.8434 5.91039 35.2473 5.91039 34.512C5.91039 33.7767 5.45506 33.1807 4.89337 33.1807C4.33168 33.1807 3.87634 33.7767 3.87634 34.512C3.87634 35.2473 4.33168 35.8434 4.89337 35.8434Z" fill="#3F3D56"/>
<path d="M4.89337 34.216C5.45506 34.216 5.91039 33.6199 5.91039 32.8846C5.91039 32.1493 5.45506 31.5532 4.89337 31.5532C4.33168 31.5532 3.87634 32.1493 3.87634 32.8846C3.87634 33.6199 4.33168 34.216 4.89337 34.216Z" fill="#3F3D56"/>
<path d="M8.7006 21.7491C8.83954 21.5722 8.9661 21.3859 9.07935 21.1915L6.40703 20.7526L9.29722 20.7741C9.57447 20.1709 9.72573 19.5174 9.74172 18.8537C9.75772 18.19 9.63812 17.53 9.39025 16.9141L5.51272 18.9256L9.08871 16.297C8.75368 15.718 8.30304 15.2143 7.76484 14.8171C7.22665 14.4199 6.61244 14.1378 5.96046 13.9884C5.30849 13.8389 4.63273 13.8254 3.97527 13.9485C3.31782 14.0716 2.69275 14.3287 2.13902 14.7039C1.58529 15.0792 1.11475 15.5644 0.756712 16.1294C0.398678 16.6943 0.160821 17.327 0.0579574 17.9879C-0.0449064 18.6489 -0.0105731 19.3239 0.158819 19.971C0.328211 20.618 0.629033 21.2233 1.04254 21.7491C0.825965 22.0244 0.639693 22.3222 0.486959 22.6375L3.95582 24.4397L0.257047 23.1983C-0.00266299 23.966 -0.0668455 24.7864 0.0703067 25.5852C0.207459 26.3839 0.541617 27.1359 1.04254 27.773C0.477339 28.4916 0.125743 29.3547 0.0279521 30.2637C-0.0698384 31.1727 0.090124 32.0908 0.489551 32.9132C0.888978 33.7356 1.51175 34.4289 2.28666 34.914C3.06157 35.3991 3.95735 35.6564 4.87157 35.6564C5.7858 35.6564 6.68157 35.3991 7.45648 34.914C8.23139 34.4289 8.85416 33.7356 9.25359 32.9132C9.65302 32.0908 9.81298 31.1727 9.71519 30.2637C9.6174 29.3547 9.2658 28.4916 8.7006 27.773C9.37597 26.9143 9.74314 25.8535 9.74314 24.761C9.74314 23.6686 9.37597 22.6078 8.7006 21.7491Z" fill="#F2F2F2"/>
<path d="M5.75053e-06 24.7607C-0.00167627 25.8535 0.365679 26.9148 1.04255 27.7727C0.477341 28.4913 0.125744 29.3544 0.027954 30.2634C-0.0698365 31.1724 0.0901259 32.0905 0.489553 32.9129C0.888979 33.7353 1.51175 34.4286 2.28666 34.9137C3.06157 35.3988 3.95735 35.6561 4.87157 35.6561C5.7858 35.6561 6.68157 35.3988 7.45648 34.9137C8.23139 34.4286 8.85416 33.7353 9.25359 32.9129C9.65302 32.0905 9.81298 31.1724 9.71519 30.2634C9.6174 29.3544 9.2658 28.4913 8.7006 27.7727C9.35354 26.9438 5.75053e-06 24.214 5.75053e-06 24.7607Z" fill="#F2F2F2"/>
<path d="M8.7006 21.7491C8.83954 21.5722 8.9661 21.3859 9.07935 21.1915L6.40703 20.7526L9.29722 20.7741C9.57447 20.1709 9.72573 19.5174 9.74172 18.8537C9.75772 18.19 9.63812 17.53 9.39025 16.9141L5.51272 18.9256L9.08871 16.297C8.75368 15.718 8.30304 15.2143 7.76484 14.8171C7.22665 14.4199 6.61244 14.1378 5.96046 13.9884C5.30849 13.8389 4.63273 13.8254 3.97527 13.9485C3.31782 14.0716 2.69275 14.3287 2.13902 14.7039C1.58529 15.0792 1.11475 15.5644 0.756712 16.1294C0.398678 16.6943 0.160821 17.327 0.0579574 17.9879C-0.0449064 18.6489 -0.0105731 19.3239 0.158819 19.971C0.328211 20.618 0.629033 21.2233 1.04254 21.7491C0.825965 22.0244 0.639693 22.3222 0.486959 22.6375L3.95582 24.4397L0.257047 23.1983C-0.00266299 23.966 -0.0668455 24.7864 0.0703067 25.5852C0.207459 26.3839 0.541617 27.1359 1.04254 27.773C0.477339 28.4916 0.125743 29.3547 0.0279521 30.2637C-0.0698384 31.1727 0.090124 32.0908 0.489551 32.9132C0.888978 33.7356 1.51175 34.4289 2.28666 34.914C3.06157 35.3991 3.95735 35.6564 4.87157 35.6564C5.7858 35.6564 6.68157 35.3991 7.45648 34.914C8.23139 34.4289 8.85416 33.7356 9.25359 32.9132C9.65302 32.0908 9.81298 31.1727 9.71519 30.2637C9.6174 29.3547 9.2658 28.4916 8.7006 27.773C9.37597 26.9143 9.74314 25.8535 9.74314 24.761C9.74314 23.6686 9.37597 22.6078 8.7006 21.7491Z" fill="#57B894"/>
<path opacity="0.1" d="M5.75053e-06 24.7607C-0.00167627 25.8535 0.365679 26.9148 1.04255 27.7727C0.477341 28.4913 0.125744 29.3544 0.027954 30.2634C-0.0698365 31.1724 0.0901259 32.0905 0.489553 32.9129C0.888979 33.7353 1.51175 34.4286 2.28666 34.9137C3.06157 35.3988 3.95735 35.6561 4.87157 35.6561C5.7858 35.6561 6.68157 35.3988 7.45648 34.9137C8.23139 34.4286 8.85416 33.7353 9.25359 32.9129C9.65302 32.0905 9.81298 31.1724 9.71519 30.2634C9.6174 29.3544 9.2658 28.4913 8.7006 27.7727C9.35354 26.9438 5.75053e-06 24.214 5.75053e-06 24.7607Z" fill="black"/>
<path d="M35.1074 21.4814L32.6902 23.8986L31.545 22.7534L31.0991 23.1993L32.6887 24.7889L35.5534 21.9273L35.1074 21.4814Z" fill="#57B894"/>
<path d="M42.802 15.9683L40.3848 18.3855L39.2395 17.2402L38.7937 17.6861L40.3833 19.2757L43.2479 16.4141L42.802 15.9683Z" fill="#57B894"/>
</g>
<defs>
<clipPath id="clip0_339_3265">
<rect width="61" height="46.1675" fill="white"/>
</clipPath>
</defs>
</svg>
