<svg width="258" height="163" viewBox="0 0 258 163" fill="none" xmlns="http://www.w3.org/2000/svg">
<g clip-path="url(#clip0_339_3048)">
<path d="M187.774 39.5302C187.774 55.1033 163.431 101.03 149.474 126.082C148.528 127.782 147.144 129.198 145.467 130.184C143.789 131.17 141.879 131.69 139.933 131.69C137.988 131.69 136.077 131.17 134.4 130.184C132.722 129.198 131.339 127.782 130.392 126.082C116.435 101.03 92.0928 55.1033 92.0928 39.5302C92.0928 17.6983 113.512 0 139.933 0C166.355 0 187.774 17.6983 187.774 39.5302Z" fill="#FFA239"/>
<path d="M140.158 65.1348C154.547 65.1348 166.212 53.4701 166.212 39.0808C166.212 24.6916 154.547 13.0269 140.158 13.0269C125.769 13.0269 114.104 24.6916 114.104 39.0808C114.104 53.4701 125.769 65.1348 140.158 65.1348Z" fill="white"/>
<path d="M31.4363 62.6549C40.0548 62.6549 47.0415 55.6682 47.0415 47.0496C47.0415 38.4311 40.0548 31.4443 31.4363 31.4443C22.8177 31.4443 15.831 38.4311 15.831 47.0496C15.831 55.6682 22.8177 62.6549 31.4363 62.6549Z" fill="#FF6584"/>
<path d="M139.933 162.319C160.796 162.319 177.708 161.014 177.708 159.403C177.708 157.793 160.796 156.487 139.933 156.487C119.071 156.487 102.159 157.793 102.159 159.403C102.159 161.014 119.071 162.319 139.933 162.319Z" fill="#FFA239"/>
<path opacity="0.4" d="M28.2589 60.9274C29.0531 56.0331 25.7293 51.4216 20.8351 50.6274C15.9408 49.8331 11.3293 53.1569 10.5351 58.0512C9.74084 62.9455 13.0646 67.5569 17.9589 68.3512C22.8532 69.1454 27.4646 65.8217 28.2589 60.9274Z" fill="#FFA239"/>
<path d="M229.441 105.802C158.741 79.2986 72.511 105.137 22.7255 157.991C22.4425 158.287 22.1595 158.588 21.8854 158.889H21.1263C21.3868 158.588 21.6563 158.287 21.9214 157.991C72.7401 101.117 157.824 78.4496 229.441 105.802Z" fill="#3F3D56"/>
<path d="M248.762 114.593C242.512 111.26 236.06 108.324 229.441 105.802C236.077 108.282 242.532 111.22 248.762 114.593Z" fill="#3F3D56"/>
<path opacity="0.4" d="M210.067 88.1504C215.505 88.1504 219.914 83.7419 219.914 78.3037C219.914 72.8655 215.505 68.457 210.067 68.457C204.629 68.457 200.221 72.8655 200.221 78.3037C200.221 83.7419 204.629 88.1504 210.067 88.1504Z" fill="#FFA239"/>
<path d="M211.164 154.042C211.925 156.855 214.531 158.597 214.531 158.597C214.531 158.597 215.904 155.779 215.143 152.966C214.382 150.153 211.775 148.411 211.775 148.411C211.775 148.411 210.403 151.23 211.164 154.042Z" fill="#3F3D56"/>
<path d="M212.282 153.438C214.37 155.47 214.625 158.595 214.625 158.595C214.625 158.595 211.495 158.424 209.407 156.392C207.319 154.359 207.064 151.234 207.064 151.234C207.064 151.234 210.194 151.405 212.282 153.438Z" fill="#FFA239"/>
<path d="M1.50933 114.932V119.271L1.2937 119.505V114.887C1.36557 114.901 1.43747 114.919 1.50933 114.932Z" fill="#3F3D56"/>
<path d="M15.3359 157.989C15.273 158.092 15.2057 158.195 15.1383 158.299H1.29372V115.148L1.50934 114.932L3.34659 117.021V113.966H9.18628V123.66L15.0844 130.358L15.1383 130.421C15.2101 130.645 15.2775 130.87 15.3449 131.095C15.3454 131.098 15.347 131.101 15.3494 131.104C16.234 133.934 16.9598 136.812 17.5236 139.724C18.8083 146.592 18.6151 152.89 15.3359 157.989Z" fill="#CCCCCC"/>
<path d="M6.15484 138.784H2.4379V141.881H6.15484V138.784Z" fill="#3F3D56"/>
<path d="M6.15484 144.359H2.4379V147.457H6.15484V144.359Z" fill="#3F3D56"/>
<path d="M120.651 132.899L118.793 129.801L136.139 114.934C148.962 108.761 164.42 110.542 180.742 114.934V119.27L164.636 136.616L146.051 140.333L120.651 132.899Z" fill="#3F3D56"/>
<path d="M188.42 123.658C191.5 120.232 191.928 116.974 188.42 113.966H182.58V117.022L180.742 114.933L165.874 129.801L163.396 132.279L160.299 144.669L165.874 158.298H194.371V130.421L188.42 123.658Z" fill="#CCCCCC"/>
<path d="M118.793 129.801H165.874V158.298H118.793C113.097 152.135 116.056 140.903 118.793 129.801Z" fill="#F2F2F2"/>
<path d="M159.37 138.784H149.458V147.457H159.37V138.784Z" fill="#3F3D56"/>
<path d="M145.431 138.474H136.758V158.298H145.431V138.474Z" fill="#CCCCCC"/>
<path d="M126.847 141.571V138.474H123.13V141.571H126.537H126.847Z" fill="#3F3D56"/>
<path d="M126.537 144.049H123.13V147.147H126.847V144.049H126.537Z" fill="#3F3D56"/>
<path d="M133.041 138.474H129.324V141.572H133.041V138.474Z" fill="#3F3D56"/>
<path d="M133.041 144.049H129.324V147.147H133.041V144.049Z" fill="#3F3D56"/>
<path d="M179.193 141.881V138.784H175.476V141.881H178.884H179.193Z" fill="#3F3D56"/>
<path d="M178.884 144.359H175.476V147.457H179.193V144.359H178.884Z" fill="#3F3D56"/>
<path d="M185.388 138.784H181.671V141.881H185.388V138.784Z" fill="#3F3D56"/>
<path d="M185.388 144.359H181.671V147.457H185.388V144.359Z" fill="#3F3D56"/>
<path d="M36.8197 80.8616L33.7224 78.3833L51.068 62.896H95.0517V76.5249L66.5554 95.7294L36.8197 80.8616Z" fill="#3F3D56"/>
<path d="M103.071 71.5837V63.2055H97.2312V65.2575L95.0516 62.896L80.8032 78.3833L75.2281 82.1005L66.5832 145.26L79.6205 158.298H109.919C114.562 134.944 118.243 110.954 109.919 79.0027L103.071 71.5837Z" fill="#CCCCCC"/>
<path d="M33.7221 78.3833H80.8034V158.298H33.7221C28.5701 127.252 26.0539 98.4607 33.7221 78.3833Z" fill="#F2F2F2"/>
<path d="M60.67 138.784H51.9971V158.298H60.67V138.784Z" fill="#CCCCCC"/>
<path d="M42.7047 144.359V141.262H38.988V144.359H42.3952H42.7047Z" fill="#3F3D56"/>
<path d="M42.3952 146.837H38.988V149.935H42.7047V146.837H42.3952Z" fill="#3F3D56"/>
<path d="M48.8996 141.262H45.1827V144.359H48.8996V141.262Z" fill="#3F3D56"/>
<path d="M67.7943 146.837H64.3871V149.935H68.1038V146.837H67.7943Z" fill="#3F3D56"/>
<path d="M74.2988 141.262H70.5818V144.359H74.2988V141.262Z" fill="#3F3D56"/>
<path d="M74.2988 146.837H70.5818V149.934H74.2988V146.837Z" fill="#3F3D56"/>
<path d="M94.1223 82.4103V79.313H90.4055V82.4103H93.8128H94.1223Z" fill="#3F3D56"/>
<path d="M93.8128 84.8882H90.4055V87.9855H94.1223V84.8882H93.8128Z" fill="#3F3D56"/>
<path d="M100.317 79.3125H96.6004V82.41H100.317V79.3125Z" fill="#3F3D56"/>
<path d="M100.317 84.8882H96.6004V87.9856H100.317V84.8882Z" fill="#3F3D56"/>
<path d="M94.1223 99.7564V96.6587H90.4055V99.7564H93.8128H94.1223Z" fill="#3F3D56"/>
<path d="M93.8128 102.234H90.4055V105.331H94.1223V102.234H93.8128Z" fill="#3F3D56"/>
<path d="M100.317 96.6582H96.6004V99.7557H100.317V96.6582Z" fill="#3F3D56"/>
<path d="M100.317 102.234H96.6004V105.331H100.317V102.234Z" fill="#3F3D56"/>
<path d="M94.1223 117.102V114.004H90.4055V117.102H93.8128H94.1223Z" fill="#3F3D56"/>
<path d="M93.8128 119.58H90.4055V122.677H94.1223V119.58H93.8128Z" fill="#3F3D56"/>
<path d="M100.317 114.004H96.6004V117.101H100.317V114.004Z" fill="#3F3D56"/>
<path d="M100.317 119.58H96.6004V122.677H100.317V119.58Z" fill="#3F3D56"/>
<path d="M94.1223 134.447V131.35H90.4055V134.447H93.8128H94.1223Z" fill="#3F3D56"/>
<path d="M93.8128 136.925H90.4055V140.023H94.1223V136.925H93.8128Z" fill="#3F3D56"/>
<path d="M100.317 131.35H96.6004V134.447H100.317V131.35Z" fill="#3F3D56"/>
<path d="M100.317 136.925H96.6004V140.023H100.317V136.925Z" fill="#3F3D56"/>
<path d="M38.9878 82.4102H74.9182V89.844C63.4014 86.6656 51.3916 86.8936 38.9878 89.844V82.4102Z" fill="#3F3D56"/>
<path d="M38.9878 97.2778C50.2021 100.582 62.1789 100.582 74.9182 97.2778V104.712H38.9878V97.2778Z" fill="#3F3D56"/>
<path d="M38.9878 112.146H74.9182V119.579C62.6732 115.669 50.6838 115.485 38.9878 119.579V112.146Z" fill="#3F3D56"/>
<path d="M38.9878 127.013C50.7058 131.529 62.6934 131.341 74.9182 127.013V134.447H38.9878V127.013Z" fill="#3F3D56"/>
<path d="M232.096 114.099H257.342V126.263L255.087 126.969L247.585 129.31L235.816 126.584L224.06 123.859L217.852 122.421L214.752 121.274C217.331 117.736 222.02 114.954 232.096 114.099Z" fill="#3F3D56"/>
<path d="M257.342 121.274V158.298H214.752C214.739 158.276 214.73 158.255 214.716 158.232V158.23C214.706 158.204 214.694 158.179 214.68 158.155C214.016 156.817 213.42 155.482 212.893 154.151C208.423 142.885 208.908 131.918 214.752 121.274H257.342Z" fill="#F2F2F2"/>
<path d="M241.7 138.784H233.027V158.298H241.7V138.784Z" fill="#CCCCCC"/>
<path d="M223.735 144.359V141.262H220.018V144.359H223.426H223.735Z" fill="#3F3D56"/>
<path d="M223.426 146.837H220.018V149.935H223.735V146.837H223.426Z" fill="#3F3D56"/>
<path d="M229.93 141.262H226.213V144.359H229.93V141.262Z" fill="#3F3D56"/>
<path d="M229.93 146.837H226.213V149.934H229.93V146.837Z" fill="#3F3D56"/>
<path d="M249.134 144.359V141.262H245.417V144.359H248.825H249.134Z" fill="#3F3D56"/>
<path d="M248.825 146.837H245.417V149.935H249.134V146.837H248.825Z" fill="#3F3D56"/>
<path d="M255.329 141.262H251.612V144.359H255.329V141.262Z" fill="#3F3D56"/>
<path d="M255.329 146.837H251.612V149.934H255.329V146.837Z" fill="#3F3D56"/>
<path d="M224.061 99.7241H229.4C234.666 99.7241 239.717 101.816 243.44 105.54C247.164 109.263 249.256 114.314 249.256 119.58H224.061V99.7241Z" fill="#3F3D56"/>
<path d="M62.3466 45.8188H67.6858C72.9518 45.8188 78.0022 47.9108 81.7258 51.6344C85.4495 55.3581 87.5414 60.4084 87.5414 65.6745H62.3466V45.8188Z" fill="#3F3D56"/>
<path d="M147.696 95.6812H153.035C158.301 95.6812 163.351 97.7731 167.075 101.497C170.799 105.22 172.891 110.271 172.891 115.537H147.696V95.6812Z" fill="#3F3D56"/>
<path d="M249.256 127.013H224.061V134.447H249.256V127.013Z" fill="#3F3D56"/>
<path d="M257.342 157.99H1.29379V158.889H257.342V157.99Z" fill="#3F3D56"/>
<path d="M24.9089 122.501H24.0105V157.988H24.9089V122.501Z" fill="#3F3D56"/>
<path d="M33.2002 127.023C33.2574 139.432 24.527 149.532 24.527 149.532C24.527 149.532 13.3466 139.298 15.6467 127.104C17.9599 114.84 25.1694 104.647 24.3199 104.595C24.3199 104.595 33.143 114.614 33.2002 127.023Z" fill="#FFA239"/>
<path d="M114.75 122.501H113.852V157.988H114.75V122.501Z" fill="#3F3D56"/>
<path d="M123.042 127.023C123.851 139.406 114.368 149.532 114.368 149.532C114.368 149.532 105.545 139.513 105.488 127.104C105.431 114.695 114.161 104.595 114.161 104.595C113.31 107.997 122.386 117.004 123.042 127.023Z" fill="#FFA239"/>
<path d="M56.3813 64.8154L95.4057 62.9062L111.776 76.5707L108.882 79.1837L82.9586 78.6002L56.3813 64.8154Z" fill="#3F3D56"/>
<path d="M17.4427 128.228L15.3404 130.128L15.0844 130.358L14.5498 130.843L1.29372 130.546V114.887C0.862479 114.793 0.431238 114.703 0 114.617L1.07361 114.563L1.29372 114.748L3.3466 116.459L9.18628 121.337L15.7088 126.782L17.4427 128.228Z" fill="#3F3D56"/>
<path d="M141.731 116.475L180.755 114.565L197.125 128.23L194.231 130.843L168.308 130.259L141.731 116.475Z" fill="#3F3D56"/>
</g>
<defs>
<clipPath id="clip0_339_3048">
<rect width="257.342" height="162.32" fill="white"/>
</clipPath>
</defs>
</svg>
