<svg width="394" height="324" viewBox="0 0 394 324" fill="none" xmlns="http://www.w3.org/2000/svg">
<g clip-path="url(#clip0_339_2779)">
<path d="M341.195 74.7983C351.735 74.8026 356.263 90.0642 366.578 92.2329C371.184 93.2015 375.885 91.2733 380.592 91.1898C385.298 91.1064 390.928 94.5241 389.934 99.1253L300.201 97.7725C309.476 96.8095 318.151 92.7341 324.814 86.2103C329.678 81.3735 334.336 74.7955 341.195 74.7983Z" fill="#F0F0F0"/>
<path d="M135.379 234.92C148.491 234.919 161.178 230.268 171.183 221.793C181.189 213.319 187.865 201.571 190.025 188.638L190.043 188.532L189.974 188.448C186.429 184.204 183.564 179.436 181.481 174.314C183.96 177.492 186.955 180.232 190.342 182.419L190.689 182.65L190.709 182.233C190.753 181.316 190.776 180.404 190.776 179.523C190.807 170.103 188.421 160.833 183.847 152.598C179.273 144.363 172.664 137.438 164.651 132.486C178.674 117.934 186.491 98.5008 186.451 78.2915C186.451 35.1215 151.322 7.82015e-05 108.144 7.82015e-05C91.6809 -0.0231996 75.6309 5.15082 62.2812 14.7847C48.9316 24.4185 38.9637 38.0206 33.7983 53.652L33.7285 53.8625L33.934 53.9457C39.2653 56.1042 44.1721 57.1413 48.8651 57.0907C43.5165 58.6052 37.9645 59.2765 32.4091 59.0803L32.218 59.0739L32.1717 59.2594C30.6195 65.4844 29.8354 71.876 29.8368 78.2915C29.8368 78.523 29.8378 78.7544 29.8398 78.9855C29.8547 83.974 28.8183 88.9096 26.7981 93.4707C24.7778 98.0317 21.8191 102.116 18.1147 105.457C12.1968 110.841 7.51541 117.443 4.39282 124.81C1.27023 132.176 -0.219486 140.131 0.026124 148.128C0.271734 156.125 2.24684 163.974 5.8156 171.135C9.38435 178.295 14.462 184.598 20.6992 189.609L20.8127 189.7L20.9453 189.64C29.1353 185.924 34.8392 181.776 38.7241 176.683C36.0973 183.095 32.2675 188.946 27.4415 193.92L27.2313 194.136L27.4919 194.289C35.7708 199.111 45.158 201.706 54.7384 201.82C64.3187 201.934 73.765 199.563 82.1563 194.939C85.5265 206.453 92.5307 216.569 102.123 223.775C111.716 230.98 123.382 234.89 135.379 234.92Z" fill="#FFA239"/>
<path d="M155.115 323.16C155.357 323.159 155.591 323.072 155.774 322.913C155.957 322.754 156.076 322.535 156.11 322.295C156.153 321.995 160.341 291.787 156.58 251.639C153.106 214.562 141.949 161.158 108.529 117.299C108.449 117.193 108.349 117.105 108.235 117.038C108.121 116.972 107.994 116.928 107.863 116.91C107.732 116.893 107.599 116.901 107.471 116.935C107.343 116.969 107.223 117.027 107.118 117.107C107.013 117.187 106.925 117.288 106.858 117.402C106.792 117.516 106.748 117.643 106.731 117.774C106.713 117.905 106.721 118.038 106.755 118.166C106.789 118.294 106.848 118.414 106.928 118.519C140.059 162 151.126 215.012 154.575 251.827C158.315 291.741 154.16 321.713 154.117 322.011C154.097 322.154 154.108 322.3 154.148 322.438C154.189 322.576 154.259 322.704 154.354 322.813C154.449 322.922 154.566 323.009 154.697 323.069C154.828 323.129 154.971 323.16 155.115 323.16Z" fill="#3F3D56"/>
<path d="M138.408 175.293C138.621 175.293 138.828 175.226 139 175.101C139.172 174.977 139.3 174.8 139.366 174.598C139.432 174.396 139.432 174.178 139.366 173.976C139.301 173.774 139.173 173.598 139.001 173.473C138.88 173.384 126.654 164.575 108.376 157.883C91.4796 151.697 65.7862 146.089 39.3353 154.507C39.2093 154.547 39.0923 154.612 38.9912 154.697C38.89 154.782 38.8067 154.887 38.7458 155.004C38.685 155.121 38.6479 155.25 38.6367 155.381C38.6255 155.513 38.6404 155.646 38.6805 155.772C38.7206 155.898 38.7852 156.015 38.8705 156.116C38.9558 156.217 39.0602 156.3 39.1777 156.361C39.2952 156.422 39.4235 156.459 39.5553 156.47C39.6871 156.481 39.8197 156.466 39.9457 156.425C65.8547 148.18 91.0823 153.695 107.684 159.773C125.701 166.37 137.698 175.014 137.817 175.101C137.989 175.226 138.196 175.293 138.408 175.293Z" fill="#3F3D56"/>
<path d="M341.436 295.73L338.035 296.795L315.214 223.869C316.147 223.632 317.136 223.761 317.977 224.229C318.818 224.698 319.448 225.471 319.737 226.39L341.436 295.73Z" fill="#3F3D56"/>
<path d="M266.432 200.603H281.477V156.382H266.432C263.554 156.385 260.794 157.53 258.759 159.565C256.724 161.6 255.579 164.36 255.576 167.238V189.747C255.579 192.625 256.724 195.385 258.759 197.42C260.794 199.455 263.554 200.6 266.432 200.603Z" fill="#2F2E41"/>
<path d="M268.526 176.914C269.029 176.913 269.51 176.713 269.866 176.358C270.221 176.003 270.421 175.521 270.421 175.018V158.593H266.631V175.018C266.632 175.521 266.831 176.003 267.187 176.358C267.542 176.713 268.024 176.913 268.526 176.914Z" fill="#3F3D56"/>
<path d="M263.97 197.129H274.978C275.612 197.128 276.22 196.876 276.669 196.427C277.118 195.979 277.37 195.371 277.371 194.736V188.151C277.37 187.516 277.118 186.908 276.669 186.459C276.22 186.011 275.612 185.759 274.978 185.758H263.97C263.335 185.759 262.727 186.011 262.279 186.459C261.83 186.908 261.578 187.516 261.577 188.151V194.736C261.578 195.371 261.83 195.979 262.279 196.427C262.727 196.876 263.335 197.128 263.97 197.129Z" fill="#3F3D56"/>
<path d="M296.067 151.781C296.326 151.781 296.577 151.691 296.777 151.528C296.901 151.427 297.003 151.301 297.076 151.159C297.149 151.017 297.192 150.861 297.202 150.701C297.557 145.034 296.573 139.363 294.328 134.147C292.808 130.626 291.058 128.357 288.823 127.007C285.841 125.206 281.749 125.062 277.596 126.612C275.223 127.498 273.512 128.657 272.364 130.153C270.833 132.149 270.353 134.71 270.062 137.181C269.623 140.918 269.52 144.688 269.754 148.444C269.764 148.638 269.826 148.826 269.933 148.988C270.04 149.151 270.188 149.282 270.362 149.368C270.551 149.46 270.76 149.501 270.969 149.487C271.178 149.474 271.38 149.405 271.555 149.289C271.625 149.243 271.698 149.201 271.773 149.162C272.151 148.972 272.569 148.876 272.992 148.882C273.415 148.887 273.831 148.994 274.204 149.193C274.478 149.355 274.737 149.541 274.979 149.749L276.472 150.957C276.656 151.104 276.881 151.19 277.115 151.205C277.35 151.22 277.584 151.162 277.785 151.04C278.868 150.425 280.078 150.068 281.321 149.996C282.972 149.935 284.624 150.055 286.249 150.354L295.898 151.768C295.954 151.777 296.011 151.781 296.067 151.781Z" fill="#2F2E41"/>
<path d="M297.355 312.72H302.508L304.96 292.844H297.354L297.355 312.72Z" fill="#FFB6B6"/>
<path d="M294.583 322.505H298.24L298.892 319.053L300.564 322.505H310.262C310.727 322.505 311.18 322.357 311.554 322.081C311.928 321.806 312.205 321.418 312.343 320.974C312.482 320.53 312.475 320.054 312.323 319.614C312.171 319.175 311.883 318.795 311.501 318.531L303.756 313.182V309.692L295.61 310.179L294.583 322.505Z" fill="#2F2E41"/>
<path d="M238.051 308.312L242.802 310.309L252.766 292.937L245.755 289.99L238.051 308.312Z" fill="#FFB6B6"/>
<path d="M231.704 316.257L235.074 317.675L237.014 314.745L237.217 318.575L246.157 322.335C246.585 322.515 247.06 322.553 247.512 322.444C247.964 322.336 248.369 322.085 248.669 321.73C248.969 321.374 249.147 320.932 249.177 320.468C249.208 320.005 249.089 319.543 248.839 319.151L243.773 311.219L245.126 308.002L237.428 305.292L231.704 316.257Z" fill="#2F2E41"/>
<path d="M299.763 177.352L301.24 197.135L311.034 226.68L314.967 224.394L309.631 194.347L307.819 177.013L299.763 177.352Z" fill="#FFB6B6"/>
<path d="M313.318 230.989C311.042 230.989 309.196 229.144 309.196 226.867C309.196 224.591 311.042 222.745 313.318 222.745C315.595 222.745 317.44 224.591 317.44 226.867C317.44 229.144 315.595 230.989 313.318 230.989Z" fill="#FFB6B6"/>
<path d="M274.633 200.138V205.595C274.633 205.595 266.186 220.48 269.625 226.867L256.944 261.557C256.944 261.557 239.747 278.754 241.221 291.038L240.238 294.969L251.539 299.883L253.996 296.443L273.159 263.522L289.373 233.55L292.322 268.927C292.322 268.927 290.356 296.443 295.761 299.391L296.252 303.813H307.722V299.61C307.722 299.61 311.976 284.651 309.519 273.349L310.502 225.688C310.502 225.688 306.079 205.542 300.675 202.103L298.709 197.189L274.633 200.138Z" fill="#2F2E41"/>
<path d="M265.608 162.311L276.318 157.296L279.41 151.909L289.805 152.498L292.951 157.633L302.204 159.508L300.844 192.951C301.45 194 301.666 195.229 301.454 196.422C301.129 198.518 299.48 196.869 301.129 198.518C302.778 200.166 304.021 199.338 303.193 200.783C302.366 202.227 304.401 204.48 304.401 204.48C304.401 204.48 278.079 217.886 270.643 200.783C270.643 200.783 269.177 195.78 271.654 185.298C274.13 174.816 265.608 162.311 265.608 162.311Z" fill="#E4E4E4"/>
<path d="M299.163 161.638L302.204 159.508C302.204 159.508 306.41 161.234 306.552 164.728C306.694 168.221 309.111 178.676 309.111 178.676L299.51 183.838L299.163 161.638Z" fill="#E4E4E4"/>
<path d="M263.078 179.001L264.555 198.784L280.944 223.383L284.876 221.096L272.945 195.996L271.133 178.662L263.078 179.001Z" fill="#FFB6B6"/>
<path d="M270.617 163.429L265.608 162.311C265.608 162.311 262.589 163.275 262.177 167.809C261.765 172.343 261.419 180.234 261.419 180.234L271.932 187.966L274.543 176.877L270.617 163.429Z" fill="#E4E4E4"/>
<path d="M283.64 227.692C281.364 227.692 279.518 225.846 279.518 223.57C279.518 221.293 281.364 219.448 283.64 219.448C285.917 219.448 287.762 221.293 287.762 223.57C287.762 225.846 285.917 227.692 283.64 227.692Z" fill="#FFB6B6"/>
<path d="M285.547 150.143C280.243 150.143 275.943 145.843 275.943 140.539C275.943 135.235 280.243 130.935 285.547 130.935C290.851 130.935 295.151 135.235 295.151 140.539C295.151 145.843 290.851 150.143 285.547 150.143Z" fill="#FFB7B7"/>
<path d="M293.37 139.091H293.37C294.594 139.09 295.819 139.088 297.045 139.086C297.191 139.085 297.336 139.055 297.47 138.998C297.605 138.94 297.727 138.857 297.828 138.752C297.928 138.649 298.007 138.527 298.058 138.393C298.11 138.26 298.134 138.117 298.129 137.973C298.038 135.938 297.457 133.955 296.434 132.193C295.411 130.432 293.976 128.944 292.254 127.856C290.442 126.752 288.375 126.136 286.255 126.069C284.134 126.002 282.032 126.486 280.155 127.474C278.277 128.462 276.688 129.92 275.542 131.706C274.397 133.492 273.734 135.544 273.619 137.663C273.611 137.806 273.631 137.949 273.679 138.084C273.727 138.219 273.801 138.343 273.897 138.45C273.994 138.556 274.11 138.642 274.24 138.703C274.37 138.763 274.51 138.798 274.654 138.804C278.904 138.983 283.619 139.071 289.941 139.087H289.944C290.159 139.088 290.37 139.024 290.548 138.904C290.727 138.784 290.866 138.613 290.947 138.414L291.048 138.165C291.102 138.034 291.196 137.923 291.316 137.849C291.437 137.774 291.577 137.74 291.719 137.751C291.86 137.761 291.994 137.817 292.102 137.908C292.21 138 292.286 138.124 292.319 138.262C292.375 138.498 292.509 138.708 292.7 138.859C292.891 139.009 293.127 139.091 293.37 139.091Z" fill="#2F2E41"/>
<path d="M271.872 187.526C274.453 185.097 275.563 181.573 275.581 178.092C275.601 174.117 274.162 170.342 272.301 166.886C271.176 164.795 269.894 162.795 268.611 160.799C268.179 160.128 269.249 159.507 269.678 160.175C274.02 166.927 278.8 174.925 276 183.223C275.358 185.19 274.24 186.968 272.747 188.4C272.167 188.945 271.291 188.073 271.872 187.526Z" fill="#3F3D56"/>
<path d="M341.371 261.316C343.497 260.645 345.77 260.588 347.928 261.151C347.933 261.154 347.937 261.153 347.942 261.155C349.614 261.59 351.173 262.38 352.513 263.471C352.59 263.534 352.664 263.598 352.738 263.662C354.435 265.118 355.688 267.022 356.354 269.156L365.53 298.48C366.213 300.65 366.259 302.971 365.665 305.167C365.629 305.29 365.593 305.414 365.556 305.537C365.111 306.992 364.394 308.35 363.444 309.538C363.438 309.544 363.433 309.551 363.43 309.559C361.946 311.401 359.948 312.76 357.689 313.463L340.383 318.879L324.064 266.732L341.371 261.316Z" fill="#FFA239"/>
<path d="M314.08 224.224L336.37 295.449C336.44 295.672 336.465 295.907 336.444 296.141C336.424 296.374 336.357 296.601 336.249 296.808C336.14 297.016 335.992 297.2 335.812 297.35C335.633 297.5 335.425 297.613 335.202 297.683C334.978 297.753 334.743 297.778 334.51 297.757C334.277 297.736 334.05 297.67 333.843 297.561C333.636 297.452 333.452 297.304 333.302 297.124C333.152 296.944 333.039 296.737 332.969 296.513L311.802 228.873C311.515 227.954 311.592 226.96 312.016 226.095C312.439 225.23 313.178 224.561 314.08 224.224Z" fill="#3F3D56"/>
<path d="M341.879 322.786C340.117 322.786 338.688 321.357 338.688 319.595C338.688 317.833 340.117 316.404 341.879 316.404C343.642 316.404 345.07 317.833 345.07 319.595C345.07 321.357 343.642 322.786 341.879 322.786Z" fill="#3F3D56"/>
<path d="M362.662 316.282C360.9 316.282 359.471 314.853 359.471 313.091C359.471 311.329 360.9 309.9 362.662 309.9C364.425 309.9 365.854 311.329 365.854 313.091C365.854 314.853 364.425 316.282 362.662 316.282Z" fill="#3F3D56"/>
<path d="M347.928 261.151C351.233 271.514 359.891 298.61 363.43 309.559C363.433 309.551 363.438 309.544 363.444 309.538C364.394 308.349 365.111 306.992 365.556 305.537C365.592 305.414 365.628 305.29 365.665 305.167C361.871 293.269 355.516 273.202 352.738 263.662C352.664 263.598 352.59 263.534 352.513 263.471C351.173 262.38 349.614 261.59 347.942 261.155C347.937 261.153 347.933 261.154 347.928 261.151Z" fill="#3F3D56"/>
<path d="M87.1681 322.994H393.437C393.586 322.994 393.729 322.934 393.834 322.829C393.939 322.723 393.998 322.58 393.998 322.431C393.998 322.282 393.939 322.139 393.834 322.033C393.729 321.928 393.586 321.868 393.437 321.868H87.1681C87.0189 321.868 86.876 321.928 86.7707 322.033C86.6654 322.139 86.6063 322.282 86.6063 322.431C86.6063 322.58 86.6654 322.723 86.7707 322.829C86.876 322.934 87.0189 322.994 87.1681 322.994Z" fill="#CACACA"/>
<path d="M245.325 27.5394C250.188 22.7026 254.847 16.1246 261.706 16.1274C272.246 16.1317 276.773 31.3933 287.088 33.562C291.695 34.5307 296.395 32.6024 301.102 32.5189C305.809 32.4355 311.439 35.8532 310.444 40.4544L220.711 39.1016C229.986 38.1386 238.662 34.0632 245.325 27.5394Z" fill="#F0F0F0"/>
<path d="M45.4751 7.35791C56.0152 7.36222 60.5429 22.6237 70.8575 24.7925C75.4643 25.7611 80.1646 23.8328 84.8714 23.7494C89.5782 23.666 95.2083 27.0836 94.2137 31.6849L4.48038 30.3321C13.7554 29.369 22.4311 25.2936 29.094 18.7698C33.9575 13.9331 38.6162 7.35508 45.4751 7.35791Z" fill="#F0F0F0"/>
</g>
<defs>
<clipPath id="clip0_339_2779">
<rect width="394" height="323.16" fill="white" transform="matrix(-1 0 0 1 394 0)"/>
</clipPath>
</defs>
</svg>
