<svg width="318" height="309" viewBox="0 0 318 309" fill="none" xmlns="http://www.w3.org/2000/svg">
<g clip-path="url(#clip0_339_3130)">
<path d="M35.5321 273.161C35.5321 273.161 35.2895 268.077 30.3159 268.668Z" fill="#3F3D56"/>
<path d="M36.9374 268.323C35.5626 268.323 34.4482 267.208 34.4482 265.833C34.4482 264.458 35.5626 263.344 36.9374 263.344C38.3122 263.344 39.4266 264.458 39.4266 265.833C39.4266 267.208 38.3122 268.323 36.9374 268.323Z" fill="#FFA239"/>
<path d="M36.6398 270.025H37.3424V274.945H36.6398V270.025Z" fill="#3F3D56"/>
<path d="M204.523 123.691C204.523 124.936 204.563 126.171 204.644 127.395C205.096 134.455 206.88 141.367 209.9 147.764C209.924 147.819 209.951 147.87 209.974 147.92C210.115 148.217 210.26 148.514 210.408 148.806C211.306 150.616 212.303 152.375 213.393 154.075C218.374 161.882 225.201 168.342 233.27 172.883C241.339 177.425 250.403 179.909 259.66 180.115L259.102 212.213L251.824 208.38L250.525 210.851L259.048 215.339L258.006 274.952L257.994 275.749L263.621 277.001L263.61 276.201L261.838 180.119C269.289 180.012 276.645 178.426 283.478 175.453C290.311 172.479 296.486 168.178 301.643 162.798C301.998 162.431 302.349 162.053 302.693 161.678C302.708 161.663 302.72 161.647 302.732 161.635C307.029 156.949 310.504 151.57 313.011 145.727C312.956 145.789 312.898 145.848 312.843 145.91C318.508 132.66 318.893 117.744 313.917 104.219C308.941 90.6949 298.982 79.5855 286.08 73.1679C285.885 73.0703 285.686 72.9766 285.491 72.879C272.729 66.7311 258.123 65.603 244.568 69.7184C231.013 73.8338 219.499 82.8923 212.308 95.0983C211.965 95.676 211.633 96.2653 211.313 96.8585C206.846 105.096 204.512 114.32 204.523 123.691Z" fill="#E5E5E5"/>
<path d="M212.119 147.951C171.269 147.951 138.153 114.831 138.153 73.9756C138.153 33.12 171.269 0 212.119 0C252.97 0 286.086 33.12 286.086 73.9756C286.086 114.831 252.97 147.951 212.119 147.951Z" fill="#FFA239"/>
<path opacity="0.2" d="M266.734 24.5659C282.793 62.1356 265.359 105.612 227.794 121.673C213.542 127.767 197.736 129.229 182.608 125.853C167.48 122.477 153.794 114.434 143.484 102.86C159.541 140.43 203.012 157.869 240.578 141.809C278.144 125.75 295.58 82.2743 279.523 44.7035C276.377 37.3432 272.058 30.5423 266.734 24.5659Z" fill="black"/>
<path d="M208.117 280.057L215.672 277.938L215.656 277.126L213.393 154.075L213.28 147.94L213.276 147.76L212.882 126.263L212.308 95.1021V95.0982L211.918 73.9756H211.711L211.313 96.8584L210.794 126.642L210.423 147.776V147.932L210.408 148.802V148.806L209.69 190.001L209.615 194.096L208.133 279.238L208.117 280.057Z" fill="#3F3D56"/>
<path d="M200.152 184.979L212.379 191.417L210.675 194.654L198.448 188.216L200.152 184.979Z" fill="#3F3D56"/>
<path d="M213.569 294.95H248.445V295.73H213.569V294.95Z" fill="#CBCBCB"/>
<path d="M149.569 308.219H184.445V309H149.569V308.219Z" fill="#CBCBCB"/>
<path d="M50.0564 298.072H84.9332V298.852H50.0564V298.072Z" fill="#CBCBCB"/>
<path d="M65.9863 266.311V243.606C65.9863 243.606 57.1391 259.703 65.9863 266.311Z" fill="#F1F1F1"/>
<path d="M65.4398 266.307L82.1633 250.953C82.1633 250.953 64.324 255.32 65.4398 266.307Z" fill="#F1F1F1"/>
<path d="M238.864 271.776V249.071C238.864 249.071 230.017 265.167 238.864 271.776Z" fill="#F1F1F1"/>
<path d="M238.318 271.772L255.041 256.417C255.041 256.417 237.202 260.785 238.318 271.772Z" fill="#F1F1F1"/>
<path d="M178.767 288.168V259.934C178.767 259.934 167.765 279.951 178.767 288.168Z" fill="#F1F1F1"/>
<path d="M178.087 288.163L198.883 269.069C198.883 269.069 176.7 274.5 178.087 288.163Z" fill="#F1F1F1"/>
<path d="M-0.000130128 284.713L0.214499 285.467L65.7091 266.811L115.048 277.688L178.146 288.468L178.232 288.445L208.117 280.057L215.672 277.938L238.747 271.459L257.994 275.749L263.621 277.001L275.856 279.729L276.023 278.968L263.61 276.201L258.006 274.952L238.724 270.655L238.63 270.679L215.656 277.126L208.133 279.238L178.107 287.668L115.2 276.923L65.6857 266.007L65.5882 266.03L-0.000130128 284.713Z" fill="#CBCBCB"/>
<path d="M117.174 47.3956L112.181 43.4016C116.06 42.9736 117.654 45.0894 118.306 46.764C121.336 45.5055 124.635 47.1548 124.635 47.1548L114.645 50.7821C115.149 49.4358 116.026 48.261 117.174 47.3956Z" fill="#3F3D56"/>
<path d="M300.589 45.8346L295.596 41.8406C299.475 41.4126 301.068 43.5283 301.721 45.203C304.751 43.9445 308.05 45.5938 308.05 45.5938L298.06 49.2211C298.564 47.8747 299.441 46.7 300.589 45.8346Z" fill="#3F3D56"/>
<path d="M128.101 121.942L123.108 117.948C126.987 117.52 128.58 119.635 129.233 121.31C132.263 120.051 135.562 121.701 135.562 121.701L125.572 125.328C126.076 123.982 126.953 122.807 128.101 121.942Z" fill="#3F3D56"/>
<path d="M162.011 293.725L158.195 295.143L150.91 281.096L156.543 279.003L162.011 293.725Z" fill="#FFB7B7"/>
<path d="M162.522 292.117L155.006 294.909C153.736 295.381 152.705 296.339 152.141 297.571C151.576 298.803 151.524 300.209 151.996 301.479L152.054 301.635L164.359 297.062L162.522 292.117Z" fill="#2F2E41"/>
<path d="M124.456 297.688L120.385 297.687L118.448 281.983L124.456 281.983L124.456 297.688Z" fill="#FFB7B7"/>
<path d="M125.162 296.359L117.145 296.358C115.79 296.358 114.49 296.897 113.532 297.855C112.574 298.813 112.035 300.113 112.035 301.468V301.634L125.162 301.635L125.162 296.359Z" fill="#2F2E41"/>
<path d="M143.094 188.77L141.766 186.113L130.476 191.759L130.808 194.083L128.65 196.906C128.65 196.906 124.997 198.899 125.661 205.541L126.325 211.851L127.155 219.988L121.344 240.08L118.355 266.649L116.197 288.07L126.657 287.572L136.287 252.7L153.222 290.228L164.845 287.239L148.906 250.043L146.913 234.434C146.913 234.434 148.241 226.132 141.932 220.486L142.928 217.497V213.814L146.249 196.242L143.094 188.77Z" fill="#2F2E41"/>
<path opacity="0.2" d="M143.405 226.743L143.78 226.849L136.475 252.753L136.099 252.647L143.405 226.743Z" fill="black"/>
<path d="M142.762 221.648H126.491V219.988H142.762V221.648Z" fill="#3F3D56"/>
<path d="M126.491 222.645C126.124 222.645 125.827 221.901 125.827 220.984C125.827 220.067 126.124 219.324 126.491 219.324C126.858 219.324 127.155 220.067 127.155 220.984C127.155 221.901 126.858 222.645 126.491 222.645Z" fill="#3F3D56"/>
<path d="M126.062 180.953C123.717 176.663 125.294 171.285 129.583 168.939C133.873 166.594 139.251 168.171 141.596 172.461C143.94 176.751 142.364 182.13 138.075 184.475C133.785 186.82 128.407 185.243 126.062 180.953Z" fill="#FFB7B7"/>
<path d="M147.374 173.547C143.049 173.547 139.543 170.04 139.543 165.715C139.543 161.39 143.049 157.884 147.374 157.884C151.698 157.884 155.204 161.39 155.204 165.715C155.204 170.04 151.698 173.547 147.374 173.547Z" fill="#2F2E41"/>
<path d="M157.311 164.876C157.62 165.914 157.71 167.005 157.576 168.079C157.442 169.153 157.087 170.188 156.533 171.118C155.98 172.049 155.239 172.854 154.358 173.483C153.477 174.113 152.476 174.553 151.416 174.775C150.357 174.998 149.263 174.999 148.203 174.777C147.144 174.556 146.141 174.117 145.26 173.489C144.378 172.86 143.637 172.056 143.082 171.126C142.527 170.197 142.17 169.162 142.035 168.088C142.596 169.972 143.845 171.576 145.534 172.582C147.223 173.588 149.228 173.921 151.152 173.517C153.075 173.113 154.776 172 155.917 170.399C157.058 168.798 157.556 166.827 157.311 164.876Z" fill="#2F2E41"/>
<path d="M126.375 174.249C126.146 176.273 126.59 178.317 127.639 180.063C128.688 181.81 130.284 183.161 132.18 183.908C134.075 184.655 136.163 184.756 138.122 184.196C140.08 183.635 141.799 182.444 143.012 180.807C144.225 179.171 144.865 177.179 144.832 175.142C144.798 173.105 144.094 171.136 142.828 169.54C141.562 167.944 139.805 166.809 137.83 166.313C135.854 165.817 133.77 165.986 131.9 166.795C130.354 165.547 128.436 165.934 126.878 167.25C125.115 168.739 124.592 169.761 123.225 172.209C124.569 172.398 125.031 174.06 126.375 174.249Z" fill="#2F2E41"/>
<path d="M158.912 200.871C158.812 203.495 158.616 208.659 158.616 208.922C158.616 209.2 154.702 217.306 153.011 220.795V220.796C152.89 221.042 152.783 221.265 152.687 221.461C152.556 221.732 152.351 221.96 152.094 222.117C151.838 222.275 151.542 222.355 151.242 222.35L143.852 222.217C143.445 222.21 143.058 222.046 142.769 221.76C142.481 221.474 142.314 221.087 142.304 220.681L141.48 188.164C141.477 188.057 141.496 187.95 141.535 187.85C141.574 187.751 141.633 187.66 141.707 187.583C141.782 187.506 141.872 187.445 141.971 187.403C142.069 187.361 142.175 187.34 142.283 187.34H151.813C152.216 187.34 152.61 187.454 152.951 187.668C153.292 187.882 153.566 188.187 153.741 188.55L158.315 198.014C158.744 198.904 158.949 199.885 158.912 200.871Z" fill="#FFA239"/>
<path d="M142.175 218.45C140.279 217.301 138.575 215.86 137.126 214.182C133.758 210.394 131.711 205.616 131.29 200.565C130.914 196.244 131.771 193.032 133.838 191.018C136.465 188.458 140.041 188.83 140.191 188.847L140.352 188.865L142.774 190.915L142.089 191.726L139.921 189.891C139.257 189.858 136.549 189.851 134.57 191.787C132.749 193.568 132.001 196.491 132.347 200.474C132.747 205.283 134.692 209.833 137.891 213.446C139.271 215.042 140.889 216.417 142.688 217.52L142.175 218.45Z" fill="#FFA239"/>
<path d="M155.927 206.096L155.999 206.442L143.086 209.095L143.015 208.748L155.927 206.096Z" fill="#3F3D56"/>
<path d="M147.417 187.333L148.255 207.882L147.902 207.896L147.063 187.347L147.417 187.333Z" fill="#3F3D56"/>
<path d="M158.912 200.872C158.813 203.495 158.616 208.659 158.616 208.922C158.616 209.2 154.702 217.306 153.011 220.795L156.163 202.49C156.285 201.786 156.592 201.127 157.052 200.58C157.512 200.033 158.109 199.619 158.782 199.378C158.888 199.869 158.932 200.37 158.912 200.872Z" fill="#3F3D56"/>
<path d="M139.545 239.232C139.824 238.873 140.021 238.456 140.122 238.012C140.223 237.568 140.225 237.108 140.128 236.663C140.032 236.218 139.839 235.799 139.563 235.437C139.288 235.075 138.936 234.777 138.533 234.566L139.173 227.478L134.962 226.039L134.198 236.06C133.887 236.761 133.844 237.551 134.077 238.281C134.311 239.012 134.803 239.631 135.463 240.022C136.122 240.413 136.902 240.549 137.654 240.403C138.407 240.258 139.079 239.841 139.545 239.232Z" fill="#FFB7B7"/>
<path d="M142.302 196.457C142.384 195.38 142.106 194.307 141.511 193.407C140.916 192.506 140.038 191.83 139.015 191.483C138.114 191.186 137.141 191.187 136.24 191.486C135.276 191.814 134.439 192.438 133.849 193.267C133.258 194.097 132.943 195.092 132.949 196.11L132.633 232.104L140.096 232.374L142.302 196.457Z" fill="#CBCBCB"/>
</g>
<defs>
<clipPath id="clip0_339_3130">
<rect width="317.389" height="309" fill="white" transform="matrix(-1 0 0 1 317.389 0)"/>
</clipPath>
</defs>
</svg>
