<svg width="275" height="207" viewBox="0 0 275 207" fill="none" xmlns="http://www.w3.org/2000/svg">
<g clip-path="url(#clip0_339_2883)">
<path d="M101.731 55.0956C113.576 47.4552 129.891 50.4238 141.432 58.5193C145.198 61.1973 148.657 64.2823 151.746 67.7182C153.548 69.6933 155.256 71.7668 156.89 73.9118C157.292 74.438 157.693 74.9695 158.086 75.5063C158.354 75.8692 158.621 76.2346 158.885 76.6025C162.199 81.2056 165.236 86.0482 168.21 90.8468C175.633 102.826 183.25 115.161 194.56 123.571C196.891 125.303 200.142 126.863 202.529 125.209C204.601 123.773 204.69 120.752 204.218 118.277C202.465 109.106 196.142 101.506 189.425 95.0177C182.708 88.53 175.271 82.5818 170.195 74.7423C165.12 66.9028 162.801 56.4368 167.247 48.2262C171.078 41.1507 179.322 37.1819 187.368 36.997C195.414 36.8139 203.231 39.9399 210.038 44.2323C216.845 48.5265 222.83 53.9752 229.077 59.0486C232.842 62.1094 238.099 65.1465 242.203 62.555C245.669 60.3649 245.939 55.1075 243.874 51.5676C241.808 48.0277 238.121 45.8031 234.587 43.7284C223.613 37.2849 212.639 30.8419 201.664 24.3995C198.298 22.4247 194.857 20.3867 192.372 17.3754C189.886 14.3659 188.506 10.136 189.876 6.48136C191.228 2.87982 195.004 0.592882 198.823 0.115615C202.641 -0.360551 206.49 0.697352 210.061 2.13032C223.443 7.50166 254.951 42.6417 263.349 48.6496C268.745 52.5083 274.415 57.3933 274.96 64.0025C275.64 72.2305 267.449 79.0587 259.228 79.8569C251.007 80.6574 243.039 77.0847 235.694 73.3075C228.349 69.5304 220.853 65.3658 212.608 64.8415C204.364 64.3172 195.114 68.7221 193.159 76.7441C191.46 83.7244 195.78 90.9273 201.409 95.3937C205.814 98.8906 210.984 101.219 215.978 103.838C217.365 104.563 218.737 105.313 220.076 106.114C223.502 108.169 226.705 110.576 229.633 113.295C232.706 116.145 235.465 119.316 237.862 122.754C239.775 125.493 241.443 128.395 242.849 131.425C243.063 131.888 243.271 132.358 243.473 132.833C243.664 133.288 243.849 133.749 244.025 134.214C246.317 140.25 247.21 147.013 244.282 152.647C241.361 158.266 235.034 161.593 228.717 162.055C225.063 162.272 221.4 161.789 217.928 160.63C215.375 159.801 212.903 158.739 210.544 157.458C199.606 151.59 190.947 142.285 183.039 132.72C175.132 123.155 167.687 113.084 158.301 104.964C148.915 96.8431 137.154 90.7032 124.739 90.7965C112.326 90.888 99.5284 98.448 96.0027 110.344C90.8636 101.493 87.3884 91.4037 87.8473 81.1815C88.3061 70.9594 93.1293 60.6452 101.731 55.0956Z" fill="#3F3D56"/>
<path d="M149.893 88.1663C150.646 88.1663 151.257 87.556 151.257 86.8031C151.257 86.0503 150.646 85.4399 149.893 85.4399C149.139 85.4399 148.529 86.0503 148.529 86.8031C148.529 87.556 149.139 88.1663 149.893 88.1663Z" fill="#FFA239"/>
<path d="M98.4942 90.1156C99.6588 90.1156 100.603 89.172 100.603 88.008C100.603 86.844 99.6588 85.9004 98.4942 85.9004C97.3297 85.9004 96.3856 86.844 96.3856 88.008C96.3856 89.172 97.3297 90.1156 98.4942 90.1156Z" fill="#FF6584"/>
<path d="M250.902 71.4671C251.333 71.4671 251.681 71.1185 251.681 70.6884C251.681 70.2583 251.333 69.9097 250.902 69.9097C250.472 69.9097 250.123 70.2583 250.123 70.6884C250.123 71.1185 250.472 71.4671 250.902 71.4671Z" fill="#FF6584"/>
<path d="M235.138 29.6141C235.568 29.6141 235.917 29.2655 235.917 28.8354C235.917 28.4053 235.568 28.0566 235.138 28.0566C234.708 28.0566 234.359 28.4053 234.359 28.8354C234.359 29.2655 234.708 29.6141 235.138 29.6141Z" fill="#FF6584"/>
<path d="M215.091 105.651C215.312 105.013 215.61 104.404 215.978 103.838C217.365 104.563 218.737 105.312 220.076 106.114C223.502 108.169 226.705 110.576 229.633 113.295C228.455 114.896 226.741 116.021 224.804 116.466C222.866 116.912 220.833 116.648 219.074 115.723C217.314 114.798 215.944 113.274 215.214 111.426C214.483 109.578 214.439 107.529 215.091 105.651Z" fill="#FF6584"/>
<path d="M115.727 80.3082C116.167 80.3082 116.523 79.9516 116.523 79.5118C116.523 79.0719 116.167 78.7153 115.727 78.7153C115.287 78.7153 114.93 79.0719 114.93 79.5118C114.93 79.9516 115.287 80.3082 115.727 80.3082Z" fill="#F0F0F0"/>
<path d="M213.351 21.3834C213.791 21.3834 214.148 21.0268 214.148 20.587C214.148 20.1471 213.791 19.7905 213.351 19.7905C212.911 19.7905 212.555 20.1471 212.555 20.587C212.555 21.0268 212.911 21.3834 213.351 21.3834Z" fill="#F0F0F0"/>
<path d="M206.177 7.19686C206.617 7.19686 206.974 6.84029 206.974 6.40043C206.974 5.96058 206.617 5.604 206.177 5.604C205.737 5.604 205.38 5.96058 205.38 6.40043C205.38 6.84029 205.737 7.19686 206.177 7.19686Z" fill="#F0F0F0"/>
<path d="M262.6 60.0777C263.04 60.0777 263.396 59.7211 263.396 59.2813C263.396 58.8414 263.04 58.4849 262.6 58.4849C262.159 58.4849 261.803 58.8414 261.803 59.2813C261.803 59.7211 262.159 60.0777 262.6 60.0777Z" fill="#F0F0F0"/>
<path d="M220.744 61.2218C221.184 61.2218 221.54 60.8652 221.54 60.4253C221.54 59.9855 221.184 59.6289 220.744 59.6289C220.304 59.6289 219.947 59.9855 219.947 60.4253C219.947 60.8652 220.304 61.2218 220.744 61.2218Z" fill="#F0F0F0"/>
<path d="M198.533 137.186C198.973 137.186 199.329 136.83 199.329 136.39C199.329 135.95 198.973 135.593 198.533 135.593C198.093 135.593 197.736 135.95 197.736 136.39C197.736 136.83 198.093 137.186 198.533 137.186Z" fill="#F0F0F0"/>
<path d="M173.493 62.4771C173.933 62.4771 174.29 62.1206 174.29 61.6807C174.29 61.2408 173.933 60.8843 173.493 60.8843C173.053 60.8843 172.696 61.2408 172.696 61.6807C172.696 62.1206 173.053 62.4771 173.493 62.4771Z" fill="#F0F0F0"/>
<path d="M172.375 47.4176C172.815 47.4176 173.171 47.061 173.171 46.6211C173.171 46.1813 172.815 45.8247 172.375 45.8247C171.935 45.8247 171.578 46.1813 171.578 46.6211C171.578 47.061 171.935 47.4176 172.375 47.4176Z" fill="#F0F0F0"/>
<path d="M216.056 139.777C217.37 135.976 219.568 132.542 222.471 129.757C222.854 129.391 223.248 129.036 223.653 128.694C227.666 125.302 232.627 123.227 237.862 122.754C239.775 125.493 241.443 128.395 242.849 131.425C243.063 131.888 243.271 132.357 243.473 132.833C243.664 133.288 243.849 133.749 244.025 134.214C246.317 140.25 247.21 147.013 244.282 152.647C241.361 158.266 235.034 161.593 228.717 162.054C225.063 162.272 221.4 161.789 217.928 160.63C216.048 157.296 214.942 153.581 214.694 149.761C214.662 149.28 214.647 148.799 214.642 148.316C214.622 145.41 215.1 142.522 216.056 139.777Z" fill="#FFA239"/>
<path d="M205.509 134.731C206.789 131.045 211.577 128.875 218.994 128.619C220.478 128.566 222.11 129.183 223.653 128.694C231.139 126.322 237.93 127.872 243.473 132.833C243.664 133.288 243.849 133.749 244.025 134.214C243.951 134.187 243.877 134.161 243.803 134.135C236.312 131.537 228.876 130.02 222.471 129.757C221.287 129.71 219.876 129.025 219.033 129.742C212.262 135.502 207.682 133.088 206.572 135.099C204.95 138.036 207.827 142.613 213.033 147.02C213.548 147.456 214.085 147.888 214.642 148.316C214.647 148.799 214.662 149.28 214.694 149.761C213.854 149.141 213.058 148.513 212.307 147.878C206.644 143.085 204.23 138.415 205.509 134.731Z" fill="#E4E4E4"/>
<path d="M233.564 160.837C234.004 160.837 234.361 160.48 234.361 160.041C234.361 159.601 234.004 159.244 233.564 159.244C233.124 159.244 232.767 159.601 232.767 160.041C232.767 160.48 233.124 160.837 233.564 160.837Z" fill="#F0F0F0"/>
<path d="M219.466 150.594C219.906 150.594 220.263 150.237 220.263 149.797C220.263 149.358 219.906 149.001 219.466 149.001C219.026 149.001 218.669 149.358 218.669 149.797C218.669 150.237 219.026 150.594 219.466 150.594Z" fill="#F0F0F0"/>
<path d="M230.252 152.758C234.532 152.758 238.001 149.291 238.001 145.013C238.001 140.736 234.532 137.269 230.252 137.269C225.973 137.269 222.504 140.736 222.504 145.013C222.504 149.291 225.973 152.758 230.252 152.758Z" fill="#F0F0F0"/>
<path opacity="0.3" d="M108.509 59.3936C110.32 59.4786 114.066 60.3777 118.126 61.54C122.183 62.7035 126.584 64.123 130.929 65.527C138.534 67.9828 146.14 70.4378 153.745 72.8921C154.79 73.229 155.838 73.5688 156.89 73.9117C157.292 74.4379 157.693 74.9695 158.086 75.5062C157.162 75.1797 156.234 74.8639 155.309 74.5628C151.357 73.2792 147.927 72.4326 144.092 71.2647C138.189 69.469 131.962 67.1107 125.923 64.9146C119.884 62.7167 112.955 60.351 108.509 59.3936Z" fill="#F0F0F0"/>
<path opacity="0.3" d="M243.739 43.8021L260.846 72.186L244.704 43.2376C244.685 43.1457 244.645 43.0596 244.586 42.9864C244.527 42.9132 244.452 42.8551 244.366 42.8169C244.28 42.7786 244.187 42.7614 244.093 42.7665C243.999 42.7717 243.908 42.7991 243.827 42.8465C243.746 42.8939 243.678 42.9599 243.627 43.0391C243.577 43.1182 243.546 43.2083 243.538 43.3017C243.529 43.3951 243.543 43.4892 243.578 43.5763C243.613 43.6633 243.668 43.7407 243.739 43.8021Z" fill="#F0F0F0"/>
<path d="M235.396 127.569C235.836 127.569 236.193 127.212 236.193 126.773C236.193 126.333 235.836 125.976 235.396 125.976C234.956 125.976 234.599 126.333 234.599 126.773C234.599 127.212 234.956 127.569 235.396 127.569Z" fill="#F0F0F0"/>
<path d="M95.6332 124.94C98.4544 124.94 100.742 122.654 100.742 119.834C100.742 117.014 98.4544 114.729 95.6332 114.729C92.812 114.729 90.5249 117.014 90.5249 119.834C90.5249 122.654 92.812 124.94 95.6332 124.94Z" fill="#FFA239"/>
<path d="M92.6069 117.031C92.0919 116.89 91.614 116.638 91.2069 116.293C90.7998 115.947 90.4735 115.517 90.2508 115.032C90.0282 114.547 89.9147 114.019 89.9183 113.485C89.9219 112.951 90.0426 112.425 90.2718 111.943L81.0222 102.841L87.6188 101.434L95.3911 110.293C96.1758 110.732 96.7723 111.442 97.0676 112.291C97.3629 113.14 97.3364 114.067 96.9933 114.898C96.6501 115.729 96.014 116.404 95.2056 116.797C94.3972 117.191 93.4725 117.274 92.6069 117.031Z" fill="#A0616A"/>
<path d="M48.3811 46.1963L53.5395 49.5946L59.5775 51.0082C59.5775 51.0082 64.3662 85.2164 66.7194 87.2683C69.0726 89.3201 67.0898 89.5147 67.7275 92.345C68.3652 95.1753 69.8409 100.966 69.8409 100.966C55.5068 109.846 42.7011 110.931 31.7757 102.425C31.6051 101.865 31.6313 101.263 31.85 100.719C32.0686 100.176 32.4665 99.723 32.9778 99.4364C34.8251 98.2894 30.8183 93.7962 32.3305 92.8963C33.8427 91.9964 31.1705 85.2654 31.1705 85.2654L31.6368 70.8101L30.3385 68.5929L32.1674 54.3605L36.8819 52.2664L38.4961 47.4839L48.3811 46.1963Z" fill="#FFA239"/>
<path d="M50.6163 47.3965L59.122 50.2275C59.122 50.2275 68.531 49.2345 68.9123 63.2339C69.2935 77.2333 67.5401 84.7456 67.5401 84.7456C67.5401 84.7456 87.1123 124.085 65.911 112.466L59.7155 88.083L53.3301 49.7898L50.6163 47.3965Z" fill="#2F2E41"/>
<path d="M59.1464 78.347L63.5583 77.7379C63.5583 77.7379 63.9843 84.3863 66.0947 85.3939C68.205 86.4015 67.4936 86.5674 67.7425 87.634C67.9913 88.7006 65.8658 91.6559 67.5375 92.3909C69.2093 93.1259 83.8203 111.538 83.8203 111.538L92.4405 103.56C91.8481 101.955 88.9972 103.261 88.8184 101.56C88.5935 98.9882 84.0811 91.9628 83.1208 91.062C82.1606 90.1612 82.5402 88.5733 82.0425 86.44C81.5448 84.3068 81.8903 86.2849 81.0608 82.7295C80.2313 79.1741 68.9898 61.0578 68.5989 57.7751C68.2081 54.4924 63.6316 52.5601 63.6316 52.5601L60.0745 53.3892L59.1464 78.347Z" fill="#2F2E41"/>
<path d="M21.8958 196.571L27.0884 197.933L34.8188 178.563L27.1551 176.552L21.8958 196.571Z" fill="#A0616A"/>
<path d="M20.2903 201.937L36.2582 206.128L36.3113 205.926C36.7441 204.279 36.5044 202.527 35.645 201.056C34.7855 199.585 33.3767 198.516 31.7285 198.083L31.7281 198.083L29.3925 195.105L23.3693 195.889L21.9754 195.523L20.2903 201.937Z" fill="#2F2E41"/>
<path d="M48.5151 200.453L53.8833 200.453L56.4375 179.755L48.5139 179.756L48.5151 200.453Z" fill="#A0616A"/>
<path d="M48.3259 206.051L64.8351 206.051V205.842C64.835 204.139 64.158 202.505 62.9529 201.301C61.7478 200.096 60.1135 199.42 58.4093 199.419H58.4089L55.3932 197.133L49.7667 199.42L48.3256 199.42L48.3259 206.051Z" fill="#2F2E41"/>
<path d="M35.0872 101.408C33.7903 103.028 34.4388 108.537 34.4388 108.537C34.4388 108.537 32.1692 126.36 33.1419 127.98C34.1146 129.601 32.4935 130.897 31.5208 133.165C30.5481 135.434 29.5755 140.943 29.5755 140.943C24.0638 145.479 24.388 166.219 24.388 166.219L22.4427 184.69C23.0912 186.635 32.1693 186.959 33.4661 186.635C34.763 186.31 47.4075 140.619 47.4075 140.619C47.4075 140.619 46.7591 184.69 46.7591 186.635C46.7591 188.579 55.513 187.607 57.4583 187.607C59.4036 187.607 71.7239 108.213 71.7239 108.213V103.676L70.1028 101.408C70.1028 101.408 36.3841 99.7873 35.0872 101.408Z" fill="#2F2E41"/>
<path d="M38.1648 48.3535L30.2029 53.4237L26.3519 56.6504L31.4602 89.1996C31.4602 89.1996 23.6991 118.786 35.9299 116.962C48.1608 115.138 47.4751 88.5491 47.4751 88.5491L38.1648 48.3535Z" fill="#2F2E41"/>
<path d="M48.8184 94.5915C48.3589 94.8635 47.8454 95.0315 47.314 95.0836C46.7826 95.1358 46.2461 95.0708 45.7425 94.8933C45.239 94.7158 44.7804 94.4302 44.3992 94.0564C44.018 93.6826 43.7235 93.2299 43.5363 92.73L30.5601 93.0433L34.1363 87.3271L45.9105 87.906C46.7715 87.6474 47.6975 87.7134 48.5131 88.0915C49.3286 88.4697 49.977 89.1337 50.3355 89.9578C50.6939 90.7819 50.7374 91.7088 50.4578 92.5628C50.1782 93.4168 49.5949 94.1387 48.8184 94.5915Z" fill="#A0616A"/>
<path d="M42.3445 43.952C48.0079 43.952 52.599 39.3631 52.599 33.7025C52.599 28.0419 48.0079 23.4531 42.3445 23.4531C36.6811 23.4531 32.09 28.0419 32.09 33.7025C32.09 39.3631 36.6811 43.952 42.3445 43.952Z" fill="#A0616A"/>
<path d="M30.713 26.9682C31.8645 25.1877 34.0253 24.0011 36.12 24.3345C36.315 22.9984 36.873 21.7413 37.7333 20.7001C38.5936 19.659 39.7231 18.8737 40.999 18.4298C42.2749 17.9858 43.6482 17.9003 44.9693 18.1824C46.2905 18.4646 47.5089 19.1036 48.4918 20.0299C48.8151 19.8025 49.1916 19.6623 49.585 19.6229C49.9784 19.5836 50.3753 19.6464 50.7372 19.8053C51.4582 20.133 52.0854 20.6362 52.5614 21.2689C53.7634 22.7671 54.5364 24.563 54.7983 26.4655C55.0601 28.3681 54.8008 30.3059 54.0482 32.0729C54.3042 31.1427 53.3715 30.2675 52.4291 30.0588C51.4868 29.8501 50.4983 30.0475 49.5427 29.9116C48.3179 29.7374 47.2169 29.0272 45.9901 28.8674C44.9592 28.7331 43.9224 28.9973 42.917 29.2621C41.9116 29.5269 40.8775 29.797 39.8451 29.6744C38.8126 29.5519 37.4826 33.4628 37.5005 36.2173C37.5038 36.7393 37.3963 37.4095 36.8859 37.5203C36.2573 37.6567 35.8931 36.7896 35.2948 36.5534C35.0191 36.4744 34.7235 36.5055 34.4702 36.64C34.217 36.7746 34.0259 37.0023 33.9373 37.2749C33.8619 37.5521 33.8538 37.8433 33.9137 38.1242C33.9736 38.4051 34.0998 38.6677 34.2818 38.89C34.6495 39.3308 35.0861 39.7093 35.5746 40.0109L35.3282 40.2157C34.9183 40.7569 34.0682 40.7804 33.4774 40.4456C32.9125 40.0632 32.455 39.5425 32.1486 38.9333C31.0557 37.1164 30.097 35.1805 29.7113 33.0958C29.3256 31.0111 29.5616 28.7488 30.713 26.9682Z" fill="#2F2E41"/>
<path d="M34.3336 57.6081L29.7256 53.6611C29.7256 53.6611 24.3452 55.3392 23.4329 58.867C16.2521 68.0441 12.3849 78.7622 11.3462 90.7955C20.7211 94.3345 32.2006 95.59 44.5502 95.9013L41.996 86.328L24.4362 83.1369L34.3336 57.6081Z" fill="#2F2E41"/>
<path d="M18.0066 201.539L15.545 197.585L15.0533 199.845C14.9671 200.24 14.8809 200.642 14.8011 201.041C14.1019 200.445 13.358 199.892 12.6301 199.363C10.3953 197.742 8.16142 196.118 5.92862 194.493L6.6278 198.546C7.05884 201.041 7.50906 203.588 8.57537 205.869C8.69354 206.128 8.82121 206.383 8.95855 206.632H19.3476C19.4311 206.401 19.4889 206.161 19.52 205.917C19.5226 205.901 19.5236 205.885 19.5231 205.869C19.686 204.322 18.8303 202.863 18.0066 201.539Z" fill="#F2F2F2"/>
<path d="M109.819 196.997L114.476 189.517L115.406 193.791C115.569 194.54 115.732 195.3 115.883 196.055C117.206 194.926 118.613 193.882 119.99 192.88C124.218 189.813 128.444 186.742 132.668 183.667L131.346 191.334C130.53 196.055 129.678 200.873 127.661 205.189C127.438 205.678 127.196 206.161 126.936 206.632H107.282C107.124 206.195 107.014 205.741 106.956 205.28C106.951 205.25 106.949 205.219 106.95 205.189C106.641 202.261 108.26 199.502 109.819 196.997Z" fill="#F2F2F2"/>
<path d="M106.165 206.792H84.7818C83.8074 206.791 82.8732 206.403 82.1842 205.715C81.4951 205.026 81.1076 204.092 81.1065 203.118V128.135C81.1076 127.161 81.4951 126.227 82.1842 125.539C82.8732 124.85 83.8074 124.463 84.7818 124.461H106.165C107.14 124.463 108.074 124.85 108.763 125.539C109.452 126.227 109.84 127.161 109.841 128.135V203.118C109.84 204.092 109.452 205.026 108.763 205.715C108.074 206.403 107.14 206.791 106.165 206.792Z" fill="#F2F2F2"/>
<path d="M101.116 126.376H90.1503C89.784 126.376 89.4329 126.23 89.174 125.971C88.915 125.712 88.7693 125.361 88.7689 124.995V121.056C88.7693 120.69 88.915 120.339 89.174 120.08C89.4329 119.821 89.784 119.675 90.1503 119.675H101.116C101.482 119.675 101.833 119.821 102.092 120.08C102.351 120.339 102.497 120.69 102.497 121.056V124.995C102.497 125.361 102.351 125.712 102.092 125.971C101.833 126.23 101.482 126.376 101.116 126.376Z" fill="#3F3D56"/>
<path d="M132.478 206.902L0.380148 207C0.279517 207 0.183109 206.96 0.112055 206.888C0.0410016 206.817 0.00109863 206.721 0.00109863 206.62C0.00109863 206.52 0.0410016 206.423 0.112055 206.352C0.183109 206.281 0.279517 206.24 0.380148 206.24L132.478 206.142C132.578 206.142 132.675 206.183 132.746 206.254C132.817 206.325 132.857 206.421 132.857 206.522C132.857 206.623 132.817 206.719 132.746 206.79C132.675 206.862 132.578 206.902 132.478 206.902Z" fill="#CACACA"/>
</g>
<defs>
<clipPath id="clip0_339_2883">
<rect width="275" height="207" fill="white"/>
</clipPath>
</defs>
</svg>
