<svg width="71" height="53" viewBox="0 0 71 53" fill="none" xmlns="http://www.w3.org/2000/svg">
<g clip-path="url(#clip0_339_3251)">
<path d="M30.7287 21.2188C30.2237 21.2184 29.7254 21.3352 29.2731 21.5601C28.8209 21.785 28.427 22.1118 28.1225 22.5147C27.7956 22.374 27.4389 22.3168 27.0845 22.348C26.73 22.3792 26.3888 22.498 26.0916 22.6936C25.7943 22.8892 25.5503 23.1556 25.3815 23.4688C25.2126 23.7821 25.1241 24.1323 25.124 24.4882H33.9981C33.9981 24.0588 33.9136 23.6337 33.7493 23.237C33.585 22.8403 33.3441 22.4799 33.0406 22.1763C32.737 21.8727 32.3765 21.6319 31.9799 21.4676C31.5832 21.3033 31.1581 21.2188 30.7287 21.2188Z" fill="#E6E6E6"/>
<path d="M42.9875 18.9561H4.14893C3.62954 18.9568 3.13163 19.1634 2.76436 19.5307C2.3971 19.898 2.19045 20.3959 2.18971 20.9153V50.073C2.19045 50.5924 2.3971 51.0903 2.76436 51.4576C3.13163 51.8248 3.62954 52.0315 4.14893 52.0322H42.9875C43.5069 52.0315 44.0048 51.8248 44.372 51.4576C44.7393 51.0903 44.946 50.5924 44.9467 50.073V20.9153C44.946 20.3959 44.7393 19.898 44.372 19.5307C44.0048 19.1634 43.5069 18.9568 42.9875 18.9561ZM44.7162 50.073C44.7156 50.5313 44.5333 50.9707 44.2093 51.2948C43.8852 51.6188 43.4458 51.8012 42.9875 51.8017H4.14893C3.69061 51.8012 3.25123 51.6188 2.92715 51.2948C2.60307 50.9707 2.42076 50.5313 2.42021 50.073V20.9153C2.42076 20.457 2.60307 20.0176 2.92715 19.6935C3.25123 19.3694 3.69061 19.1871 4.14893 19.1865H42.9875C43.4458 19.1871 43.8852 19.3694 44.2093 19.6935C44.5333 20.0176 44.7156 20.457 44.7162 20.9153V50.073Z" fill="#3F3D56"/>
<path d="M8.70122 39.9312C13.5068 39.9312 17.4024 36.0356 17.4024 31.23C17.4024 26.4245 13.5068 22.5288 8.70122 22.5288C3.89567 22.5288 0 26.4245 0 31.23C0 36.0356 3.89567 39.9312 8.70122 39.9312Z" fill="#FFA239"/>
<path d="M44.9467 43.6275V46.0396H2.18971V43.616L2.42021 43.284L15.9757 23.7645C16.0372 23.6759 16.1192 23.6036 16.2147 23.5536C16.3102 23.5036 16.4165 23.4775 16.5243 23.4775C16.6321 23.4775 16.7383 23.5036 16.8338 23.5536C16.9293 23.6036 17.0114 23.6759 17.0728 23.7645L26.1636 36.8532L32.6347 27.6172C32.6963 27.5292 32.7782 27.4572 32.8735 27.4076C32.9688 27.3579 33.0747 27.332 33.1822 27.332C33.2896 27.332 33.3955 27.3579 33.4908 27.4076C33.5861 27.4572 33.668 27.5292 33.7296 27.6172L44.7162 43.2979L44.9467 43.6275Z" fill="#3F3D56"/>
<path d="M11.5824 48.8057H4.78279C4.75228 48.8056 4.72306 48.7934 4.70152 48.7718C4.67999 48.7502 4.66789 48.721 4.66789 48.6904C4.66789 48.6599 4.67999 48.6307 4.70152 48.6091C4.72306 48.5875 4.75228 48.5753 4.78279 48.5752H11.5824C11.613 48.5752 11.6423 48.5873 11.6639 48.609C11.6855 48.6306 11.6977 48.6599 11.6977 48.6904C11.6977 48.721 11.6855 48.7503 11.6639 48.7719C11.6423 48.7936 11.613 48.8057 11.5824 48.8057Z" fill="#3F3D56"/>
<path d="M21.8395 48.8057H15.0399C15.0247 48.8057 15.0097 48.8028 14.9956 48.797C14.9816 48.7913 14.9689 48.7828 14.9581 48.7721C14.9474 48.7614 14.9389 48.7486 14.9331 48.7346C14.9272 48.7206 14.9243 48.7056 14.9243 48.6904C14.9243 48.6753 14.9272 48.6603 14.9331 48.6463C14.9389 48.6323 14.9474 48.6195 14.9581 48.6088C14.9689 48.5981 14.9816 48.5896 14.9956 48.5839C15.0097 48.5781 15.0247 48.5751 15.0399 48.5752H21.8395C21.87 48.5752 21.8994 48.5873 21.921 48.609C21.9426 48.6306 21.9547 48.6599 21.9547 48.6904C21.9547 48.721 21.9426 48.7503 21.921 48.7719C21.8994 48.7936 21.87 48.8057 21.8395 48.8057Z" fill="#3F3D56"/>
<path d="M32.0965 48.8057H25.2969C25.2664 48.8056 25.2372 48.7934 25.2157 48.7718C25.1941 48.7502 25.182 48.721 25.182 48.6904C25.182 48.6599 25.1941 48.6307 25.2157 48.6091C25.2372 48.5875 25.2664 48.5753 25.2969 48.5752H32.0965C32.1271 48.5752 32.1564 48.5873 32.178 48.609C32.1997 48.6306 32.2118 48.6599 32.2118 48.6904C32.2118 48.721 32.1997 48.7503 32.178 48.7719C32.1564 48.7936 32.1271 48.8057 32.0965 48.8057Z" fill="#3F3D56"/>
<path d="M42.3536 48.8057H35.554C35.5235 48.8056 35.4943 48.7934 35.4727 48.7718C35.4512 48.7502 35.4391 48.721 35.4391 48.6904C35.4391 48.6599 35.4512 48.6307 35.4727 48.6091C35.4943 48.5875 35.5235 48.5753 35.554 48.5752H42.3536C42.3842 48.5752 42.4135 48.5873 42.4351 48.609C42.4567 48.6306 42.4689 48.6599 42.4689 48.6904C42.4689 48.721 42.4567 48.7503 42.4351 48.7719C42.4135 48.7936 42.3842 48.8057 42.3536 48.8057Z" fill="#3F3D56"/>
<path d="M62.2955 25.5465C70.507 18.1149 73.4244 7.95869 68.8117 2.86191C64.199 -2.23488 53.803 -0.342169 45.5915 7.08939C37.38 14.5209 34.4626 24.6772 39.0753 29.774C43.688 34.8707 54.084 32.978 62.2955 25.5465Z" fill="#E6E6E6"/>
<path d="M38.404 45.8905C37.2967 43.603 36.9045 41.0255 37.0973 38.502C37.3065 35.9944 38.0463 33.5598 39.2676 31.3598C40.434 29.2273 41.9755 27.3184 43.7278 25.6399C45.5875 23.8584 47.6846 22.346 49.891 21.0242C52.221 19.6285 54.6692 18.4423 57.1459 17.3326C57.4546 17.1943 57.7637 17.057 58.0733 16.9209C58.2765 16.8314 58.1007 16.5334 57.8988 16.6223C55.3736 17.7342 52.8697 18.9059 50.4754 20.2807C48.1879 21.5942 45.9994 23.0967 44.0442 24.8722C42.2203 26.5286 40.5948 28.4233 39.3344 30.5448C38.0238 32.7199 37.174 35.141 36.8376 37.6581C36.5147 40.193 36.7643 42.829 37.7253 45.2074C37.8425 45.4975 37.9692 45.7833 38.1055 46.065C38.2024 46.2653 38.5006 46.0901 38.404 45.8905Z" fill="#CCCCCC"/>
<path d="M47.941 21.906C47.8267 20.0209 47.9685 18.129 48.3627 16.282C48.7556 14.434 49.3934 12.6466 50.2591 10.9674C50.7465 10.0247 51.305 9.12047 51.9298 8.26266C52.061 8.08258 51.7611 7.90987 51.6313 8.08816C50.5087 9.63444 49.6 11.3252 48.9299 13.1147C48.2582 14.9044 47.8273 16.7754 47.6484 18.6785C47.5474 19.7514 47.5296 20.8304 47.5952 21.906C47.6087 22.1271 47.9545 22.1286 47.941 21.906Z" fill="#CCCCCC"/>
<path d="M23.7411 26.6777C23.1179 26.6773 22.5032 26.8214 21.9452 27.0989C21.3872 27.3763 20.9013 27.7795 20.5256 28.2766C20.1223 28.1031 19.6822 28.0324 19.2449 28.0709C18.8075 28.1095 18.3866 28.256 18.0199 28.4973C17.6532 28.7387 17.3521 29.0674 17.1438 29.4538C16.9354 29.8402 16.8263 30.2724 16.8262 30.7114H27.7747C27.7747 30.1817 27.6704 29.6572 27.4677 29.1678C27.265 28.6784 26.9679 28.2337 26.5933 27.8592C26.2188 27.4846 25.7741 27.1875 25.2847 26.9848C24.7953 26.7821 24.2708 26.6777 23.7411 26.6777Z" fill="#CCCCCC"/>
</g>
<defs>
<clipPath id="clip0_339_3251">
<rect width="71" height="52.0324" fill="white"/>
</clipPath>
</defs>
</svg>
