<svg width="101" height="53" viewBox="0 0 101 53" fill="none" xmlns="http://www.w3.org/2000/svg">
<path d="M45.2759 32C45.2026 32.0001 45.1323 32.0314 45.0805 32.0871C45.0287 32.1429 44.9995 32.2184 44.9994 32.2972V52.7028C44.9995 52.7816 45.0287 52.8571 45.0805 52.9129C45.1323 52.9686 45.2026 52.9999 45.2759 53H71.7229C71.7962 52.9999 71.8665 52.9686 71.9183 52.9129C71.9702 52.8571 71.9993 52.7816 71.9994 52.7028V32.2972C71.9993 32.2184 71.9702 32.1429 71.9183 32.0871C71.8665 32.0314 71.7962 32.0001 71.7229 32H45.2759Z" fill="#E6E6E6"/>
<path d="M70.9994 34.3592V48.6407C70.9994 48.736 70.9615 48.8274 70.894 48.8947C70.8265 48.9621 70.735 49 70.6396 49H46.3592C46.3422 49.0002 46.3252 48.9987 46.3084 48.9956C46.2228 48.9835 46.1444 48.9409 46.0876 48.8758C46.0308 48.8106 45.9995 48.7271 45.9994 48.6407V34.3592C45.9994 34.264 46.0374 34.1726 46.1048 34.1052C46.1723 34.0379 46.2638 34 46.3592 34H70.6396C70.735 34 70.8265 34.0379 70.894 34.1052C70.9615 34.1726 70.9994 34.264 70.9994 34.3592Z" fill="white"/>
<path d="M65.9994 40C66.5517 40 66.9994 39.5523 66.9994 39C66.9994 38.4477 66.5517 38 65.9994 38C65.4471 38 64.9994 38.4477 64.9994 39C64.9994 39.5523 65.4471 40 65.9994 40Z" fill="#FF6584"/>
<path d="M45.4994 34C45.7756 34 45.9994 33.7761 45.9994 33.5C45.9994 33.2239 45.7756 33 45.4994 33C45.2233 33 44.9994 33.2239 44.9994 33.5C44.9994 33.7761 45.2233 34 45.4994 34Z" fill="#3F3D56"/>
<path d="M71.4994 34C71.7756 34 71.9994 33.7761 71.9994 33.5C71.9994 33.2239 71.7756 33 71.4994 33C71.2233 33 70.9994 33.2239 70.9994 33.5C70.9994 33.7761 71.2233 34 71.4994 34Z" fill="#3F3D56"/>
<path d="M54.4994 44C55.3279 44 55.9994 43.3284 55.9994 42.5C55.9994 41.6716 55.3279 41 54.4994 41C53.671 41 52.9994 41.6716 52.9994 42.5C52.9994 43.3284 53.671 44 54.4994 44Z" fill="#FFA239"/>
<path d="M54.8895 43.8017L53.9994 43L54.9018 44L54.9994 43.8889L54.8895 43.8017Z" fill="#3F3D56"/>
<path d="M67.9994 44C69.104 44 69.9994 43.3284 69.9994 42.5C69.9994 41.6716 69.104 41 67.9994 41C66.8949 41 65.9994 41.6716 65.9994 42.5C65.9994 43.3284 66.8949 44 67.9994 44Z" fill="#FFA239"/>
<path d="M68.9994 47H67.9994L68.4553 43L68.9994 47Z" fill="#3F3D56"/>
<path d="M68.8898 43.8017L67.9994 43L68.9018 44L68.9994 43.8889L68.8898 43.8017Z" fill="#3F3D56"/>
<path d="M58.9994 43C60.104 43 60.9994 42.1046 60.9994 41C60.9994 39.8954 60.104 39 58.9994 39C57.8948 39 56.9994 39.8954 56.9994 41C56.9994 42.1046 57.8948 43 58.9994 43Z" fill="#FFA239"/>
<path d="M58.9994 48H57.9994L58.4552 41L58.9994 48Z" fill="#3F3D56"/>
<path d="M63.9994 43C65.104 43 65.9994 41.8807 65.9994 40.5C65.9994 39.1193 65.104 38 63.9994 38C62.8948 38 61.9994 39.1193 61.9994 40.5C61.9994 41.8807 62.8948 43 63.9994 43Z" fill="#FFA239"/>
<path d="M64.1092 41.6032L64.9994 40L64.0969 42L63.9994 41.7778L64.1092 41.6032Z" fill="#3F3D56"/>
<path d="M49.9994 43C51.104 43 51.9994 41.8807 51.9994 40.5C51.9994 39.1193 51.104 38 49.9994 38C48.8948 38 47.9994 39.1193 47.9994 40.5C47.9994 41.8807 48.8948 43 49.9994 43Z" fill="#FFA239"/>
<path d="M50.1092 41.6032L50.9994 40L50.097 42L49.9994 41.7778L50.1092 41.6032Z" fill="#3F3D56"/>
<path d="M49.8898 42.8016L48.9994 42L49.902 43L49.9994 42.8889L49.8898 42.8016Z" fill="#3F3D56"/>
<path d="M58.9994 49H46.3688C46.3513 49.0002 46.3339 48.999 46.3167 48.9964C46.2287 48.9866 46.1482 48.9522 46.0899 48.8995C46.0317 48.8468 45.9995 48.7794 45.9994 48.7095V46.2299C47.1879 46.0742 48.391 45.9973 49.5959 46.0001C54.0795 46.0001 57.8301 47.0104 58.7705 48.3629C58.9124 48.5572 58.9911 48.776 58.9994 49Z" fill="#3F3D56"/>
<path d="M70.9994 47.3752V48.4465C70.9994 48.5933 70.9641 48.7341 70.9013 48.8379C70.8386 48.9416 70.7534 49 70.6646 49H57.9994C58.4068 48.5122 58.8473 48.1048 59.3118 47.7861C60.8636 46.6859 63.052 46 65.4766 46C67.5838 46 69.5114 46.5161 70.9994 47.3752Z" fill="#3F3D56"/>
<path d="M60.4763 0C60.4295 6.30327e-05 60.3834 0.0113348 60.3421 0.0328228L36.1511 12.5644C36.0841 12.5993 36.0341 12.6586 36.0119 12.7293C35.9898 12.8 35.9973 12.8764 36.0328 12.9418L45.2692 29.8521C45.3049 29.9174 45.3658 29.9662 45.4385 29.9878C45.5111 30.0094 45.5896 30.0021 45.6568 29.9674L69.8476 17.4358C69.9146 17.401 69.9647 17.3417 69.9869 17.271C70.0091 17.2002 70.0016 17.1238 69.966 17.0585L60.7296 0.148163C60.712 0.115739 60.688 0.0870357 60.6589 0.0637152C60.6299 0.0403947 60.5964 0.0229213 60.5603 0.0123078C60.5331 0.00417746 60.5048 2.96812e-05 60.4763 0Z" fill="#E6E6E6"/>
<path d="M59.4447 2.18524L65.9585 14.4301C65.98 14.4706 65.9934 14.5149 65.9978 14.5606C66.0022 14.6062 65.9976 14.6523 65.9842 14.6961C65.9708 14.74 65.9489 14.7808 65.9197 14.8162C65.8905 14.8516 65.8547 14.8809 65.8142 14.9024L45.0265 25.9593C45.0117 25.9673 44.9963 25.974 44.9804 25.9793C44.9015 26.0078 44.8149 26.0068 44.7366 25.9766C44.6584 25.9465 44.5936 25.8891 44.5542 25.815L38.0404 13.5701C38.0188 13.5296 38.0054 13.4853 38.001 13.4396C37.9966 13.394 38.0013 13.3479 38.0147 13.3041C38.0281 13.2602 38.05 13.2194 38.0791 13.184C38.1083 13.1487 38.1442 13.1194 38.1847 13.0978L58.9724 2.04094C59.0129 2.01939 59.0572 2.00603 59.1029 2.00162C59.1485 1.99721 59.1946 2.00183 59.2384 2.01523C59.2823 2.02863 59.3231 2.05055 59.3585 2.07972C59.3939 2.10889 59.4232 2.14474 59.4447 2.18524Z" fill="white"/>
<path d="M45.9994 18C47.6563 18 48.9994 16.6569 48.9994 15C48.9994 13.3431 47.6563 12 45.9994 12C44.3426 12 42.9994 13.3431 42.9994 15C42.9994 16.6569 44.3426 18 45.9994 18Z" fill="#FF6584"/>
<path d="M58.9994 18.7716L45.0537 25.9771C45.0364 25.9863 45.0182 25.994 44.9994 26L45.518 11.4949C45.5204 11.405 45.5473 11.3173 45.596 11.2408C45.6448 11.1643 45.7135 11.1018 45.7952 11.0595C45.877 11.0173 45.9688 10.9969 46.0614 11.0004C46.1539 11.0039 46.2438 11.0312 46.3219 11.0795L54.8266 16.2395L55.2338 16.4863L58.9994 18.7716Z" fill="#3F3D56"/>
<path opacity="0.2" d="M58.9994 18.5361L54.9994 21L55.4458 16.4875L55.4779 16.1625L55.4938 16L55.8359 16.2472L58.9994 18.5361Z" fill="black"/>
<path d="M65.9994 14.9108L54.9994 21L55.484 16.5979L55.5188 16.2808L56.1501 10.5441C56.1916 10.1681 56.6209 9.90848 56.9579 10.0304C56.9807 10.0388 57.0029 10.0488 57.0244 10.0602L65.9994 14.9108Z" fill="#3F3D56"/>
<path d="M37.4994 13C37.7756 13 37.9994 12.7761 37.9994 12.5C37.9994 12.2239 37.7756 12 37.4994 12C37.2233 12 36.9994 12.2239 36.9994 12.5C36.9994 12.7761 37.2233 13 37.4994 13Z" fill="#3F3D56"/>
<path d="M59.4994 1C59.7756 1 59.9994 0.776142 59.9994 0.5C59.9994 0.223858 59.7756 0 59.4994 0C59.2233 0 58.9994 0.223858 58.9994 0.5C58.9994 0.776142 59.2233 1 59.4994 1Z" fill="#3F3D56"/>
<path d="M95.6015 35.9907C95.6746 36.0097 95.7525 35.9994 95.818 35.9622C95.8835 35.925 95.9312 35.8638 95.9508 35.7922L100.99 17.2307C101.009 17.159 100.999 17.0826 100.961 17.0184C100.923 16.9542 100.86 16.9074 100.787 16.8884L74.3973 10.0094C74.3241 9.99034 74.2462 10.0006 74.1807 10.0378C74.1152 10.075 74.0675 10.1362 74.048 10.2079L69.009 28.7694C68.9994 28.8049 68.997 28.8419 69.0019 28.8783C69.0069 28.9148 69.0191 28.9499 69.0379 28.9817C69.0568 29.0135 69.0818 29.0413 69.1116 29.0636C69.1414 29.0859 69.1754 29.1023 69.2116 29.1117L95.6015 35.9907Z" fill="#E6E6E6"/>
<path d="M98.9877 17.7637L95.4243 31.7299C95.4005 31.8231 95.3422 31.9026 95.2622 31.951C95.1822 31.9993 95.0871 32.0126 94.9977 31.9878L72.2583 25.6811C72.2423 25.6769 72.2268 25.671 72.2119 25.6636C72.1347 25.6295 72.0719 25.5675 72.035 25.489C71.9981 25.4105 71.9896 25.3208 72.011 25.2363L75.5744 11.2701C75.5982 11.1769 75.6565 11.0974 75.7365 11.049C75.8165 11.0007 75.9117 10.9874 76.001 11.0122L98.7404 17.3189C98.8298 17.3437 98.906 17.4045 98.9524 17.4879C98.9988 17.5713 99.0115 17.6705 98.9877 17.7637Z" fill="white"/>
<path d="M95.9994 29.681L95.4918 31.7221C95.4679 31.818 95.4094 31.8998 95.3292 31.9495C95.249 31.9993 95.1536 32.0129 95.0639 31.9874L72.2591 25.4988C72.243 25.4944 72.2274 25.4884 72.2125 25.4808C72.1351 25.4457 72.0721 25.382 72.0351 25.3012C71.9981 25.2204 71.9895 25.1281 72.0111 25.0412L72.5187 23L95.9994 29.681Z" fill="#3F3D56"/>
<path d="M85.7505 28.024L82.1361 27.0625L82.0263 27.4756L85.6406 28.4371L85.7505 28.024Z" fill="#CCCCCC"/>
<path d="M77.437 25.8121L73.8227 24.8506L73.7128 25.2637L77.3272 26.2251L77.437 25.8121Z" fill="#CCCCCC"/>
<path d="M94.063 30.2349L90.4486 29.2734L90.3388 29.6865L93.9531 30.648L94.063 30.2349Z" fill="#CCCCCC"/>
<path d="M74.4994 11C74.7756 11 74.9994 10.7761 74.9994 10.5C74.9994 10.2239 74.7756 10 74.4994 10C74.2233 10 73.9994 10.2239 73.9994 10.5C73.9994 10.7761 74.2233 11 74.4994 11Z" fill="#3F3D56"/>
<path d="M70.4994 29C70.7756 29 70.9994 28.7761 70.9994 28.5C70.9994 28.2239 70.7756 28 70.4994 28C70.2233 28 69.9994 28.2239 69.9994 28.5C69.9994 28.7761 70.2233 29 70.4994 29Z" fill="#3F3D56"/>
<path d="M94.9994 36C95.5517 36 95.9994 35.7761 95.9994 35.5C95.9994 35.2239 95.5517 35 94.9994 35C94.4471 35 93.9994 35.2239 93.9994 35.5C93.9994 35.7761 94.4471 36 94.9994 36Z" fill="#3F3D56"/>
<path d="M90.2018 28.6105L92.2104 29.146L92.2954 28.8272L90.2868 28.2917L90.2018 28.6105Z" fill="#3F3D56"/>
<path d="M75.9994 24.3746L76.3816 24.591L91.8566 29L92.0821 28.693C92.4728 28.1676 92.7191 27.5364 92.7935 26.87C92.846 26.3725 92.7973 25.8494 92.4693 25.535L92.9994 20.4507L84.4407 18L80.417 19.9138C80.417 19.9138 78.8618 19.4395 77.7316 20.3278C77.3208 20.6607 77.0133 21.1181 76.8492 21.6405L76.6694 22.2186L75.9994 24.3746Z" fill="#FFA239"/>
<path d="M78.9994 27C80.104 27 80.9994 26.1046 80.9994 25C80.9994 23.8954 80.104 23 78.9994 23C77.8949 23 76.9994 23.8954 76.9994 25C76.9994 26.1046 77.8949 27 78.9994 27Z" fill="#3F3D56"/>
<path d="M78.9994 26C79.5517 26 79.9994 25.5523 79.9994 25C79.9994 24.4477 79.5517 24 78.9994 24C78.4471 24 77.9994 24.4477 77.9994 25C77.9994 25.5523 78.4471 26 78.9994 26Z" fill="#CCCCCC"/>
<path d="M88.9994 30C90.104 30 90.9994 29.1046 90.9994 28C90.9994 26.8954 90.104 26 88.9994 26C87.8949 26 86.9994 26.8954 86.9994 28C86.9994 29.1046 87.8949 30 88.9994 30Z" fill="#3F3D56"/>
<path d="M88.9994 29C89.5517 29 89.9994 28.3284 89.9994 27.5C89.9994 26.6716 89.5517 26 88.9994 26C88.4471 26 87.9994 26.6716 87.9994 27.5C87.9994 28.3284 88.4471 29 88.9994 29Z" fill="#CCCCCC"/>
<path d="M81.9994 20.3026L86.1811 21.5805L86.6916 21.7363L87.5535 22L87.5702 21.9278L87.7724 21.0588L87.9994 20.0829L87.426 19.9079L86.9156 19.7515L86.0115 19.4749L85.5009 19.3192L84.4571 19L81.9994 20.3026Z" fill="white"/>
<path d="M87.9994 22.4788L90.4957 23L90.6267 22.6165L90.8544 21.9461L90.9994 21.5213L90.6339 21.4451L90.0574 21.3245L88.5025 21L87.9994 22.4788Z" fill="white"/>
<path d="M87.0576 23.8799L87.3764 23.9648L87.5379 23.3591L87.219 23.2741L87.0576 23.8799Z" fill="#3F3D56"/>
<path d="M82.7093 21.4907L82.7943 21.1719L82.1886 21.0104L82.1036 21.3292L82.7093 21.4907Z" fill="#3F3D56"/>
<path d="M82.5326 21.2524L82.4976 21.2431C82.3208 21.196 82.1701 21.0806 82.0784 20.9223C81.9868 20.764 81.9618 20.5759 82.0089 20.3991C82.056 20.2224 82.1714 20.0716 82.3296 19.98C82.4879 19.8884 82.6761 19.8633 82.8528 19.9104L82.8879 19.9198L82.5326 21.2524Z" fill="#3F3D56"/>
<path d="M76.9994 22.9236C77.1609 23.0202 77.3393 23.0253 77.503 22.9382C77.6668 22.8511 77.8054 22.6773 77.8945 22.4474C77.9837 22.2175 78.0175 21.9463 77.9902 21.6815C77.9629 21.4167 77.8761 21.1754 77.7451 21C77.4567 21.3387 77.2408 21.8041 77.1256 22.3355L76.9994 22.9236Z" fill="#3F3D56"/>
<path d="M85.9994 20L86.5707 21.8711L86.9994 22L86.4282 20.1289L85.9994 20Z" fill="#F2F2F2"/>
<path d="M6.52431 22.767C7.13841 22.8499 7.70666 22.3956 7.79353 21.7523C7.8804 21.1089 7.45299 20.5202 6.83889 20.4373C6.22479 20.3543 5.65654 20.8086 5.56967 21.452C5.4828 22.0953 5.91021 22.6841 6.52431 22.767Z" fill="#FFA239"/>
<path opacity="0.2" d="M7.27804 20.604C7.45486 20.8187 7.55008 21.0917 7.54637 21.3734C7.54266 21.655 7.44026 21.9266 7.25781 22.1386C7.07536 22.3507 6.82497 22.4892 6.5522 22.529C6.27942 22.5687 6.00238 22.507 5.77147 22.3552C5.87751 22.4848 6.00982 22.5892 6.15934 22.6613C6.30886 22.7335 6.47205 22.7716 6.63774 22.773C6.80343 22.7745 6.9677 22.7394 7.1193 22.6699C7.2709 22.6005 7.40625 22.4985 7.51607 22.3708C7.6259 22.2432 7.7076 22.0929 7.75559 21.9303C7.80358 21.7678 7.81673 21.5967 7.79412 21.4289C7.77152 21.2611 7.71369 21.1005 7.62462 20.9581C7.53554 20.8157 7.41732 20.6949 7.27804 20.604Z" fill="black"/>
<path d="M36.0568 28.0484C37.6359 28.2616 38.9865 27.9129 39.0733 27.2696C39.1602 26.6262 37.9505 25.9318 36.3714 25.7186C34.7922 25.5054 33.4417 25.8541 33.3548 26.4974C33.268 27.1407 34.4777 27.8351 36.0568 28.0484Z" fill="#3F3D56"/>
<path opacity="0.2" d="M36.444 25.7282C36.3483 25.7153 36.2536 25.7045 36.1597 25.6959C37.5581 25.9452 38.5888 26.5896 38.5073 27.1929C38.4259 27.7963 37.2612 28.1443 35.8468 28.0137C35.9395 28.0303 36.0337 28.045 36.1295 28.058C37.669 28.2659 38.9874 27.9128 39.0743 27.2695C39.1612 26.6262 37.9836 25.9361 36.444 25.7282Z" fill="black"/>
<path d="M39.959 27.3214L25.6926 25.395L25.9018 23.8457C25.9122 23.7686 25.8917 23.6906 25.8448 23.6288C25.798 23.567 25.7285 23.5265 25.6518 23.5161L17.7475 22.4488C17.6708 22.4384 17.5931 22.4591 17.5315 22.5063C17.4699 22.5534 17.4295 22.6232 17.4191 22.7002L17.2099 24.2496L8.91995 23.1302L9.0507 22.1619C9.06111 22.0848 9.04062 22.0068 8.99374 21.945C8.94687 21.8832 8.87744 21.8427 8.80075 21.8323L4.55939 21.2596C4.48269 21.2493 4.40501 21.27 4.34342 21.3171C4.28183 21.3643 4.24138 21.434 4.23098 21.5111L4.10023 22.4794L2.94349 22.3232C2.90551 22.3181 2.86687 22.3205 2.82979 22.3303C2.79272 22.3401 2.75793 22.3572 2.72742 22.3806C2.69692 22.404 2.67129 22.4331 2.65201 22.4664C2.63273 22.4997 2.62018 22.5365 2.61508 22.5747L0.0392285 41.6512C0.0340245 41.6893 0.0363664 41.7281 0.046119 41.7654C0.0558716 41.8026 0.0728444 41.8375 0.0960638 41.8681C0.119283 41.8987 0.148293 41.9244 0.181433 41.9438C0.214572 41.9631 0.251188 41.9756 0.289186 41.9807L37.3047 46.9788C37.3427 46.984 37.3813 46.9816 37.4184 46.9718C37.4554 46.9619 37.4902 46.9449 37.5207 46.9215C37.5513 46.8981 37.5769 46.869 37.5962 46.8357C37.6154 46.8023 37.628 46.7656 37.6331 46.7274L40.2089 27.6509C40.2141 27.6128 40.2118 27.574 40.202 27.5367C40.1923 27.4995 40.1753 27.4646 40.1521 27.434C40.1289 27.4034 40.0999 27.3776 40.0667 27.3583C40.0336 27.339 39.997 27.3264 39.959 27.3214Z" fill="#3F3D56"/>
<path opacity="0.2" d="M37.5059 45.4778L0.490417 40.4797C0.45242 40.4746 0.415833 40.4618 0.382751 40.4421C0.349669 40.4223 0.320742 40.396 0.29763 40.3646C0.274517 40.3332 0.257672 40.2973 0.248059 40.259C0.238446 40.2208 0.236253 40.1809 0.241608 40.1416L0.0531949 41.537C0.0478401 41.5762 0.0500326 41.6162 0.0596459 41.6544C0.0692591 41.6927 0.0861038 41.7285 0.109217 41.7599C0.132329 41.7913 0.161256 41.8177 0.194338 41.8374C0.22742 41.8572 0.264007 41.8699 0.302004 41.875L37.3175 46.8731C37.3555 46.8783 37.3941 46.8757 37.4313 46.8654C37.4684 46.8552 37.5033 46.8375 37.5339 46.8133C37.5645 46.7892 37.5903 46.7591 37.6097 46.7247C37.6291 46.6904 37.6418 46.6525 37.6471 46.6132L37.8355 45.2178C37.8302 45.2571 37.8175 45.295 37.7981 45.3293C37.7787 45.3637 37.7529 45.3938 37.7223 45.4179C37.6917 45.4421 37.6568 45.4598 37.6197 45.4701C37.5826 45.4803 37.5439 45.483 37.5059 45.4778Z" fill="black"/>
<path opacity="0.2" d="M39.0376 36.3223L1.44376 31.2461L0.957583 34.8466L38.5514 39.9228L39.0376 36.3223Z" fill="black"/>
<path opacity="0.2" d="M39.2944 34.4161L1.70059 29.3398L1.20012 33.0463L38.794 38.1225L39.2944 34.4161Z" fill="black"/>
<path d="M39.1812 35.2632L1.58731 30.187L1.08684 33.8934L38.6807 38.9697L39.1812 35.2632Z" fill="#FFA239"/>
<path d="M19.139 41.9383C23.2038 42.4872 26.9406 39.6607 27.4856 35.6251C28.0305 31.5896 25.177 27.8732 21.1123 27.3244C17.0475 26.7755 13.3106 29.602 12.7657 33.6375C12.2208 37.6731 15.0742 41.3895 19.139 41.9383Z" fill="#FFA239"/>
<path opacity="0.2" d="M26.4302 30.7382C27.1495 32.4478 27.1965 34.364 26.5619 36.1053C25.9274 37.8466 24.6577 39.2853 23.0057 40.1351C21.3536 40.9849 19.4404 41.1835 17.6467 40.6913C15.853 40.1991 14.3104 39.0522 13.326 37.4789C13.7211 38.4184 14.3072 39.2663 15.0472 39.9693C15.7873 40.6723 16.6654 41.2151 17.626 41.5635C18.5867 41.9119 19.6092 42.0584 20.6291 41.9937C21.649 41.929 22.6441 41.6545 23.5519 41.1876C24.4596 40.7207 25.2603 40.0714 25.9034 39.2806C26.5465 38.4899 27.0181 37.5749 27.2885 36.5932C27.5589 35.6115 27.6222 34.5845 27.4745 33.5768C27.3268 32.5691 26.9712 31.6026 26.4302 30.7382Z" fill="black"/>
<path d="M19.3964 40.0321C22.4084 40.4388 25.1798 38.3268 25.5865 35.3148C25.9932 32.3027 23.8812 29.5313 20.8692 29.1246C17.8572 28.7179 15.0857 30.8299 14.679 33.8419C14.2723 36.854 16.3843 39.6254 19.3964 40.0321Z" fill="#3F3D56"/>
<path d="M24.4154 35.2101C24.3387 35.7852 24.1434 36.3382 23.8417 36.8351C23.6799 37.1032 23.4881 37.3525 23.27 37.5783C22.8395 38.027 22.3152 38.3775 21.7334 38.6058C21.1515 38.834 20.526 38.9344 19.9002 38.9001C19.2743 38.8658 18.663 38.6975 18.1086 38.407C17.5541 38.1164 17.0698 37.7106 16.6891 37.2174C16.3084 36.7242 16.0404 36.1556 15.9037 35.5508C15.767 34.946 15.7648 34.3195 15.8973 33.7147C16.0298 33.1099 16.2938 32.5411 16.671 32.0479C17.0483 31.5546 17.5298 31.1485 18.0822 30.8578C18.3605 30.7101 18.6549 30.5937 18.9597 30.5107C19.6494 30.3221 20.3762 30.3058 21.0751 30.4632C21.7739 30.6207 22.4228 30.9469 22.9636 31.4127C23.5044 31.8785 23.9201 32.4693 24.1735 33.1321C24.4269 33.7949 24.51 34.5089 24.4154 35.2101Z" fill="white"/>
<path opacity="0.2" d="M24.4577 34.5547C24.4456 33.4492 24.0087 32.3913 23.2381 31.6011C23.5323 32.2377 23.6667 32.937 23.6294 33.6379C23.5922 34.3388 23.3845 35.02 23.0245 35.6223C22.8634 35.8924 22.6727 36.1437 22.456 36.3714C22.0586 36.7916 21.5807 37.1271 21.0509 37.3578C20.5212 37.5884 19.9506 37.7095 19.3732 37.7137C18.7959 37.7179 18.2237 37.6052 17.691 37.3823C17.1583 37.1594 16.6761 36.8309 16.2732 36.4165C16.5669 37.0538 17.0118 37.6092 17.5691 38.0341C18.1264 38.4591 18.7791 38.7406 19.4701 38.8542C20.1612 38.9678 20.8696 38.9099 21.5334 38.6857C22.1973 38.4614 22.7964 38.0776 23.2784 37.5678C23.4952 37.3401 23.6859 37.0889 23.847 36.8187C24.2556 36.1351 24.467 35.3514 24.4577 34.5547Z" fill="black"/>
</svg>
