<svg width="336" height="200" viewBox="0 0 336 200" fill="none" xmlns="http://www.w3.org/2000/svg">
<g clip-path="url(#clip0_339_2814)">
<path d="M36.4991 140.885C35.0479 141.041 33.4636 141.275 31.7783 141.62C24.6373 143.076 24.4858 147.925 24.5501 149.036L24.4996 149.004C23.7832 150.157 23.3332 151.323 23.0576 152.421L22.7316 137.556C22.9428 137.115 23.1357 136.614 23.2964 136.105C23.8291 137.753 24.7062 139.305 25.464 139.204C26.4467 139.071 26.8738 136.178 26.6901 134.125C27.9392 135.733 30.0424 137.455 30.8369 136.922C31.4706 136.5 31.094 134.755 30.4052 133.166C31.8472 134.034 33.4453 134.603 33.9412 134.052C34.6163 133.299 32.9952 130.732 31.5027 129.299C33.5004 129.487 36.0445 129.166 36.2144 128.256C36.3521 127.508 34.8367 126.562 33.2156 125.951C34.8413 125.524 36.3659 124.776 36.3154 124.036C36.2557 123.159 33.9963 122.567 32.0446 122.479C33.5141 121.331 34.8643 119.738 34.4509 119.022C34.0698 118.36 32.3064 118.617 30.6761 119.201C31.6405 117.823 32.3202 116.266 31.8012 115.733C31.1583 115.072 28.876 116.216 27.3146 117.479C27.6177 115.508 27.4662 113.024 26.5799 112.799C25.8405 112.611 24.7935 114.057 24.0771 115.632C23.7602 113.979 23.1173 112.409 22.378 112.409C21.3218 112.409 20.4676 115.591 20.4676 117.667C20.4676 117.786 20.4676 117.896 20.4768 118.002C20.3712 117.878 20.2472 117.749 20.1094 117.616C18.6215 116.17 15.7422 114.567 15.0028 115.325C14.4885 115.857 15.1636 117.41 16.1279 118.792C14.4977 118.209 12.7297 117.952 12.3531 118.613C11.8434 119.499 14.0247 121.717 15.7973 122.792C15.6917 122.778 15.5769 122.769 15.4575 122.76C13.3864 122.617 10.1534 123.256 10.08 124.307C10.0295 125.047 11.5495 125.795 13.1797 126.222C11.5587 126.833 10.0478 127.779 10.181 128.527C10.3463 129.437 12.8904 129.758 14.8926 129.57C13.4002 131.003 11.7791 133.57 12.4542 134.323C12.9501 134.874 14.5482 134.304 15.9902 133.437C15.2967 135.025 14.9248 136.77 15.5585 137.193C16.3943 137.753 18.695 135.802 19.9028 134.125C19.7788 136.178 20.2701 138.998 21.2437 139.108C21.6524 139.154 22.0841 138.718 22.4744 138.052L21.3723 154.028C21.1151 155.888 22.7637 157.105 22.9107 157.867L23.1495 168.687C22.8785 167.915 22.5203 167.125 22.029 166.344L21.9784 166.377C22.0427 165.265 21.8912 160.416 14.7503 158.96C13.0649 158.616 11.4806 158.382 10.0295 158.225C8.31655 158.042 7.64608 160.388 9.19367 161.146C11.4347 162.244 13.5425 163.626 14.6446 165.261C17.4551 169.444 21.3355 167.029 21.8912 166.652C22.5066 167.681 22.9107 168.714 23.1678 169.697L23.2964 175.442C23.2643 175.579 23.2459 175.653 23.2413 175.658L23.301 175.676L23.6087 189.581L26.4467 189.558L25.4318 175.345C25.6017 174.578 26.1252 171.965 25.4318 169.256L24.4169 158.088L23.0944 153.697C23.2872 152.338 23.7327 150.814 24.6419 149.303C25.193 149.679 29.078 152.099 31.8885 147.911C32.986 146.276 35.0985 144.894 37.3395 143.797C38.887 143.039 38.2212 140.692 36.5037 140.876L36.4991 140.885ZM23.5352 173.784L23.4801 171.35C23.5857 172.268 23.5811 173.1 23.5352 173.784Z" fill="#F2F2F2"/>
<path d="M0 190.252C0 190.555 0.243388 190.798 0.546476 190.798H335.454C335.757 190.798 336 190.555 336 190.252C336 189.948 335.757 189.705 335.454 189.705H0.546476C0.243388 189.705 0 189.948 0 190.252Z" fill="#3F3D56"/>
<path d="M203.243 190.734C216.939 190.734 228.041 179.631 228.041 165.936C228.041 152.24 216.939 141.138 203.243 141.138C189.548 141.138 178.445 152.24 178.445 165.936C178.445 179.631 189.548 190.734 203.243 190.734Z" fill="#3F3D56"/>
<path d="M203.243 182.468C212.373 182.468 219.775 175.066 219.775 165.936C219.775 156.805 212.373 149.404 203.243 149.404C194.113 149.404 186.711 156.805 186.711 165.936C186.711 175.066 194.113 182.468 203.243 182.468Z" fill="white"/>
<path d="M203.243 175.35C208.442 175.35 212.657 171.135 212.657 165.936C212.657 160.737 208.442 156.522 203.243 156.522C198.044 156.522 193.829 160.737 193.829 165.936C193.829 171.135 198.044 175.35 203.243 175.35Z" fill="#3F3D56"/>
<path d="M59.9654 190.734C73.661 190.734 84.7635 179.631 84.7635 165.936C84.7635 152.24 73.661 141.138 59.9654 141.138C46.2698 141.138 35.1673 152.24 35.1673 165.936C35.1673 179.631 46.2698 190.734 59.9654 190.734Z" fill="#3F3D56"/>
<path d="M59.9654 182.468C69.0958 182.468 76.4974 175.066 76.4974 165.936C76.4974 156.805 69.0958 149.404 59.9654 149.404C50.835 149.404 43.4333 156.805 43.4333 165.936C43.4333 175.066 50.835 182.468 59.9654 182.468Z" fill="white"/>
<path d="M237.166 154.143C233.938 146.001 222.65 121.125 202.545 112.891C202.389 112.827 202.228 112.785 202.063 112.762L137.583 103.527C136.523 103.376 135.531 104.101 135.361 105.162L134.231 112.142C134.153 112.62 134.254 113.111 134.516 113.52C137.79 118.599 158.777 153.082 125.171 153.082C91.5646 153.082 82.302 129.033 80.8325 124.785C80.6947 124.385 80.6902 123.954 80.8141 123.55L90.9997 91.2891C91.1788 90.7151 91.0824 90.1273 90.7885 89.6589L95.2659 81.3423L103.468 85.9851L107.715 86.0356L122.213 93.6128L125.166 88.7909L95.2659 73.8754C95.2659 73.8754 95.3164 70.422 85.6727 67.6667L70.5184 60.7783L68.6815 63.0744L73.2737 66.7482L73.7329 69.5036L76.9475 70.422L83.3766 82.821L81.5397 86.3754L83.7715 87.4638L83.1332 87.3168C82.2102 87.1056 81.2688 87.5832 80.8922 88.4511L70.7617 111.669C70.6056 112.023 70.3484 112.326 70.0224 112.537L66.4129 114.866C66.0777 115.081 65.8113 115.398 65.6598 115.77L61.5359 125.768C61.4074 126.08 61.3706 126.406 61.4028 126.723C56.2641 127.696 41.1602 131.903 32.862 148.495L42.5057 156.301C42.5057 156.301 57.6234 146.52 82.6051 156.705C86.9494 163.465 93.2821 169.072 102.43 169.6C126.544 170.997 166.496 172.374 171.088 166.863C174.45 162.827 176.787 160.31 177.802 159.25C178.16 158.878 178.647 158.662 179.161 158.643L235.393 156.848C236.757 156.807 237.662 155.42 237.161 154.152L237.166 154.143Z" fill="#FFA239"/>
<path d="M82.0081 81.8978C86.0661 81.8978 89.3557 78.6082 89.3557 74.5502C89.3557 70.4923 86.0661 67.2026 82.0081 67.2026C77.9502 67.2026 74.6606 70.4923 74.6606 74.5502C74.6606 78.6082 77.9502 81.8978 82.0081 81.8978Z" fill="#3F3D56"/>
<path d="M199.675 112.923C199.588 112.923 199.5 112.923 199.413 112.918L137.978 110.54C135.26 110.434 132.931 108.703 132.045 106.131L131.205 103.683C130.52 101.69 130.819 99.5503 132.022 97.819C133.23 96.0878 135.131 95.0683 137.239 95.0178L200.713 93.5575C202.678 93.5115 204.57 94.3519 205.852 95.8673C207.133 97.3828 207.656 99.3666 207.284 101.318L206.086 107.601C205.493 110.719 202.816 112.918 199.67 112.918L199.675 112.923Z" fill="#3F3D56"/>
<path d="M59.9654 175.35C65.1647 175.35 69.3795 171.135 69.3795 165.936C69.3795 160.737 65.1647 156.522 59.9654 156.522C54.7662 156.522 50.5513 160.737 50.5513 165.936C50.5513 171.135 54.7662 175.35 59.9654 175.35Z" fill="#3F3D56"/>
<path d="M224.358 139.136C222.889 139.136 221.488 138.35 220.74 136.996L216.088 128.574C215.348 127.237 215.394 125.671 216.202 124.381C217.011 123.086 218.407 122.36 219.922 122.443L228.367 122.875C229.938 122.957 231.352 123.945 231.968 125.396L234.434 131.228C234.884 132.298 234.874 133.464 234.401 134.525C233.928 135.581 233.065 136.376 231.972 136.752L225.718 138.911C225.272 139.067 224.813 139.14 224.363 139.14L224.358 139.136Z" fill="#3F3D56"/>
<path d="M117.566 195.11C117.497 195.11 117.423 195.11 117.355 195.096L115.481 194.89C114.87 194.821 114.337 194.477 114.025 193.944C113.713 193.411 113.672 192.782 113.91 192.213L123.664 169.049C123.931 168.416 124.523 167.966 125.207 167.878C125.873 167.796 126.521 168.057 126.948 168.576C127.37 169.095 127.499 169.784 127.283 170.418L119.407 193.788C119.141 194.578 118.388 195.106 117.57 195.106L117.566 195.11Z" fill="#3F3D56"/>
<path d="M168.204 33.4684C168.204 33.4684 164.636 26.3321 165.348 19.9121L153.472 26.0657L153.932 37.7483L168.204 33.4684Z" fill="#A0616A"/>
<path d="M160.834 29.3629C166.751 29.3629 171.548 24.5662 171.548 18.6492C171.548 12.7322 166.751 7.93555 160.834 7.93555C154.917 7.93555 150.12 12.7322 150.12 18.6492C150.12 24.5662 154.917 29.3629 160.834 29.3629Z" fill="#A0616A"/>
<path d="M171.777 186.872H165.238L162.129 161.656H171.777V186.872Z" fill="#A0616A"/>
<path d="M149.381 186.72C149.179 187.065 149.069 188.171 149.069 188.566C149.069 189.793 150.06 190.784 151.287 190.784H171.529C172.365 190.784 173.045 190.105 173.045 189.269V188.424C173.045 188.424 174.046 185.889 171.984 182.771C171.984 182.771 169.421 185.214 165.591 181.389L164.462 179.345L156.288 185.324L151.755 185.88C150.763 186.004 149.886 185.862 149.376 186.72H149.381Z" fill="#2F2E41"/>
<path d="M152.504 33.4681L168.204 31.3281L180.337 37.0363L181.049 81.2779C181.049 81.2779 151.209 84.846 146.506 80.2079C141.804 75.5697 145.372 38.4645 145.372 38.4645L152.508 33.4681H152.504Z" fill="#E6E6E6"/>
<path d="M158.152 21.3768H155.273C155.273 21.3768 152.774 18.3 153.11 20.1736C153.445 22.0473 152.099 24.0633 152.099 24.0633L150.083 23.3928C150.083 23.3928 146.051 6.43368 158.152 5.50145C170.253 4.56923 172.944 13.9833 172.944 13.9833C172.944 13.9833 172.273 18.6904 170.928 17.3448C169.582 15.9993 162.189 15.3288 162.189 15.3288L158.157 21.3814L158.152 21.3768Z" fill="#2F2E41"/>
<path d="M150.533 181.205L144.247 182.977L134.401 159.562L143.686 156.939L150.533 181.205Z" fill="#A0616A"/>
<path d="M128.941 187.147C128.84 187.533 129.037 188.626 129.143 189.011C129.473 190.192 130.7 190.876 131.88 190.545L151.36 185.044C152.164 184.819 152.632 183.978 152.407 183.175L152.177 182.362C152.177 182.362 152.453 179.653 149.62 177.209C149.62 177.209 147.819 180.259 143.094 177.614L141.45 175.951L135.209 183.923L131.003 185.691C130.084 186.077 129.198 186.183 128.941 187.147Z" fill="#2F2E41"/>
<path d="M178.904 76.998L181.044 83.4731V105.722L174.62 172.879H162.074L160.659 124.941L161.775 101.263L137.845 137.469L148.361 163.327L136.784 171.047C136.784 171.047 119.472 131.595 122.062 127.77C124.652 123.949 147.852 78.8212 147.852 78.8212C147.852 78.8212 178.895 77.7144 178.895 77.0026L178.904 76.998Z" fill="#2F2E41"/>
<path d="M185.329 51.3091L188.778 56.9575C188.778 56.9575 193.654 76.1255 188.778 76.2036C183.901 76.2816 174.055 66.4359 174.055 66.4359L175.341 61.2972L178.909 62.7254L178.197 51.3091H185.333H185.329Z" fill="#A0616A"/>
<path d="M174.624 36.949C174.624 36.949 186.041 34.9376 187.111 42.4092C188.181 49.8807 188.778 56.962 188.778 56.962L176.406 57.986L174.624 36.949Z" fill="#E6E6E6"/>
<path d="M177.104 65.8101C178.137 64.3599 176.625 61.5109 173.727 59.4466C170.828 57.3823 167.641 56.8844 166.608 58.3346C165.576 59.7848 167.088 62.6339 169.986 64.6982C172.884 66.7625 176.071 67.2603 177.104 65.8101Z" fill="#A0616A"/>
<path d="M271.162 140.885C269.711 141.041 268.127 141.275 266.441 141.62C259.301 143.076 259.149 147.925 259.213 149.036L259.163 149.004C258.446 150.157 257.996 151.323 257.721 152.421L257.395 137.556C257.606 137.115 257.799 136.614 257.96 136.105C258.492 137.753 259.369 139.305 260.127 139.204C261.11 139.071 261.537 136.178 261.353 134.125C262.602 135.733 264.706 137.455 265.5 136.922C266.134 136.5 265.757 134.755 265.068 133.166C266.51 134.034 268.108 134.603 268.604 134.052C269.279 133.299 267.658 130.732 266.166 129.299C268.164 129.487 270.708 129.166 270.878 128.256C271.015 127.508 269.5 126.562 267.879 125.951C269.504 125.524 271.029 124.776 270.979 124.036C270.919 123.159 268.66 122.567 266.708 122.479C268.177 121.331 269.527 119.738 269.114 119.022C268.733 118.36 266.97 118.617 265.339 119.201C266.304 117.823 266.983 116.266 266.464 115.733C265.821 115.072 263.539 116.216 261.978 117.479C262.281 115.508 262.129 113.024 261.243 112.799C260.504 112.611 259.457 114.057 258.74 115.632C258.423 113.979 257.78 112.409 257.041 112.409C255.985 112.409 255.131 115.591 255.131 117.667C255.131 117.786 255.131 117.896 255.14 118.002C255.034 117.878 254.91 117.749 254.773 117.616C253.285 116.17 250.405 114.567 249.666 115.325C249.152 115.857 249.827 117.41 250.791 118.792C249.161 118.209 247.393 117.952 247.016 118.613C246.507 119.499 248.688 121.717 250.46 122.792C250.355 122.778 250.24 122.769 250.121 122.76C248.05 122.617 244.817 123.256 244.743 124.307C244.693 125.047 246.213 125.795 247.843 126.222C246.222 126.833 244.711 127.779 244.844 128.527C245.009 129.437 247.554 129.758 249.556 129.57C248.063 131.003 246.442 133.57 247.117 134.323C247.613 134.874 249.211 134.304 250.653 133.437C249.96 135.025 249.588 136.77 250.222 137.193C251.057 137.753 253.358 135.802 254.566 134.125C254.442 136.178 254.933 138.998 255.907 139.108C256.316 139.154 256.747 138.718 257.138 138.052L256.035 154.028C255.778 155.888 257.427 157.105 257.574 157.867L257.813 168.687C257.542 167.915 257.183 167.125 256.692 166.344L256.642 166.377C256.706 165.265 256.554 160.416 249.413 158.96C247.728 158.616 246.144 158.382 244.693 158.225C242.98 158.042 242.309 160.388 243.857 161.146C246.098 162.244 248.206 163.626 249.308 165.261C252.118 169.444 255.999 167.029 256.554 166.652C257.17 167.681 257.574 168.714 257.831 169.697L257.96 175.442C257.927 175.579 257.909 175.653 257.904 175.658L257.964 175.676L258.272 189.581L261.11 189.558L260.095 175.345C260.265 174.578 260.788 171.965 260.095 169.256L259.08 158.088L257.758 153.697C257.95 152.338 258.396 150.814 259.305 149.303C259.856 149.679 263.741 152.099 266.552 147.911C267.649 146.276 269.762 144.894 272.003 143.797C273.55 143.039 272.884 140.692 271.167 140.876L271.162 140.885ZM258.198 173.784L258.143 171.35C258.249 172.268 258.244 173.1 258.198 173.784Z" fill="#F2F2F2"/>
<path d="M238.112 187.855L243.049 186.789L241.281 167.254L234.002 168.824L238.112 187.855Z" fill="#A0616A"/>
<path d="M254.993 184.094C255.204 184.319 255.466 185.136 255.53 185.439C255.732 186.362 255.145 187.276 254.217 187.474L238.939 190.776C238.309 190.913 237.685 190.509 237.547 189.88L237.409 189.242C237.409 189.242 236.238 187.492 237.285 184.801C237.285 184.801 239.618 186.229 241.882 182.712L242.401 180.985L249.547 184.163L253.055 183.846C253.822 183.777 254.465 183.524 254.988 184.094H254.993Z" fill="#2F2E41"/>
<path d="M246.938 186.362L251.053 183.442L241.744 166.175L235.669 170.482L246.938 186.362Z" fill="#A0616A"/>
<path d="M260.977 176.259C261.257 176.383 261.822 177.031 261.996 177.283C262.543 178.055 262.364 179.125 261.592 179.671L248.844 188.718C248.316 189.09 247.59 188.966 247.214 188.442L246.837 187.91C246.837 187.91 245.074 186.762 244.977 183.873C244.977 183.873 247.682 184.268 248.385 180.144L248.183 178.353L256.003 178.463L259.108 176.792C259.787 176.425 260.279 175.942 260.981 176.259H260.977Z" fill="#2F2E41"/>
<path d="M187.639 89.7644C187.639 89.7644 179.965 100.198 195.312 111.931L226.654 101.915L215.458 78.5686L205.544 73.1313L187.634 89.7598L187.639 89.7644Z" fill="#2F2E41"/>
<path d="M226.659 101.92L238.81 125.584L246.488 174.84L236.895 175.479L227.297 128.785L210.347 103.518L222.181 98.0811" fill="#2F2E41"/>
<path d="M195.317 104.501V111.936L217.066 135.82C217.066 135.82 217.066 153.73 225.382 162.046L234.975 176.76L243.292 172.282L231.141 129.428L209.392 101.282L195.321 104.501H195.317Z" fill="#2F2E41"/>
<path d="M210.77 30.8003L206.674 46.4185L191.055 43.3463C191.055 43.3463 201.953 32.1091 200.419 26.9888L210.774 30.8003H210.77Z" fill="#A0616A"/>
<path d="M198.835 33.1558L208.428 37.6332C208.428 37.6332 213.364 40.6503 213.456 42.6617C213.548 44.6731 212.905 54.2663 212.905 54.2663C212.905 54.2663 216.744 58.1054 214.186 65.779L215.468 78.573L186.684 93.9248L189.241 67.0602L187.96 42.1152L198.835 33.1604V33.1558Z" fill="#3F3D56"/>
<path d="M190.224 105.952C191.349 108.528 193.59 110.039 195.23 109.323C196.869 108.606 197.287 105.938 196.166 103.362C195.73 102.324 195.055 101.41 194.192 100.689L189.292 89.8286L184.245 92.2349L189.609 102.687C189.549 103.807 189.76 104.928 190.224 105.952Z" fill="#A0616A"/>
<path d="M195.317 43.7134C195.317 43.7134 188.282 39.236 185.724 44.3517C183.166 49.4675 177.407 75.6937 177.407 75.6937L185.724 100.639L193.397 97.4425L186.679 70.5963L195.312 43.7134H195.317Z" fill="#3F3D56"/>
<path d="M231.38 101.925C233.373 103.908 236.013 104.487 237.276 103.215C238.539 101.943 237.942 99.3116 235.949 97.3278C235.164 96.5241 234.195 95.9226 233.129 95.569L224.574 87.2754L220.767 91.3717L229.603 99.1096C229.961 100.175 230.572 101.139 231.38 101.92V101.925Z" fill="#A0616A"/>
<path d="M213.185 42.184C213.185 42.184 200.919 41.6835 200.423 47.3824C199.932 53.0814 208.318 78.5132 208.318 78.5132L225.24 98.641L231.196 92.841L215.064 70.3574L213.19 42.184H213.185Z" fill="#3F3D56"/>
<path d="M177.269 88.364L167.024 57.2608C158.74 49.9637 149.753 67.5382 125.63 57.573L133.216 92.7541C151.456 82.8946 167.153 79.0326 177.269 88.364Z" fill="white"/>
<path d="M133.216 93.6725C133.152 93.6725 133.083 93.6587 133.023 93.6312C132.89 93.5715 132.798 93.4521 132.766 93.3097L125.18 58.1286C125.143 57.9633 125.203 57.7888 125.336 57.6786C125.469 57.5683 125.648 57.5408 125.804 57.6051C139.508 63.2627 148.352 59.8966 154.813 57.4352C159.723 55.5661 163.598 54.0874 167.327 57.3709C167.387 57.426 167.433 57.4949 167.46 57.5729L177.706 88.6761C177.77 88.8736 177.692 89.094 177.517 89.2042C177.343 89.319 177.109 89.2961 176.957 89.1537C168.067 80.952 154.235 82.3664 133.437 93.6128C133.368 93.6495 133.294 93.6679 133.216 93.6679V93.6725ZM126.259 58.7807L133.533 92.5198C153.491 81.8337 167.162 80.1851 176.314 87.4087L166.62 57.9862C163.337 55.1758 159.888 56.4892 155.135 58.2985C148.66 60.7645 139.838 64.126 126.259 58.7853V58.7807Z" fill="#3F3D56"/>
<path d="M141.519 42.4419L135.035 43.7828C135.035 43.7828 117.704 53.3209 120.982 56.935C124.257 60.5491 138.176 61.0129 138.176 61.0129L141.05 56.563L137.57 54.9328L146.396 47.6541L141.519 42.4419Z" fill="#A0616A"/>
<path d="M159.318 40.444C159.318 40.444 152.986 30.7315 146.8 35.0574C140.614 39.3832 135.039 43.7826 135.039 43.7826L142.745 53.5135L159.323 40.444H159.318Z" fill="#E6E6E6"/>
<path d="M149.177 60.9117C149.53 59.1667 146.989 57.1799 143.501 56.4741C140.014 55.7684 136.9 56.6109 136.547 58.3559C136.194 60.101 138.735 62.0878 142.222 62.7935C145.71 63.4993 148.824 62.6568 149.177 60.9117Z" fill="#A0616A"/>
<path d="M268.935 193.765C271.076 193.765 272.811 192.03 272.811 189.889C272.811 187.748 271.076 186.013 268.935 186.013C266.794 186.013 265.059 187.748 265.059 189.889C265.059 192.03 266.794 193.765 268.935 193.765Z" fill="#3F3D56"/>
<path d="M274.101 199.776C276.242 199.776 277.977 198.041 277.977 195.9C277.977 193.76 276.242 192.024 274.101 192.024C271.961 192.024 270.225 193.76 270.225 195.9C270.225 198.041 271.961 199.776 274.101 199.776Z" fill="#3F3D56"/>
<path d="M312.851 199.776C314.991 199.776 316.726 198.041 316.726 195.9C316.726 193.76 314.991 192.024 312.851 192.024C310.71 192.024 308.975 193.76 308.975 195.9C308.975 198.041 310.71 199.776 312.851 199.776Z" fill="#3F3D56"/>
<path d="M279.777 137.9V95.8125C279.777 91.1008 283.717 89.9344 288.429 89.9344C290.739 89.9344 291.859 89.6681 293.481 91.3121C295.102 92.9561 296.902 93.6403 296.865 95.9502L296.185 137.248L279.773 137.896L279.777 137.9ZM288.888 92.6943C284.682 92.6943 280.696 91.6106 280.696 95.8171V136.95L295.285 136.371L295.951 95.9411C295.983 93.8791 292.631 94.1639 291.189 92.6943C289.742 91.2248 290.955 92.6943 288.893 92.6943H288.888Z" fill="#3F3D56"/>
<path d="M268.242 137.39L267.654 183.372C267.645 183.965 267.787 184.548 268.062 185.071L272.407 193.278C273.045 194.486 274.322 195.216 275.686 195.156L313.829 193.475C315.78 193.388 317.291 191.735 317.204 189.783L314.811 137.28C314.724 135.393 313.172 133.905 311.28 133.905H271.773C269.84 133.905 268.265 135.462 268.237 137.395L268.242 137.39Z" fill="#E6E6E6"/>
<path d="M283.277 158.143L282.358 158.097L282.698 151.291C282.882 147.626 285.899 144.687 289.568 144.6L305.811 144.224C309.09 144.168 311.808 146.653 311.987 149.932L312.332 156.154L311.413 156.205L311.069 149.982C310.913 147.204 308.594 145.073 305.829 145.142L289.586 145.519C286.395 145.592 283.773 148.15 283.612 151.337L283.272 158.143H283.277Z" fill="#3F3D56"/>
<path d="M282.629 191.106L281.715 191.014L283.694 171.699C284.062 168.126 287.042 165.311 290.629 165.15L306.472 164.439C308.47 164.347 310.366 165.054 311.817 166.427C313.268 167.8 314.077 169.655 314.1 171.653L314.279 188.47L313.36 188.479L313.181 171.662C313.163 169.917 312.456 168.296 311.188 167.093C309.921 165.89 308.254 165.274 306.518 165.352L290.675 166.064C287.538 166.207 284.934 168.663 284.613 171.786L282.634 191.101L282.629 191.106Z" fill="#3F3D56"/>
<path d="M275.529 189.769L274.611 189.756L275.19 145.615C275.231 142.598 277.624 140.164 280.641 140.072L311.868 139.154L311.895 140.072L280.668 140.991C278.142 141.064 276.14 143.099 276.108 145.624L275.529 189.765V189.769Z" fill="#3F3D56"/>
<path d="M275.612 183.482H274.974V143.282C274.974 142.01 273.941 140.972 272.664 140.972H269.096V140.054H272.664C274.349 140.054 275.736 141.353 275.878 142.997C275.888 143.089 275.892 143.186 275.892 143.282V162.317L275.612 183.482Z" fill="#3F3D56"/>
<path d="M217.438 22.4515C217.438 28.3388 212.666 33.1101 206.779 33.1101C200.892 33.1101 196.121 28.3388 196.121 22.4515C196.121 16.5643 200.892 11.793 206.779 11.793C212.666 11.793 217.438 16.5643 217.438 22.4515Z" fill="#A0616A"/>
<path d="M205.93 8.12373C206.237 8.30282 206.651 8.03188 206.752 7.68747C206.853 7.34305 206.733 6.98026 206.623 6.64044C206.43 6.071 206.242 5.50615 206.049 4.93672C205.64 3.72896 205.209 2.47987 204.327 1.56142C202.995 0.17457 200.874 -0.179032 198.968 0.078133C196.52 0.408774 194.105 1.73134 192.966 3.92643C191.827 6.12151 192.314 9.17994 194.371 10.5484C191.436 13.9099 190.417 17.6572 190.578 22.1117C190.738 26.5707 195.597 30.6716 198.766 33.8127C199.473 33.3856 200.116 31.3742 199.725 30.644C199.335 29.9139 199.895 29.0689 199.413 28.3938C198.931 27.7234 198.527 28.7934 199.014 28.1229C199.321 27.7004 198.123 26.7315 198.577 26.4789C200.786 25.2574 201.521 22.502 202.908 20.3942C204.584 17.8501 207.445 16.128 210.48 15.8433C212.152 15.6871 213.915 15.9719 215.284 16.9408C216.652 17.9098 217.539 19.6411 217.222 21.2897C218.044 20.4539 218.453 19.2323 218.301 18.0705C218.145 16.9087 217.433 15.8341 216.418 15.2417C217.034 13.2073 216.505 10.8653 215.077 9.29475C213.649 7.71961 207.858 7.99055 205.773 8.40385L205.934 8.12832L205.93 8.12373Z" fill="#2F2E41"/>
<path d="M205.608 15.9028C202.848 16.2013 200.855 18.5939 199.17 20.8027C198.201 22.0748 197.181 23.48 197.209 25.0827C197.232 26.6992 198.316 28.0906 198.835 29.6198C199.68 32.1272 198.857 35.1076 196.846 36.825C198.835 37.2016 200.984 35.7137 201.324 33.7161C201.723 31.397 199.964 29.156 200.171 26.8094C200.355 24.7429 201.985 23.154 203.367 21.6064C204.754 20.0588 206.054 18.0107 205.415 16.036L205.608 15.9028Z" fill="#2F2E41"/>
</g>
<defs>
<clipPath id="clip0_339_2814">
<rect width="336" height="199.776" fill="white"/>
</clipPath>
</defs>
</svg>
