<svg width="113" height="114" viewBox="0 0 113 114" fill="none" xmlns="http://www.w3.org/2000/svg">
<g clip-path="url(#clip0_339_2927)">
<path d="M3.33539e-07 113.792C-8.22575e-05 113.819 0.00533072 113.846 0.0158997 113.872C0.0264687 113.897 0.0419867 113.92 0.061586 113.939C0.0811854 113.958 0.104471 113.974 0.130094 113.984C0.155717 113.995 0.183172 114 0.210889 114H112.789C112.845 114 112.899 113.978 112.938 113.939C112.978 113.9 113 113.847 113 113.792C113 113.737 112.978 113.684 112.938 113.645C112.899 113.606 112.845 113.584 112.789 113.584H0.210889C0.183173 113.584 0.155716 113.589 0.130094 113.6C0.104472 113.61 0.0811841 113.625 0.061586 113.645C0.041988 113.664 0.0264683 113.687 0.0158997 113.712C0.00533105 113.738 -8.13099e-05 113.765 3.33539e-07 113.792Z" fill="#CCCCCC"/>
<path d="M21.3666 5.1506C21.5056 4.38788 21.8495 3.67589 22.3625 3.08885C23.0922 2.27004 23.9783 1.60095 24.9702 1.11978C25.9621 0.638622 27.0405 0.354812 28.1436 0.284559C29.2468 0.214307 30.3532 0.358988 31.3996 0.710341C32.4461 1.06169 33.4121 1.61284 34.2425 2.33231L34.3134 2.39521C35.3046 1.44785 36.5129 0.750088 37.8358 0.361044C39.1587 -0.0280009 40.5572 -0.0968554 41.9128 0.160317C43.2684 0.41749 44.5412 0.99311 45.6232 1.83839C46.7052 2.68367 47.5646 3.77369 48.1285 5.01607C48.6467 6.15297 48.8843 7.39477 48.8217 8.63967C48.7592 9.88458 48.3984 11.0972 47.7688 12.178C47.4864 12.6654 47.1545 13.1232 46.7782 13.5443C46.3901 13.9812 35.9136 25.4728 35.809 25.5881C35.7966 25.6024 35.7811 25.6139 35.7636 25.6217C35.7462 25.6296 35.7272 25.6336 35.708 25.6335C35.7045 25.6335 35.6992 25.6318 35.6939 25.6318C35.6865 25.6317 35.6792 25.6299 35.6726 25.6265C35.638 25.6183 35.6081 25.5969 35.5893 25.5671L35.5344 25.478L35.4688 25.3679L34.4995 23.7709C31.8112 19.3417 28.1873 15.1623 23.727 11.3498C23.4398 11.1039 23.1737 10.8351 22.9314 10.5461C21.977 9.42111 21.4011 8.03138 21.2833 6.56936C21.2496 6.09487 21.2776 5.61808 21.3666 5.1506Z" fill="#FFA239"/>
<path d="M69.4318 94.9862L67.4588 88.6506C69.8327 86.0745 72.8086 84.1086 76.1279 82.9238C72.8849 88.2212 76.0274 95.1318 74.7179 101.183C74.2948 103.068 73.4471 104.834 72.2375 106.351C71.028 107.869 69.4877 109.098 67.7307 109.949L64.7366 113.607C63.1669 110.903 62.2105 107.895 61.9331 104.792C61.6557 101.688 62.064 98.5624 63.1299 95.6295C63.7444 93.99 64.5658 92.4333 65.5748 90.9962C67.354 93.0585 69.4318 94.9862 69.4318 94.9862Z" fill="#F2F2F2"/>
<path d="M80.2807 95.7957L81.3805 89.2574C84.6705 87.9956 88.2232 87.5447 91.7301 87.9438C86.4313 91.2592 86.1182 98.8263 82.2089 103.667C80.978 105.167 79.4203 106.375 77.6514 107.202C75.8824 108.028 73.9476 108.451 71.9903 108.44L67.656 110.397C67.4741 107.287 67.9783 104.174 69.1338 101.275C70.2893 98.375 72.0687 95.7567 74.3493 93.6003C75.6408 92.4031 77.0802 91.371 78.6333 90.5284C79.2929 93.1567 80.2807 95.7957 80.2807 95.7957Z" fill="#F2F2F2"/>
<path d="M58.6203 52.92L59.165 54.1693L58.2747 58.6065L49.192 57.3613L49.2644 51.9508L49.4468 50.7656L58.6203 52.92Z" fill="#FFB6B6"/>
<path d="M63.3129 110.426H61.3091L60.3555 102.806H63.3129V110.426Z" fill="#FFB6B6"/>
<path d="M57.7221 112.31L60.7647 110.238V108.884L61.1185 108.906L63.313 109.035L63.9661 109.073L64.3701 113.85H62.9331L62.6779 112.512L62.0208 113.85H58.2085C58.0259 113.85 57.8481 113.792 57.7011 113.685C57.554 113.579 57.4454 113.428 57.3911 113.256C57.3368 113.084 57.3397 112.9 57.3992 112.73C57.4587 112.56 57.5719 112.413 57.7221 112.31Z" fill="#2F2E41"/>
<path d="M52.057 110.426H50.0532L48.8744 99.2068L52.6397 98.9849L52.057 110.426Z" fill="#FFB6B6"/>
<path d="M46.4662 112.31L49.5088 110.238V108.884L49.8946 108.906L52.1274 109.039L52.7101 109.073L53.1141 113.85H51.6772L51.422 112.512L50.7648 113.85H46.9525C46.7699 113.85 46.5921 113.792 46.4451 113.685C46.2981 113.579 46.1895 113.428 46.1352 113.256C46.0809 113.084 46.0837 112.9 46.1432 112.73C46.2028 112.56 46.3159 112.413 46.4662 112.31Z" fill="#2F2E41"/>
<path d="M64.1635 103.855H64.1558L63.7704 91.4635C64.0198 90.9892 64.1463 90.4614 64.1388 89.9272C64.1313 89.393 63.9899 88.8689 63.7273 88.4016L63.6721 88.3031L63.8151 87.6493C63.9989 86.8092 63.9146 85.9337 63.5738 85.1428L63.2142 73.5841C64.4987 65.3766 58.3775 60.024 58.3775 60.024L58.9401 55.7222L49.0394 55.944L49.2078 60.024L47.2392 66.6929C46.2032 76.6451 46.1416 86.395 47.2014 95.9122C47.2036 95.9395 47.1994 95.967 47.1893 95.9925C47.0817 96.3149 47.0439 96.656 47.0782 96.9937C47.1124 97.3314 47.2181 97.6583 47.3883 97.9532C47.4324 98.0285 47.4628 98.1109 47.478 98.1965C47.6963 99.865 47.7247 97.7545 48.0141 99.4082L47.9578 99.4362C47.7551 99.5052 47.6681 99.7821 47.7635 100.055C47.8589 100.327 48.1006 100.492 48.3034 100.423L53.596 100.479C53.7987 100.41 53.8857 100.133 53.7903 99.8607C53.6949 99.5881 53.4532 99.423 53.2504 99.492L52.9212 99.6562L53.4721 97.8791L53.6651 97.7014C53.7577 97.6162 53.8295 97.5115 53.8751 97.3952C53.9208 97.2788 53.9392 97.1537 53.929 97.0293C53.9187 96.9049 53.88 96.7845 53.8159 96.6769C53.7517 96.5693 53.6637 96.4775 53.5584 96.4082L53.3984 91.249L53.3204 89.065L53.481 86.5872L54.2233 75.4424L57.0329 89.1474L59.9029 103.993C59.8359 104.052 59.7856 104.128 59.7568 104.212C59.728 104.296 59.7216 104.386 59.7382 104.474C59.7647 104.596 59.8333 104.705 59.9324 104.782C60.0315 104.86 60.155 104.901 60.2815 104.899H64.1775C64.2592 104.899 64.3398 104.88 64.413 104.844C64.4861 104.809 64.5499 104.757 64.5994 104.693C64.6488 104.628 64.6826 104.554 64.6981 104.475C64.7136 104.396 64.7103 104.314 64.6886 104.237C64.6557 104.125 64.5865 104.027 64.4916 103.958C64.3967 103.889 64.2814 103.853 64.1635 103.855Z" fill="#2F2E41"/>
<path d="M60.6989 31.8348C60.6991 32.626 60.5025 33.4051 60.1261 34.1038C59.7497 34.8025 59.2051 35.3994 58.5402 35.8421C57.8752 36.2848 57.1102 36.5598 56.3122 36.643C55.5143 36.7262 54.7079 36.6149 53.9637 36.319C53.2196 36.0232 52.5605 35.5517 52.0443 34.946C51.5281 34.3404 51.1705 33.619 51.0031 32.8453C50.8356 32.0716 50.8634 31.2692 51.0839 30.5085C51.3044 29.7478 51.7109 29.0522 52.2677 28.4826L52.2912 28.4594C52.3304 28.4188 52.3696 28.3782 52.4108 28.3395L52.4116 28.3394L52.4122 28.3389L52.4126 28.3383L52.4128 28.3376C52.469 28.2971 52.5209 28.2511 52.5677 28.2003C53.2294 27.2886 53.9797 26.5241 55.797 27.0017C58.4134 27.6893 60.6989 29.165 60.6989 31.8348Z" fill="#2F2E41"/>
<path d="M33.772 29.7659C33.7609 30.0245 33.8074 30.2824 33.9083 30.5213C34.0092 30.7602 34.162 30.9745 34.3559 31.1489C34.5499 31.3233 34.7802 31.4537 35.0308 31.5308C35.2814 31.6079 35.546 31.63 35.8062 31.5953L48.4477 41.8248L50.3787 38.4785L37.3452 29.4755C37.2573 29.0484 37.0135 28.6681 36.6601 28.4064C36.3067 28.1448 35.8682 28.02 35.4278 28.0558C34.9873 28.0916 34.5755 28.2855 34.2703 28.6007C33.9652 28.9159 33.7879 29.3305 33.772 29.7659Z" fill="#FFB6B6"/>
<path d="M53.7856 44.8418C53.7856 44.8418 53.3738 45.6843 51.7721 44.4875C50.4898 43.5294 44.3682 39.3958 43.0084 37.6484C42.7231 37.7755 42.403 37.8054 42.0985 37.7334C41.7941 37.6614 41.5226 37.4916 41.3268 37.2507L44.6713 34.0757C45.7208 34.1456 45.7316 34.838 45.6417 35.2356L48.3296 36.2887L55.3304 40.2545L54.0942 44.238L53.7856 44.8418Z" fill="#E6E6E6"/>
<path d="M54.5894 37.006C52.3192 37.006 50.479 35.1915 50.479 32.9532C50.479 30.7149 52.3192 28.9004 54.5894 28.9004C56.8595 28.9004 58.6998 30.7149 58.6998 32.9532C58.6998 35.1915 56.8595 37.006 54.5894 37.006Z" fill="#FFB7B7"/>
<path d="M48.9822 53.056L48.94 50.7951C48.7732 50.5692 47.3745 48.5977 47.688 46.6281C47.8347 45.7007 48.3452 44.922 49.2013 44.3157L49.7539 43.0475L50.5719 41.1731L52.9654 39.7682L53.297 39.1024L53.5703 38.5496L56.8721 38.2246L57.686 39.3045L57.7021 39.3065C58.45 39.4741 59.1525 39.7985 59.762 40.2576C60.4311 40.7581 60.9734 41.4047 61.3465 42.1466C61.7196 42.8885 61.9132 43.7056 61.9123 44.5336L61.8922 47.1611L61.8882 47.5376L61.8862 47.9022L59.8263 53.3691L59.7479 53.5811L58.94 55.723L59.0787 55.9489C59.228 56.1947 59.2831 56.4851 59.2341 56.7675C59.1851 57.0499 59.0351 57.3057 58.8114 57.4886L58.7149 58.828L58.5401 58.7805L57.5453 58.507L50.0212 56.4364C49.7379 56.3584 49.4877 56.1923 49.3078 55.9628C49.3013 55.9545 49.2953 55.9459 49.2897 55.937C49.2599 55.9006 49.2337 55.8614 49.2113 55.8201C49.0405 55.3941 49.0224 55.2792 49.0204 55.1603C48.7707 54.8797 48.6263 54.523 48.6117 54.1499C48.5971 53.7769 48.713 53.4102 48.94 53.1115L48.9822 53.056Z" fill="#E6E6E6"/>
<path d="M58.8911 34.0156C58.8538 34.0098 58.8166 34.0021 58.7793 33.9963C58.1382 33.8841 57.497 33.7739 56.8578 33.6599L56.799 32.2312L56.0245 33.511C54.2579 34.089 52.605 33.7623 51.0501 33.0412C50.5372 32.8012 50.0396 32.5307 49.5599 32.2312C49.402 29.815 50.3927 28.2682 52.2363 28.4304C52.3037 28.4363 52.352 28.3686 52.4109 28.3395L52.4116 28.3394L52.4122 28.339L52.4127 28.3383L52.4128 28.3376C52.5128 28.2912 52.6148 28.2467 52.7167 28.2061C53.515 27.8986 54.3853 27.8207 55.2267 27.9815C56.068 28.1424 56.8458 28.5353 57.4695 29.1148C58.7244 30.296 59.2891 32.2467 58.8911 34.0156Z" fill="#2F2E41"/>
<path d="M56.213 27.1187C56.254 27.2583 56.3353 27.3832 56.447 27.4782C56.5587 27.5731 56.6959 27.6341 56.842 27.6537C57.3946 28.3274 58.0277 29.0407 58.8938 29.1755C59.1414 29.2273 59.3997 29.1833 59.6153 29.0526C59.6416 29.0363 59.6659 29.017 59.6876 28.9952C59.8926 28.803 59.9087 28.4166 59.6655 28.2719C60.7548 28.698 61.3918 29.8571 61.5526 31.0004C61.7134 32.1437 61.4903 33.2989 61.3436 34.4442C61.1969 35.5895 61.1326 36.7923 61.5887 37.8563C62.1273 39.1106 63.3653 40.0122 64.7158 40.2995C64.8363 40.3253 64.9569 40.3471 65.0795 40.3609C65.161 39.817 65.3657 39.2983 65.6784 38.8431C65.5957 39.3699 65.6446 39.9086 65.8211 40.4124C66.8366 40.3986 67.8339 40.1444 68.729 39.6714C69.9529 39.0353 70.9718 38.0644 71.8058 36.9766C70.3689 37.9812 68.3834 38.3577 66.8199 37.5631C65.4211 36.8497 64.5952 35.3517 64.2334 33.8419C63.8717 32.33 65.3921 30.4777 65.2273 28.9341C65.0605 27.3905 63.1724 26.0804 62.1394 24.9094C61.4802 24.1623 60.5076 23.6095 59.5047 23.7026C59.1661 23.7344 58.8384 23.8379 58.5439 24.0058C58.2494 24.1738 57.9951 24.4023 57.7983 24.6759C57.6015 24.9495 57.4668 25.2618 57.4033 25.5913C57.3399 25.9209 57.3493 26.26 57.4308 26.5857C57.1454 26.1874 56.4079 26.2746 56.225 26.7284C56.1759 26.8533 56.1717 26.991 56.213 27.1187Z" fill="#2F2E41"/>
<path d="M58.7793 33.9966C58.7793 33.9966 57.5617 29.5153 52.3422 28.481C52.3363 28.4791 52.3167 28.4714 52.2912 28.4598C52.2755 28.4501 52.2559 28.4404 52.2363 28.4308C52.2951 28.3979 52.352 28.3689 52.4108 28.3399L52.4116 28.3398L52.4122 28.3393L52.4126 28.3387L52.4128 28.338C52.4637 28.2916 52.5147 28.2452 52.5677 28.2007L52.7167 28.2065C52.7167 28.2065 57.9538 27.3887 58.7793 33.9966Z" fill="#FD6584"/>
<path d="M45.6801 55.3518C45.7267 55.2352 45.805 55.1334 45.9064 55.0577C46.0078 54.982 46.1283 54.9353 46.2548 54.9226C46.5084 54.9009 46.7636 54.9373 47.0005 55.029C47.9302 55.3344 48.7649 55.8695 49.4252 56.5833L49.414 57.0369C49.724 57.4269 49.8895 57.9096 49.8829 58.4051C49.8764 58.9005 49.6981 59.3788 49.3779 59.7607C49.197 59.9804 48.9501 60.1379 48.6728 60.2107C48.5342 60.2448 48.3888 60.2413 48.252 60.2006C48.1152 60.16 47.9921 60.0836 47.8957 59.9797C47.6179 59.6461 47.7521 59.1434 47.9564 58.7616C48.3129 58.0974 48.8347 57.5333 49.4727 57.1223C48.4073 57.0955 47.3607 56.839 46.4066 56.3708C46.1952 56.2797 46.0044 56.1477 45.8455 55.9827C45.767 55.8993 45.7108 55.798 45.6819 55.6878C45.653 55.5777 45.6524 55.4622 45.6801 55.3518Z" fill="#2F2E41"/>
<path d="M26.5754 82.0417L28.5645 82.1193C29.0619 83.026 29.3272 84.0387 29.3375 85.0695C28.1541 83.6565 25.8874 83.8447 24.3008 82.8905C23.8082 82.5892 23.3908 82.1824 23.0793 81.7004C22.7679 81.2184 22.5704 80.6734 22.5016 80.1059L21.7585 78.9223C22.6788 78.7549 23.6249 78.7863 24.5317 79.0142C25.4384 79.242 26.2843 79.6611 27.011 80.2423C27.4154 80.5724 27.7761 80.9513 28.0845 81.3702C27.3255 81.6583 26.5754 82.0417 26.5754 82.0417Z" fill="#F2F2F2"/>
<path d="M36.4991 103.358L38.4882 103.436C38.9855 104.342 39.2508 105.355 39.2612 106.386C38.0778 104.973 35.8111 105.161 34.2244 104.207C33.7319 103.906 33.3144 103.499 33.003 103.017C32.6915 102.535 32.4941 101.99 32.4253 101.422L31.6822 100.239C32.6024 100.071 33.5485 100.103 34.4553 100.331C35.3621 100.558 36.208 100.977 36.9347 101.559C37.3391 101.889 37.6997 102.268 38.0081 102.687C37.2491 102.975 36.4991 103.358 36.4991 103.358Z" fill="#F2F2F2"/>
<path d="M83.3773 73.1769L85.0632 72.1333C85.993 72.6046 86.792 73.2926 87.3909 74.1375C85.605 73.6304 83.8422 75.0479 81.9863 75.144C81.4072 75.1696 80.8297 75.0664 80.2966 74.842C79.7634 74.6176 79.2883 74.2778 78.9065 73.8478L77.6153 73.2848C78.2789 72.6343 79.0776 72.1333 79.9565 71.8165C80.8353 71.4996 81.7734 71.3743 82.7061 71.4494C83.2289 71.4965 83.7435 71.6085 84.238 71.7825C83.7766 72.4428 83.3773 73.1769 83.3773 73.1769Z" fill="#F2F2F2"/>
<path d="M33.6998 27.6602C33.7395 27.3975 33.4505 27.2104 33.3424 26.9672C33.2729 26.7501 33.273 26.5173 33.3425 26.3003C33.4048 26.0054 33.4768 25.6927 33.6932 25.4803C33.9145 25.2969 34.187 25.1843 34.4747 25.1573C35.1739 25.0369 35.8879 25.0244 36.5911 25.1203L36.0577 25.1523C36.3936 25.1312 36.7306 25.1698 37.0526 25.2662C37.2132 25.3162 37.3585 25.4051 37.4751 25.5249C37.5917 25.6446 37.676 25.7914 37.7201 25.9516C37.7861 26.2762 37.561 26.6564 37.2264 26.6842C37.3935 26.6507 37.5672 26.6837 37.7097 26.7761C37.8522 26.8684 37.9518 27.0126 37.9867 27.1772C38.0217 27.3417 37.9892 27.5132 37.8963 27.6542C37.8034 27.7952 37.6577 27.8942 37.491 27.9296C37.568 28.1348 37.797 28.233 37.9931 28.3353C38.1891 28.4377 38.3954 28.6132 38.3623 28.8294C38.3186 29.1154 37.931 29.1742 37.6379 29.1616L34.4477 29.0243C34.173 29.034 33.9 28.9781 33.6519 28.8614C33.4154 28.7254 33.2505 28.4273 33.3597 28.1798C33.4441 27.9886 33.6686 27.8664 33.6998 27.6602Z" fill="#3F3D56"/>
<path d="M70.6992 55.6756C71.1376 57.5748 71.346 59.7279 70.1766 61.4275C69.6796 62.1566 68.9501 62.7015 68.1037 62.9759C67.2469 63.2263 66.3435 63.281 65.4621 63.1358C63.4676 62.8634 61.6949 61.839 59.7333 61.4413C58.8677 61.2658 57.949 61.2078 57.1157 61.5456C56.4913 61.7987 55.8336 62.3075 55.8306 63.0333C55.8276 63.7786 56.4841 64.2733 57.1371 64.5025C58.0083 64.8083 58.9138 64.6899 59.8175 64.6514C60.7908 64.6099 61.7833 64.6966 62.5918 65.2844C63.2873 65.8196 63.8206 66.5325 64.1338 67.3456C64.5402 68.3182 64.7052 69.3638 64.965 70.3784C65.1973 71.2907 65.5259 72.1765 65.9454 73.0213C66.7685 74.677 67.9224 76.1517 69.3378 77.357C70.0359 77.9493 70.8841 78.5528 71.8375 78.6071C72.5728 78.6489 73.4667 78.3443 73.7501 77.6099C73.8554 77.2928 73.8451 76.9495 73.7209 76.6391C73.5968 76.3288 73.3667 76.0709 73.0702 75.91C72.44 75.5964 71.7537 76.0437 71.5502 76.6576C71.4968 76.7991 71.4782 76.9511 71.4957 77.1011C71.5133 77.2511 71.5666 77.3948 71.6513 77.5206C71.8424 77.8015 71.3821 78.0642 71.1923 77.7852C70.7516 77.1373 70.9819 76.2659 71.5217 75.7469C71.785 75.4822 72.1369 75.321 72.5119 75.2935C72.8869 75.2659 73.2592 75.3739 73.5594 75.5971C73.8712 75.8313 74.107 76.1501 74.2378 76.5144C74.3685 76.8788 74.3885 77.2729 74.2953 77.6483C74.0686 78.4549 73.2648 78.968 72.462 79.0951C71.4707 79.2521 70.5167 78.8679 69.7165 78.313C68.9136 77.7416 68.1836 77.0767 67.5423 76.3328C66.2385 74.8544 65.2583 73.1265 64.6633 71.2573C64.0781 69.4085 64.0356 66.9662 62.2968 65.7176C61.4022 65.0751 60.3059 65.1464 59.2569 65.2053C58.3309 65.2574 57.4275 65.2479 56.578 64.8346C55.8766 64.4933 55.3106 63.8633 55.2989 63.0607C55.2871 62.2505 55.8705 61.599 56.558 61.2299C58.374 60.2547 60.5547 61.0412 62.3388 61.6927C64.1329 62.3478 66.1813 63.1168 68.088 62.4273C68.968 62.0902 69.6765 61.4227 70.0582 60.5713C70.5199 59.6059 70.5856 58.5105 70.4789 57.4627C70.416 56.9081 70.3184 56.3577 70.1866 55.8149C70.1108 55.4865 70.6232 55.3463 70.6992 55.6756Z" fill="#3F3D56"/>
<path d="M61.8946 66.2445C62.0579 66.0418 62.1741 65.8063 62.2351 65.5546C62.296 65.3029 62.3003 65.041 62.2475 64.7875C62.1948 64.5339 62.0863 64.2949 61.9297 64.0872C61.7731 63.8795 61.5722 63.7081 61.3412 63.5852L64.0434 55.6974L61.8369 47.3384L58.2788 48.9244L60.4744 55.2294L58.8318 64.4067C58.6481 64.8031 58.6183 65.2521 58.748 65.6687C58.8776 66.0852 59.1578 66.4404 59.5353 66.667C59.9128 66.8935 60.3615 66.9756 60.7964 66.8977C61.2312 66.8199 61.622 66.5875 61.8946 66.2445Z" fill="#FFB6B6"/>
<path d="M58.6377 40.451C58.6377 40.451 59.4734 40.0086 60.0546 41.9054C60.5198 43.424 63.6863 51.6691 63.7434 53.8708C64.0499 53.9335 64.3266 54.095 64.5299 54.3298C64.7331 54.5646 64.8513 54.8595 64.8659 55.1678L60.267 55.7953C59.46 55.1301 59.8644 54.5639 60.1744 54.2945L58.608 51.6785L55.3341 44.6161L58.0278 40.7603L58.6377 40.451Z" fill="#E6E6E6"/>
<path d="M67.4406 50.3481C67.9663 52.0787 68.7589 53.7193 69.7904 55.2124C70.0456 55.5794 70.3138 55.937 70.5949 56.2852C70.8135 55.8936 71.0782 55.5288 71.3835 55.1985C72.4556 54.0365 73.8928 53.2765 75.2874 52.5147C76.682 51.7529 78.0979 50.9352 79.0832 49.6999C79.5253 49.1438 79.8419 48.5011 80.0117 47.8146C80.235 46.8833 80.15 45.9119 79.5989 45.1343C78.7979 44.0039 77.2012 43.6055 75.8438 43.9322C74.4846 44.259 73.347 45.1903 72.4645 46.2596C72.7533 44.9456 71.3481 43.6771 69.9889 43.7925C68.6297 43.9095 67.5399 45.0802 67.1784 46.3766C66.8151 47.6713 67.0508 49.0586 67.4406 50.3481Z" fill="#FFA239"/>
<path d="M41.1668 2.27737C41.887 2.39331 42.5758 2.65233 43.1913 3.03869C43.8069 3.42505 44.3365 3.93071 44.7478 4.52497C45.1648 5.13854 45.4426 5.83357 45.5623 6.56265C45.6819 7.29173 45.6407 8.03768 45.4413 8.7496C45.2174 9.57511 44.792 10.3341 44.2023 10.9603C43.9687 11.2077 43.5934 10.8364 43.8264 10.5896C44.2908 10.0872 44.6418 9.49331 44.8563 8.84723C45.0708 8.20114 45.1438 7.51755 45.0705 6.8416C44.9916 6.19196 44.7734 5.56632 44.4303 5.00627C44.0872 4.44622 43.6272 3.96459 43.0807 3.59339C42.4684 3.17019 41.7649 2.89274 41.0255 2.78282C40.6883 2.73277 40.8316 2.22761 41.1668 2.27737Z" fill="#3F3D56"/>
<g opacity="0.2">
<path d="M22.9313 10.5458C23.1737 10.8348 23.4398 11.1037 23.727 11.3495C28.1873 15.162 31.8112 19.3414 34.4995 23.7707L35.4688 25.3677L35.5344 25.4777C35.7628 25.3081 35.962 25.1034 36.1245 24.8714C36.7447 23.9821 36.7482 22.8132 36.5958 21.7439C36.1349 18.5377 34.4806 15.6153 31.9548 13.5454C29.4291 11.4755 26.2126 10.4063 22.9313 10.5458Z" fill="black"/>
</g>
<g opacity="0.2">
<path d="M69.7904 55.2123C70.0456 55.5792 70.3137 55.9368 70.5949 56.2851C70.8135 55.8935 71.0782 55.5287 71.3835 55.1983C72.4556 54.0364 73.8927 53.2763 75.2874 52.5145C76.682 51.7527 78.0979 50.935 79.0832 49.6997C79.5253 49.1437 79.8419 48.5009 80.0117 47.8145C76.8766 48.243 73.9958 49.7498 71.8779 52.069C71.03 53.0105 70.3266 54.0695 69.7904 55.2123Z" fill="black"/>
</g>
<path d="M35.8108 25.4393C35.4193 25.4393 35.102 25.1264 35.102 24.7404C35.102 24.3544 35.4193 24.0415 35.8108 24.0415C36.2023 24.0415 36.5197 24.3544 36.5197 24.7404C36.5197 25.1264 36.2023 25.4393 35.8108 25.4393Z" fill="#3F3D56"/>
</g>
<defs>
<clipPath id="clip0_339_2927">
<rect width="113" height="114" fill="white" transform="matrix(-1 0 0 1 113 0)"/>
</clipPath>
</defs>
</svg>
