<svg width="297" height="212" viewBox="0 0 297 212" fill="none" xmlns="http://www.w3.org/2000/svg">
<g clip-path="url(#clip0_339_2993)">
<path d="M240.358 134.895C240.624 134.919 240.89 134.862 241.122 134.73C241.354 134.599 241.539 134.4 241.653 134.16C241.767 133.92 241.805 133.651 241.76 133.389C241.716 133.127 241.592 132.885 241.404 132.696C241.378 132.565 241.359 132.471 241.332 132.339C241.345 132.312 241.358 132.284 241.371 132.256C241.669 131.638 242.143 131.122 242.734 130.771C243.326 130.42 244.008 130.252 244.696 130.286C245.383 130.321 246.045 130.557 246.598 130.964C247.151 131.372 247.571 131.934 247.805 132.579C248.739 135.152 249.961 137.743 250.166 140.428C250.257 141.614 250.139 142.808 249.82 143.954C252.543 138.698 254.099 132.921 254.384 127.013C254.454 125.531 254.44 124.046 254.343 122.565C254.263 121.35 254.129 120.142 253.942 118.941C252.919 112.419 250.358 106.232 246.468 100.888C244.519 99.7087 242.981 97.963 242.059 95.8861C241.725 95.1393 241.501 94.3483 241.394 93.5377C241.618 93.5776 241.847 93.6067 242.072 93.6318C242.142 93.6388 242.215 93.6459 242.286 93.6529L242.312 93.6553C242.559 93.6778 242.808 93.6287 243.028 93.5138C243.248 93.3989 243.43 93.2232 243.552 93.0077C243.674 92.7922 243.731 92.5462 243.716 92.2993C243.7 92.0523 243.614 91.815 243.467 91.6159C243.375 91.492 243.283 91.3682 243.191 91.2445C243.052 91.0535 242.909 90.866 242.769 90.6751C242.753 90.6568 242.738 90.6376 242.724 90.6176C242.564 90.3998 242.403 90.1857 242.243 89.9679C242.576 89.5024 243.012 89.1198 243.518 88.8498C245.269 87.9346 247.588 88.7323 248.747 90.3249C249.911 91.9176 250.043 94.0827 249.524 95.9812C249.026 97.5941 248.256 99.1109 247.247 100.466C247.334 100.589 247.425 100.707 247.512 100.829C249.1 103.072 250.464 105.463 251.584 107.971C251.412 105.212 251.9 102.452 253.008 99.918C254.122 97.56 256.092 95.622 257.841 93.62C259.942 91.2153 263.959 92.4936 264.161 95.6747C264.163 95.7055 264.165 95.7363 264.166 95.7671C263.915 95.8936 263.668 96.0287 263.425 96.1726C263.121 96.3554 262.879 96.6254 262.731 96.9474C262.584 97.2694 262.537 97.6283 262.598 97.9771C262.659 98.3258 262.824 98.6482 263.071 98.902C263.319 99.1558 263.638 99.3291 263.986 99.3992L264.022 99.4064C263.894 100.283 263.698 101.149 263.438 101.996C262.688 104.36 261.456 106.544 259.818 108.411C258.181 110.278 256.174 111.788 253.923 112.847C253.776 112.914 253.632 112.981 253.484 113.044C254.561 116.603 255.168 120.285 255.292 124C255.357 126.191 255.245 128.384 254.955 130.557L254.97 130.48C255.557 128.076 256.959 125.947 258.939 124.453C261.878 122.268 265.917 121.601 269.059 119.881C269.393 119.688 269.776 119.595 270.161 119.612C270.547 119.629 270.92 119.755 271.236 119.976C271.552 120.197 271.798 120.504 271.945 120.859C272.091 121.215 272.133 121.605 272.065 121.984C272.059 122.011 272.054 122.038 272.048 122.064C271.584 122.228 271.131 122.42 270.691 122.64C270.439 122.766 270.192 122.902 269.95 123.045C269.646 123.228 269.404 123.498 269.256 123.82C269.109 124.142 269.062 124.501 269.123 124.85C269.184 125.199 269.349 125.521 269.596 125.775C269.844 126.029 270.163 126.202 270.511 126.272L270.547 126.279C270.573 126.284 270.595 126.289 270.62 126.294C269.756 128.108 268.585 129.76 267.158 131.178C265.396 132.893 263.302 134.231 261.003 135.112C258.703 135.992 256.248 136.395 253.787 136.296L253.783 136.296C252.98 139.156 251.881 141.925 250.503 144.558L240.188 144.08C240.156 143.964 240.128 143.844 240.1 143.729C241.052 143.833 242.014 143.82 242.963 143.692C242.241 142.721 241.52 141.743 240.798 140.772C240.782 140.754 240.767 140.735 240.753 140.715C240.387 140.218 240.017 139.725 239.651 139.228L239.651 139.227C239.699 137.759 239.937 136.303 240.358 134.895L240.358 134.895Z" fill="#F2F2F2"/>
<path d="M32.5159 46.0557C32.2524 46.0965 31.9827 46.0557 31.7433 45.9387C31.504 45.8218 31.3065 45.6343 31.1776 45.4018C31.0487 45.1693 30.9947 44.903 31.0229 44.6389C31.0511 44.3748 31.1602 44.1258 31.3352 43.9255C31.3537 43.7929 31.367 43.6977 31.3855 43.5651C31.3708 43.5383 31.356 43.5115 31.3411 43.4847C31.0058 42.8861 30.5004 42.3994 29.8883 42.086C29.2762 41.7725 28.5847 41.6461 27.9007 41.7228C27.2168 41.7994 26.5708 42.0757 26.044 42.5168C25.5171 42.9579 25.1329 43.5443 24.9396 44.2022C24.1666 46.8282 23.1079 49.4894 23.0696 52.1816C23.0533 53.3715 23.2443 54.5552 23.6342 55.6801C20.5903 50.6019 18.6784 44.9311 18.0281 39.0524C17.8665 37.577 17.7878 36.0938 17.7924 34.6097C17.7972 33.3929 17.8558 32.179 17.968 30.9679C18.5844 24.3958 20.7573 18.063 24.3083 12.4897C26.1799 11.1929 27.6074 9.35588 28.3985 7.22615C28.6857 6.46028 28.86 5.65704 28.9162 4.84141C28.6949 4.89504 28.4688 4.93807 28.2459 4.97703C28.1764 4.98825 28.1032 4.9999 28.0337 5.01115L28.0075 5.01519C27.762 5.05294 27.5108 5.01921 27.2841 4.91808C27.0575 4.81694 26.865 4.65271 26.7298 4.44514C26.5947 4.23758 26.5227 3.99553 26.5224 3.74815C26.5222 3.50076 26.5938 3.25859 26.7285 3.05078C26.8125 2.9215 26.8965 2.79227 26.9805 2.66309C27.1077 2.4639 27.239 2.26798 27.3661 2.06882C27.3812 2.04958 27.3952 2.02948 27.408 2.00864C27.5545 1.78141 27.7013 1.55786 27.8477 1.33063C27.4866 0.886501 27.0274 0.531452 26.5058 0.293163C24.7015 -0.512544 22.4361 0.426259 21.3777 2.08718C20.3156 3.74847 20.318 5.91748 20.9533 7.78054C21.5504 9.35971 22.4131 10.8261 23.5044 12.117C23.4252 12.2442 23.3419 12.3682 23.2627 12.4955C21.8163 14.8312 20.6033 17.3025 19.6409 19.8739C19.6414 17.1099 18.983 14.3853 17.72 11.9242C16.4627 9.63919 14.3759 7.82613 12.5061 5.93558C10.2602 3.66473 6.32964 5.18777 6.32575 8.37525C6.32572 8.40612 6.32576 8.43696 6.32588 8.46778C6.58503 8.57853 6.83995 8.69826 7.09063 8.82697C7.40576 8.99063 7.66391 9.24529 7.83124 9.55758C7.99857 9.86986 8.06728 10.2252 8.02838 10.577C7.98947 10.9289 7.84477 11.2608 7.61321 11.5294C7.38166 11.7979 7.07406 11.9905 6.73072 12.0819L6.69556 12.0913C6.87826 12.9583 7.12687 13.8103 7.43925 14.6398C8.33454 16.9529 9.69999 19.057 11.45 20.8199C13.2 22.5829 15.2968 23.9667 17.6089 24.8848C17.7604 24.9425 17.9083 25.0007 18.0594 25.0547C17.2055 28.6726 16.8275 32.3856 16.935 36.1005C17.0055 38.2914 17.2537 40.4731 17.6773 42.6242L17.6578 42.5484C16.9231 40.185 15.392 38.1466 13.3231 36.7773C10.2539 34.7774 6.18063 34.3598 2.93873 32.8362C2.59314 32.6646 2.20549 32.5951 1.82151 32.6357C1.43753 32.6764 1.07323 32.8256 0.771581 33.0657C0.46993 33.3058 0.243507 33.6268 0.119021 33.9908C-0.00546506 34.3549 -0.0228251 34.7468 0.0689907 35.1203C0.076009 35.1469 0.0831007 35.1734 0.0902606 35.1999C0.563439 35.3346 1.02773 35.4985 1.48044 35.6908C1.73959 35.8015 1.99451 35.9213 2.24518 36.0499C2.56031 36.2136 2.81846 36.4683 2.98579 36.7806C3.15312 37.0928 3.22183 37.4482 3.18293 37.8C3.14402 38.1519 2.99932 38.4838 2.76776 38.7524C2.53621 39.0209 2.22861 39.2135 1.88527 39.305L1.85008 39.3143C1.82473 39.3207 1.80305 39.3268 1.77774 39.3333C2.753 41.0905 4.02467 42.6674 5.53707 43.995C7.40139 45.5983 9.57487 46.8054 11.9243 47.5424C14.2736 48.2794 16.7494 48.5307 19.1998 48.2809L19.2034 48.2805C20.1823 51.0853 21.4512 53.7812 22.9897 56.3247L33.2556 55.2126C33.28 55.095 33.3003 54.9741 33.321 54.8569C32.3773 55.0194 31.4172 55.0661 30.462 54.9961C31.122 53.9828 31.7812 52.9621 32.4412 51.9487C32.4563 51.9295 32.4703 51.9094 32.4831 51.8886C32.8174 51.3703 33.1558 50.8553 33.4901 50.3371L33.4902 50.3365C33.3514 48.8739 33.024 47.4352 32.5162 46.0559L32.5159 46.0557Z" fill="#F2F2F2"/>
<path d="M174.348 42.2665C174.856 42.4057 175.328 42.6542 175.729 42.9945C176.13 43.3348 176.452 43.7585 176.671 44.2359C176.89 44.7133 177.001 45.2327 176.997 45.7576C176.992 46.2825 176.872 46.8 176.646 47.2738L182.155 53.3739L179.249 57.6123L171.591 48.889C170.817 48.4566 170.229 47.7566 169.939 46.9215C169.649 46.0864 169.676 45.1743 170.016 44.358C170.356 43.5417 170.985 42.8779 171.783 42.4924C172.582 42.1069 173.494 42.0265 174.348 42.2665Z" fill="#A0616A"/>
<path d="M225.922 57.2453C225.426 56.4402 224.774 55.7407 224.006 55.1869C223.237 54.633 222.366 54.2358 221.443 54.0179C220.52 53.8 219.562 53.7658 218.626 53.9172C217.69 54.0686 216.792 54.4026 215.986 54.9001L197.868 66.076L178.325 49.5303L173.462 54.0392L195.052 81.938L223.113 67.3686C222.458 67.7086 226.713 58.528 225.922 57.2453Z" fill="#CCCCCC"/>
<path d="M190.031 94.4057C190.032 103.318 188.271 112.143 184.848 120.376C181.424 128.61 176.406 136.092 170.078 142.393C163.751 148.695 156.24 153.694 147.972 157.103C139.705 160.513 130.844 162.267 121.896 162.265C84.2674 162.265 53.7622 131.883 53.7622 94.4057C53.7557 87.1158 54.929 79.8726 57.237 72.9546C61.7684 59.4439 70.4494 47.6937 82.0527 39.3657C93.6559 31.0377 107.594 26.5532 121.896 26.5464C134.231 26.5421 146.336 29.874 156.917 36.1864C167.499 42.4988 176.162 51.5547 181.979 62.3874C183.422 65.0601 184.68 67.8273 185.746 70.67C185.893 71.0658 186.037 71.4617 186.177 71.8613V71.8651C186.802 73.6218 187.352 75.4113 187.828 77.2335C189.295 82.8404 190.035 88.6114 190.031 94.4057Z" fill="#3F3D56"/>
<path d="M114.442 48.6217C111.38 46.9725 107.98 46.0416 104.502 45.8999C101.024 45.7582 97.5596 46.4094 94.3727 47.8039C91.5666 49.0201 88.612 51.202 87.6759 55.142C91.4618 52.9167 96.3626 56.4326 97.3369 62.073L97.1094 62.1354C96.5949 66.0422 97.7436 70.2955 99.9674 72.718C100.259 70.2018 101.921 68.4892 103.554 67.4195C105.188 66.3497 106.996 65.5726 108.243 63.7338C109.722 61.5539 110.097 58.368 110.684 55.4616C111.272 52.5553 112.386 49.4315 114.442 48.6217Z" fill="white"/>
<path d="M93.2497 81.8665C92.2012 83.4348 90.8007 84.4188 89.544 85.6441C88.2911 86.8731 87.0987 88.5318 86.8489 90.6618C86.6899 92.0266 86.936 93.4139 86.9019 94.7938C86.8678 96.1735 86.406 97.7268 85.4635 98.0698C83.9759 98.6051 82.8403 95.8531 81.3111 95.6608C80.096 95.51 79.0021 97.4139 79.3541 99.0651C79.7062 100.716 81.3603 101.448 82.3104 100.37C83.1697 101.806 82.564 104.411 81.2733 104.852C81.137 105.757 81.0007 106.658 80.8682 107.563C77.6054 105.289 74.3084 102.978 71.5339 99.6494C68.4481 95.9785 66.5341 91.4729 66.0377 86.7109C65.6781 82.8844 66.2118 78.5075 64.4479 75.5632C63.036 73.207 60.6134 72.6867 58.4331 72.8338C58.0357 72.8601 57.6345 72.9054 57.237 72.9544C58.5228 69.1081 60.1559 65.3857 62.1162 61.833C62.5598 61.6433 62.972 61.3878 63.3388 61.0752C65.3677 59.3599 66.2686 55.8877 67.9152 53.4863C68.0212 53.3317 68.1309 53.1809 68.2445 53.0339C69.9289 50.8435 72.1849 49.7163 74.3652 48.6682C79.1914 46.3347 84.1576 43.9709 89.2525 44.2951L87.8028 44.4346C86.1108 49.1546 84.4176 53.8746 82.723 58.5946C82.4656 59.3184 82.2057 60.0435 81.9433 60.7699C80.9818 63.454 79.9901 66.3117 80.1377 69.3163C80.2248 71.0957 80.8455 72.9958 82.0265 73.6066C83.128 74.172 84.3317 73.4784 85.3953 72.7922C85.8458 72.5057 86.2925 72.2192 86.7429 71.9289C88.3592 70.8921 90.1496 69.829 91.8568 70.5227C93.4201 71.1561 94.5745 73.271 94.7941 75.5519C94.9954 77.769 94.4522 79.99 93.2497 81.8665Z" fill="white"/>
<path d="M102.863 114.091C98.1421 111.196 93.4215 108.301 88.7009 105.407L88.7811 105.201C85.8461 106.315 84.6275 111.511 85.1126 115.76C85.5976 120.009 87.2423 123.808 88.0732 127.948C89.1936 133.614 88.7707 139.476 86.8485 144.924C93.0558 137.987 98.5492 130.448 103.246 122.42C103.902 121.408 104.402 120.304 104.729 119.144C105.029 117.91 104.983 116.427 104.383 115.438C103.996 114.87 103.474 114.407 102.863 114.091Z" fill="white"/>
<path d="M84.2322 61.4269C83.7309 62.5493 83.5381 64.0461 83.993 65.2075C84.4575 66.3937 85.4396 66.9297 86.3438 67.376L88.9521 68.6637C89.8199 69.0921 90.7552 69.5247 91.6398 69.1723C92.7067 68.7472 93.4465 67.0813 93.2551 65.5347C93.0514 63.8889 92.0098 62.7569 91.0465 61.7928C89.6985 60.4438 88.3504 59.0947 87.0023 57.7456L86.2426 58.6724C85.4208 59.4707 84.7411 60.4021 84.2322 61.4269Z" fill="white"/>
<path d="M176.048 79.0203C177.221 79.2955 178.395 79.5707 179.568 79.8459C179.364 83.7931 177.399 87.4462 174.765 88.7694C173.667 89.3199 172.444 89.5234 171.536 90.5527C170.715 91.4876 170.298 92.9428 169.916 94.3339C169.246 96.7618 168.576 99.1896 167.906 101.617C167.187 104.234 166.263 107.14 164.393 108.083C162.788 108.893 160.952 107.902 159.718 106.239C158.484 104.577 157.731 102.341 157.001 100.162C157.046 102.537 155.937 104.867 154.366 105.693C152.791 106.518 150.876 105.772 149.824 103.928C149.067 102.605 148.753 100.86 148.011 99.5176C147.269 98.1755 145.713 97.4064 144.903 98.6656C144.369 99.5026 144.437 100.784 144.172 101.847C143.76 103.499 142.511 104.535 141.273 104.626C140.039 104.716 138.835 104.008 137.802 103.046C135.671 101.056 134.1 97.8965 133.491 94.3867C133.222 92.8221 133.146 91.1182 133.612 89.6516C134.077 88.1851 135.201 87.0541 136.318 87.3331C137.052 85.7874 135.603 83.7366 134.297 83.9175C132.987 84.0985 131.961 85.4971 130.886 86.5716C129.815 87.646 128.316 88.4264 127.237 87.3595C127.245 88.351 126.435 89.0069 125.735 88.924C125.038 88.8449 124.417 88.2869 123.778 87.891C121.306 86.3566 118.168 87.3746 116.412 90.2774C117.509 85.6253 119.118 80.287 122.491 79.1937C123.869 78.7451 125.371 79.1146 126.673 78.3379C128.979 76.9619 129.444 71.7631 127.453 69.618C127.707 71.6462 127.658 74.0138 126.582 75.4011C125.508 76.7885 123.251 75.8837 123.388 73.8328C123.077 75.2466 121.533 75.4615 120.821 74.3757C120.106 73.29 120.167 71.5143 120.674 70.2174C121.181 68.9205 122.044 67.9894 122.881 67.0959C124.678 65.177 126.503 63.2355 128.585 62.029C130.671 60.8227 133.078 60.4155 135.167 61.6144C136.269 62.2477 137.238 63.3033 138.362 63.8613C139.486 64.423 140.913 64.3514 141.659 63.0394C142.496 61.5767 142.102 59.4052 142.412 57.5767C142.969 54.3459 146.213 52.8341 148.011 54.9679C146.667 54.6249 145.278 56.2082 145.111 58.1272C144.941 60.0461 145.914 61.9839 147.216 62.5644C149.404 63.5295 151.546 61.1016 153.2 58.8548C154.926 56.5023 156.655 54.1511 158.386 51.8012C158.662 51.4011 158.973 51.0252 159.313 50.6777C159.856 50.1514 160.578 49.85 161.335 49.8346C162.092 49.8192 162.827 50.091 163.39 50.5948C165.139 52.016 165.96 54.9303 167.395 56.9359C169.477 59.85 172.592 60.5588 175.491 61.1243C177.653 61.5427 179.815 61.9637 181.979 62.3872C183.422 65.0599 184.68 67.8272 185.746 70.6699C182.082 72.2193 178.701 75.1184 176.048 79.0203Z" fill="white"/>
<path d="M183.035 124.381C181.414 127.66 179.528 130.803 177.395 133.779C176.033 133.199 174.568 134.235 173.292 135.208C171.96 136.226 170.359 137.217 168.992 136.29C167.596 135.34 167.145 132.682 167.588 130.575C168.031 128.471 169.136 126.797 170.207 125.206C171.343 123.517 172.558 121.764 174.136 121.108C175.719 120.452 177.751 121.38 178.213 123.619L179.333 123.581C178.705 122.722 179.034 120.942 179.879 120.63C180.851 120.264 181.695 121.595 182.271 122.771C182.528 123.302 182.789 123.838 183.035 124.381Z" fill="white"/>
<path d="M140.124 108.457C137.716 108.608 135.808 105.655 134.54 102.75C133.273 99.8451 132.116 96.5232 129.943 95.0446C128.701 94.1998 127.286 94.0838 125.939 93.6744C124.592 93.2651 123.183 92.4179 122.539 90.6928L121.011 90.0781C118.994 91.208 116.949 92.3585 115.211 94.1971C113.261 96.26 112.047 98.9043 111.755 101.722C111.463 104.768 112.541 108.164 114.554 109.308C116.145 110.212 117.998 109.642 119.609 110.47C121.623 111.504 122.818 114.507 123.271 117.473C123.723 120.438 123.609 123.52 123.932 126.52C124.256 129.519 125.148 132.64 126.995 134.177C129.306 136.1 132.696 134.502 133.733 131.001C134.242 129.283 134.224 127.346 134.605 125.563C135.274 122.423 137.082 120.094 138.515 117.519C139.949 114.943 141.077 111.445 140.124 108.457Z" fill="white"/>
<path d="M116.326 77.6064C116.551 77.8123 116.761 78.0339 116.954 78.2695C117.153 78.6124 117.255 79.0032 117.248 79.3996C117.242 79.7961 117.126 80.1831 116.915 80.5191C117.205 80.5026 117.489 80.4265 117.748 80.2953C118.007 80.1642 118.236 79.981 118.42 79.7573C118.859 79.2588 119.246 78.7163 119.574 78.1386C119.819 77.7397 120.081 77.2003 119.914 76.7265C119.8 76.4031 119.531 76.2652 119.342 76.022C119.044 75.6365 118.969 75.0243 118.815 74.4952C118.481 73.3525 117.68 72.5122 116.811 72.3921L116.932 72.4151C116.569 72.5389 116.315 73.1131 116.396 73.6296C116.469 74.1001 116.772 74.4907 116.742 74.9705C116.699 75.6604 116.006 75.9842 115.963 76.6742C115.957 77.0204 116.087 77.3553 116.326 77.6064Z" fill="white"/>
<path d="M112.2 65.8817C112.204 65.8807 112.207 65.8805 112.211 65.8796C112.285 65.8124 112.354 65.7395 112.416 65.6616L112.2 65.8817Z" fill="#E6E6E6"/>
<path d="M112.922 69.1201C113.455 68.779 113.752 67.8359 113.576 67.0465C113.401 66.262 112.782 65.7346 112.211 65.8794C112.045 66.0467 111.84 66.1693 111.613 66.2357C111.387 66.302 111.147 66.31 110.917 66.2588C110.564 66.1683 110.176 65.9351 109.87 66.2001C109.695 66.398 109.572 66.6364 109.513 66.8936C109.4 67.2402 109.287 67.5867 109.173 67.9333C109.12 68.0573 109.105 68.1949 109.133 68.3272C109.155 68.3803 109.19 68.4268 109.235 68.4625C109.28 68.4981 109.333 68.5216 109.39 68.5307C110.07 68.7304 110.75 68.9301 111.43 69.1298C111.926 69.2753 112.461 69.4155 112.922 69.1201Z" fill="white"/>
<path d="M164.266 113.832C163.952 113.319 163.637 112.806 163.323 112.294C163.014 111.7 162.592 111.172 162.08 110.739C161.967 110.646 161.837 110.575 161.697 110.532C161.557 110.489 161.409 110.474 161.263 110.489C161.117 110.503 160.975 110.547 160.846 110.617C160.717 110.687 160.604 110.782 160.512 110.896L160.55 111.189C161.267 112.084 162.025 113.079 162.207 114.408C162.279 114.932 162.254 115.474 162.317 116C162.379 116.526 162.558 117.072 162.899 117.299C163.394 117.628 163.975 117.142 164.328 116.55C164.643 116.063 164.784 115.485 164.729 114.909C164.65 114.522 164.493 114.155 164.266 113.832Z" fill="white"/>
<path d="M178.258 94.2534C178.349 93.6596 178.44 93.0658 178.53 92.4719C178.678 91.8197 178.696 91.145 178.585 90.4857C178.559 90.3417 178.505 90.2042 178.426 90.0813C178.346 89.9584 178.243 89.8526 178.122 89.7701C178 89.6875 177.864 89.63 177.72 89.6008C177.576 89.5715 177.428 89.5712 177.284 89.5999L177.124 89.8485C177.093 90.9931 177.03 92.2404 176.31 93.3737C176.026 93.8204 175.656 94.2193 175.364 94.6621C175.072 95.105 174.856 95.637 174.97 96.0293C175.136 96.5988 175.895 96.6001 176.547 96.3727C177.103 96.2023 177.585 95.8506 177.915 95.3742C178.105 95.0279 178.222 94.6464 178.258 94.2534Z" fill="#E6E6E6"/>
<path d="M169.198 114.499C169.351 114.059 169.13 113.554 169.083 113.067C169.06 112.439 169.227 111.819 169.563 111.286C169.896 110.784 170.148 110.233 170.311 109.653C170.379 109.389 170.367 109.11 170.275 108.853C170.171 108.62 169.919 108.514 169.774 108.698L170.084 108.897C169.666 108.823 169.237 108.843 168.828 108.957C168.595 109.046 168.387 109.19 168.221 109.376C168.055 109.562 167.937 109.785 167.876 110.026C167.825 110.402 167.742 110.773 167.627 111.134C167.442 111.512 167.085 111.638 166.86 111.969C166.707 112.263 166.63 112.591 166.636 112.922C166.641 113.253 166.729 113.578 166.892 113.866C167.174 114.339 167.622 114.69 168.15 114.851C168.527 114.986 169.025 114.993 169.198 114.499Z" fill="white"/>
<path d="M177.98 117.138C178.117 117.492 178.3 117.826 178.525 118.133C178.945 118.554 179.516 118.295 180.027 118.193C180.489 118.12 180.963 118.173 181.398 118.347C181.833 118.521 182.213 118.808 182.497 119.18C182.299 118.197 181.867 117.276 181.238 116.494C180.609 115.712 179.8 115.092 178.88 114.686C177.678 114.197 176.412 114.15 175.161 114.106L174.945 114.162C175.495 115.757 177.224 115.722 177.98 117.138Z" fill="white"/>
<path d="M140.783 120.402L140.786 120.409C140.807 120.368 140.828 120.328 140.849 120.288L140.783 120.402Z" fill="#E6E6E6"/>
<path d="M139.45 122.97C139.16 123.496 138.91 124.042 138.703 124.606C138.429 125.518 138.247 126.455 138.161 127.404C138.093 127.943 138.073 128.632 138.412 128.895C138.509 128.959 138.627 128.986 138.743 128.97C138.859 128.955 138.965 128.898 139.041 128.81C139.23 128.611 139.384 128.383 139.498 128.134C140.164 126.99 140.682 125.767 141.038 124.492C141.363 123.151 141.36 121.571 140.786 120.409C140.341 121.263 139.896 122.116 139.45 122.97Z" fill="white"/>
<path d="M126.597 54.5392C126.809 54.7453 127.076 54.8851 127.367 54.9416C127.657 54.9981 127.958 54.9686 128.232 54.857C128.799 54.61 129.319 54.2677 129.77 53.8451C130.143 53.5701 130.46 53.2261 130.702 52.832C130.836 52.5964 130.922 52.3369 130.954 52.0683C130.987 51.7997 130.966 51.5273 130.893 51.2668C130.682 50.6532 130.148 50.4475 129.676 50.3082C128.922 50.0853 128.167 49.8623 127.412 49.6394L127.958 49.1492C127.396 48.8489 126.774 49.4062 126.423 50.0963C126.198 50.5468 126.041 51.0281 125.957 51.5245C125.769 52.6076 125.953 53.8973 126.597 54.5392Z" fill="#E6E6E6"/>
<path d="M139.925 50.0831C140.137 50.3167 140.432 50.4609 140.747 50.4865C141.063 50.5121 141.376 50.4171 141.624 50.2208C141.838 50.0612 142.015 49.8586 142.144 49.6263C142.274 49.3939 142.353 49.137 142.376 48.8723C142.429 48.2809 142.136 47.6235 141.717 47.5725L141.813 47.0188C141.005 46.8735 140.011 46.8444 139.578 47.8214C139.432 48.1956 139.387 48.6015 139.448 48.9984C139.509 49.3953 139.673 49.7693 139.925 50.0831Z" fill="#E6E6E6"/>
<path d="M138.144 20.6377C133.409 20.1057 128.655 21.4691 124.929 24.428C121.202 27.3869 118.809 31.6988 118.275 36.4153C117.162 46.2369 122.357 67.5648 131.83 76.3937C136.289 59.4783 151.918 49.4451 153.986 40.4273C156.195 30.7916 148.006 21.7456 138.144 20.6377Z" fill="#FFA239"/>
<path d="M134.869 42.4725C138.106 42.4725 140.729 39.8594 140.729 36.6359C140.729 33.4125 138.106 30.7993 134.869 30.7993C131.633 30.7993 129.009 33.4125 129.009 36.6359C129.009 39.8594 131.633 42.4725 134.869 42.4725Z" fill="white"/>
<path d="M128.707 84.8093C130.827 84.8093 132.546 83.0977 132.546 80.9864C132.546 78.8751 130.827 77.1636 128.707 77.1636C126.587 77.1636 124.869 78.8751 124.869 80.9864C124.869 83.0977 126.587 84.8093 128.707 84.8093Z" fill="#FFA239"/>
<path opacity="0.2" d="M139.718 32.4542C140.377 32.849 140.953 33.3693 141.41 33.9855C141.868 34.6016 142.199 35.3015 142.386 36.0452C142.572 36.7889 142.609 37.5618 142.495 38.3198C142.381 39.0779 142.119 39.8062 141.723 40.4631C141.326 41.1201 140.804 41.6929 140.185 42.1488C139.567 42.6047 138.864 42.9348 138.117 43.1202C136.609 43.4946 135.013 43.2571 133.681 42.4598C135.039 42.7607 136.461 42.5704 137.691 41.9229C138.922 41.2753 139.88 40.2129 140.396 38.9256C140.911 37.6384 140.95 36.2104 140.505 34.8973C140.06 33.5842 139.161 32.4717 137.967 31.7588C138.585 31.895 139.176 32.1299 139.718 32.4542Z" fill="#231F20"/>
<path opacity="0.2" d="M154.009 40.4465C151.941 49.4643 136.312 59.4975 131.852 76.4129C130.962 75.5746 130.134 74.6718 129.377 73.712C134.389 57.812 149.045 48.1506 151.043 39.4379C152.831 31.6398 147.808 24.2288 140.6 21.0981C149.325 23.2826 156.034 31.6163 154.009 40.4465Z" fill="#231F20"/>
<path d="M83.228 43.4114C79.6717 43.0119 76.1017 44.0357 73.3034 46.2577C70.5051 48.4797 68.7076 51.7179 68.3064 55.2598C67.4711 62.6355 71.3726 78.652 78.4858 85.2822C81.835 72.5793 93.5714 65.0447 95.1244 58.2727C96.7837 51.0366 90.6335 44.2434 83.228 43.4114Z" fill="#FFA239"/>
<path d="M80.7684 59.8087C83.1989 59.8087 85.1692 57.8463 85.1692 55.4256C85.1692 53.0049 83.1989 51.0425 80.7684 51.0425C78.3379 51.0425 76.3675 53.0049 76.3675 55.4256C76.3675 57.8463 78.3379 59.8087 80.7684 59.8087Z" fill="white"/>
<path d="M76.1411 91.602C77.733 91.602 79.0235 90.3167 79.0235 88.7312C79.0235 87.1457 77.733 85.8604 76.1411 85.8604C74.5491 85.8604 73.2586 87.1457 73.2586 88.7312C73.2586 90.3167 74.5491 91.602 76.1411 91.602Z" fill="#FFA239"/>
<path opacity="0.2" d="M84.4096 52.285C84.905 52.5814 85.3369 52.9722 85.6806 53.4348C86.0244 53.8975 86.2732 54.4231 86.413 54.9816C86.5528 55.5401 86.5808 56.1206 86.4954 56.6898C86.4099 57.2591 86.2128 57.806 85.9151 58.2994C85.6174 58.7927 85.2251 59.2229 84.7606 59.5652C84.296 59.9076 83.7683 60.1555 83.2075 60.2947C82.6468 60.4339 82.064 60.4618 81.4924 60.3767C80.9208 60.2916 80.3717 60.0952 79.8763 59.7988C80.8964 60.0248 81.9638 59.8818 82.8877 59.3956C83.8116 58.9093 84.5316 58.1114 84.9188 57.1447C85.306 56.1781 85.3351 55.1057 85.001 54.1196C84.6669 53.1335 83.9913 52.298 83.0952 51.7627C83.5587 51.865 84.0026 52.0414 84.4096 52.285Z" fill="#231F20"/>
<path opacity="0.2" d="M95.1416 58.2868C93.5887 65.0588 81.8523 72.5934 78.503 85.2963C77.834 84.6668 77.2127 83.9888 76.6442 83.268C80.4078 71.3277 91.4137 64.0723 92.9141 57.5294C94.257 51.6733 90.4848 46.1078 85.072 43.7568C91.6242 45.3973 96.6623 51.6556 95.1416 58.2868Z" fill="#231F20"/>
<path d="M221.009 202.191H216.177L213.878 183.628L221.01 183.629L221.009 202.191Z" fill="#A0616A"/>
<path d="M223.608 211.329H220.179L219.567 208.105L218 211.329H208.906C208.47 211.329 208.046 211.19 207.695 210.933C207.344 210.675 207.084 210.313 206.955 209.899C206.825 209.484 206.832 209.039 206.974 208.629C207.116 208.218 207.386 207.864 207.745 207.617L215.007 202.622V199.363L222.645 199.817L223.608 211.329Z" fill="#2F2E41"/>
<path d="M202.293 202.191H197.461L195.163 183.628L202.294 183.629L202.293 202.191Z" fill="#A0616A"/>
<path d="M204.893 211.329H201.464L200.852 208.105L199.284 211.329H190.191C189.755 211.329 189.33 211.19 188.979 210.933C188.628 210.675 188.369 210.313 188.239 209.899C188.109 209.484 188.116 209.039 188.258 208.629C188.4 208.218 188.671 207.864 189.029 207.617L196.291 202.622V199.363L203.929 199.817L204.893 211.329Z" fill="#2F2E41"/>
<path d="M183.936 153.182C184.861 154.563 194.92 192.538 194.92 192.538L203.84 193.551L202.781 183.996L201.163 167.088L198.657 155.802C198.657 155.802 207.506 135.744 208.066 134.146L208.463 132.999L211.228 157.989C211.556 158.881 211.7 159.831 211.649 160.779C211.565 162.34 213.137 185.825 213.137 185.825L213.893 194.247L221.535 195.304L224.636 180.732C227.225 175.998 225.741 159.177 224.682 157.611C223.623 156.046 224.044 145.142 224.044 145.142C225.396 144.668 233.458 117.287 229.426 117.449C229.684 115.989 229.888 114.686 229.888 114.686L222.888 109.064L205.37 104.528L200.951 102.415C200.951 102.415 193.057 116.952 193.136 117.675C193.244 118.59 193.034 119.515 192.539 120.295L184.57 146.859C184.57 146.859 183.002 151.786 183.936 153.182Z" fill="#2F2E41"/>
<path d="M227.947 58.1236L225.16 52.2305L215.675 52.5935L212.581 58.7244C212.581 58.7244 203.739 69.2426 203.453 72.6627C203.093 76.9642 206.084 98.046 203.093 96.6795C203.093 96.6795 196.041 104.924 200.214 104.924C204.387 104.924 223.263 116.726 224.502 118.053C225.741 119.38 231.27 120.241 230.806 117.47C230.343 114.699 227.947 99.7143 227.947 99.7143L234.432 76.1516C236.299 71.0645 236.879 65.3582 232.66 61.941L227.947 58.1236Z" fill="#CCCCCC"/>
<path d="M192.813 40.7782C191.544 40.2766 190.189 40.0288 188.824 40.049C187.459 40.0691 186.111 40.3568 184.858 40.8957C183.605 41.4345 182.47 42.2139 181.52 43.1894C180.569 44.1648 179.82 45.3173 179.317 46.5809C177.199 51.895 176.848 64.5856 180.789 70.946C185.857 62.1783 196.11 58.9408 198.639 54.2199C201.341 49.1753 198.148 42.8877 192.813 40.7782Z" fill="#FFA239"/>
<path d="M188.546 52.5895C190.418 52.5895 191.936 51.0779 191.936 49.2132C191.936 47.3485 190.418 45.8369 188.546 45.8369C186.674 45.8369 185.156 47.3485 185.156 49.2132C185.156 51.0779 186.674 52.5895 188.546 52.5895Z" fill="white"/>
<path d="M178.346 75.249C179.573 75.249 180.567 74.2589 180.567 73.0376C180.567 71.8163 179.573 70.8262 178.346 70.8262C177.12 70.8262 176.126 71.8163 176.126 73.0376C176.126 74.2589 177.12 75.249 178.346 75.249Z" fill="#FFA239"/>
<path opacity="0.2" d="M191.89 47.6118C192.511 48.2585 192.849 49.1243 192.829 50.0189C192.81 50.9135 192.435 51.7638 191.786 52.383C191.137 53.0022 190.268 53.3396 189.37 53.321C188.472 53.3025 187.618 52.9295 186.995 52.2841C187.708 52.6575 188.53 52.7661 189.315 52.5907C190.101 52.4153 190.798 51.9672 191.282 51.3266C191.766 50.6861 192.005 49.8949 191.957 49.0946C191.909 48.2944 191.576 47.5373 191.019 46.959C191.343 47.1284 191.637 47.3488 191.89 47.6118Z" fill="#231F20"/>
<path opacity="0.2" d="M198.649 54.2338C196.12 58.9548 185.867 62.1923 180.799 70.96C180.43 70.3573 180.105 69.7283 179.829 69.0781C185.05 60.9606 194.703 57.7836 197.147 53.2223C199.334 49.1398 197.659 44.2436 194.113 41.4062C198.651 43.9448 201.125 49.611 198.649 54.2338Z" fill="#231F20"/>
<path d="M177.346 72.2761C177.862 72.1701 178.395 72.1781 178.908 72.2996C179.42 72.4211 179.9 72.6531 180.313 72.9792C180.726 73.3053 181.062 73.7176 181.298 74.1871C181.533 74.6566 181.663 75.1718 181.677 75.6965L189.368 78.6367L188.714 83.7272L177.911 79.4232C177.025 79.3883 176.182 79.0308 175.542 78.4183C174.903 77.8058 174.511 76.9809 174.441 76.0999C174.371 75.2189 174.628 74.3431 175.164 73.6383C175.699 72.9336 176.475 72.4489 177.346 72.2761Z" fill="#A0616A"/>
<path d="M231.083 61.7859C230.273 61.2936 229.373 60.9653 228.436 60.8199C227.499 60.6745 226.542 60.7148 225.62 60.9386C224.698 61.1624 223.83 61.5652 223.065 62.1239C222.3 62.6826 221.653 63.3863 221.161 64.1945L210.123 82.3502L185.164 76.4579L182.89 82.6753L214.852 97.7541L231.04 72.0751C233.464 68.6829 234.65 63.9553 231.083 61.7859Z" fill="#CCCCCC"/>
<path d="M231.495 39.5355C231.495 41.2854 231.065 43.0087 230.241 44.5541C229.416 46.0995 228.224 47.4198 226.768 48.3991C225.312 49.3783 223.637 49.9866 221.889 50.1706C220.142 50.3545 218.376 50.1085 216.747 49.454C215.117 48.7996 213.674 47.7568 212.544 46.4171C211.413 45.0774 210.631 43.4819 210.264 41.7706C209.897 40.0592 209.958 38.2844 210.441 36.6019C210.924 34.9194 211.814 33.3806 213.033 32.1207L213.084 32.0694C213.17 31.9796 213.256 31.8898 213.346 31.8043C213.347 31.8043 213.348 31.8042 213.348 31.804C213.349 31.8038 213.349 31.8034 213.349 31.803C213.35 31.8026 213.35 31.8022 213.35 31.8016C213.351 31.8011 213.351 31.8006 213.351 31.8C213.462 31.6974 213.574 31.5947 213.69 31.4964C215.241 30.1421 217.151 29.2617 219.191 28.9606C221.232 28.6595 223.316 28.9505 225.195 29.7988C227.073 30.647 228.667 32.0165 229.784 33.7434C230.901 35.4702 231.495 37.4812 231.495 39.5355Z" fill="#2F2E41"/>
<path d="M218.117 50.9735C223.088 50.9735 227.117 46.96 227.117 42.0092C227.117 37.0584 223.088 33.0449 218.117 33.0449C213.146 33.0449 209.116 37.0584 209.116 42.0092C209.116 46.96 213.146 50.9735 218.117 50.9735Z" fill="#9E616A"/>
<path d="M227.675 44.5655L226.183 44.3032C225.35 44.1523 224.583 43.7517 223.984 43.1548C223.386 42.558 222.985 41.7933 222.834 40.9632L221.379 43.3921L221.316 43.4131C217.849 44.5596 214.241 44.2167 210.29 42.3663C209.161 41.8326 208.065 41.2307 207.008 40.5642L206.93 40.5157L206.924 40.4245C206.723 37.5083 207.38 35.0721 208.775 33.5646C209.31 32.9974 209.96 32.5493 210.682 32.2497C211.403 31.9502 212.18 31.8058 212.962 31.8262C213.017 31.8117 213.069 31.7836 213.11 31.7445C213.13 31.7298 213.151 31.7152 213.171 31.7014V31.6863L213.274 31.6379C213.496 31.5339 213.722 31.4343 213.949 31.3433C215.73 30.6566 217.669 30.4844 219.544 30.8463C221.419 31.2083 223.153 32.0897 224.547 33.3894C227.32 36.0255 228.592 40.4494 227.712 44.398L227.675 44.5655Z" fill="#2F2E41"/>
<path d="M246.659 52.2032C243.596 50.6287 247.535 44.9141 246.743 41.573C245.952 38.2319 240.252 37.1572 239.889 33.7434C239.525 30.3296 238.671 26.8087 236.409 24.2183C234.964 22.563 232.834 21.341 230.642 21.5483C229.9 21.6185 229.182 21.8471 228.537 22.2185C227.892 22.5899 227.334 23.0955 226.903 23.7007C226.472 24.306 226.176 24.9967 226.037 25.7258C225.898 26.455 225.918 27.2054 226.097 27.9261C225.473 27.0451 223.857 27.236 223.457 28.2381C223.101 29.129 223.887 30.2081 224.811 30.2869C226.021 31.7745 227.406 33.3533 229.3 33.6534C229.602 33.7224 229.916 33.7223 230.218 33.6529C230.52 33.5835 230.802 33.4467 231.043 33.2529C231.488 32.8265 231.523 31.9741 230.994 31.6555C233.376 32.5976 234.772 35.1618 235.125 37.6893C235.478 40.2168 234.989 42.7741 234.667 45.3058C234.345 47.8374 234.206 50.5006 235.203 52.8515C236.381 55.6292 239.092 57.62 242.051 58.2584C245.009 58.8968 248.16 58.2729 250.838 56.8671C253.516 55.4611 255.75 53.3149 257.574 50.9088C254.432 53.1313 250.084 53.9639 246.659 52.2032Z" fill="#2F2E41"/>
<path d="M227.291 44.3161C227.291 44.3161 224.625 34.4041 213.196 32.1164C213.183 32.1121 213.14 32.095 213.084 32.0694C213.05 32.048 213.007 32.0266 212.964 32.0052C213.093 31.9325 213.218 31.8684 213.346 31.8042L213.348 31.8039L213.349 31.803L213.35 31.8016L213.351 31.7999C213.462 31.6973 213.574 31.5947 213.69 31.4964L214.016 31.5092C214.016 31.5092 225.484 29.7004 227.291 44.3161Z" fill="#FD6584"/>
<path opacity="0.2" d="M221.322 76.1216L214.867 83.57L204.201 80.4331L215.829 85.7699L221.322 76.1216Z" fill="black"/>
<path d="M260.067 211.89L160.821 212C160.708 212 160.599 211.954 160.519 211.874C160.439 211.794 160.394 211.686 160.394 211.573C160.394 211.46 160.439 211.352 160.519 211.272C160.599 211.192 160.708 211.147 160.821 211.146L260.067 211.036C260.181 211.036 260.29 211.081 260.37 211.161C260.451 211.241 260.496 211.35 260.496 211.463C260.496 211.576 260.451 211.685 260.37 211.765C260.29 211.845 260.181 211.89 260.067 211.89Z" fill="#CACACA"/>
<path d="M264.423 145.56C259.776 145.56 254.683 145.386 249.143 145.036C220.489 143.223 183.373 136.923 144.633 127.295C105.893 117.667 70.1564 105.861 44.0069 94.0532C31.2687 88.301 21.4922 82.8562 14.9493 77.8696C8.02208 72.5906 4.99201 67.989 5.94293 64.1934C7.79575 56.7987 24.2016 55.1809 37.6382 55.126L37.6428 56.2014C19.1908 56.2768 8.30504 59.2077 6.99069 64.4538C5.31643 71.1356 18.9709 81.567 44.4528 93.0737C70.5448 104.856 106.216 116.639 144.895 126.252C183.573 135.864 220.62 142.154 249.211 143.962C277.133 145.729 294.108 142.909 295.782 136.228C297.172 130.68 288.009 122.507 269.98 113.215L270.476 112.26C283.576 119.012 298.782 128.696 296.83 136.488C295.879 140.284 291.033 142.928 282.428 144.346C277.522 145.155 271.497 145.56 264.423 145.56Z" fill="#FFA239"/>
</g>
<defs>
<clipPath id="clip0_339_2993">
<rect width="297" height="212" fill="white"/>
</clipPath>
</defs>
</svg>
