<svg width="24" height="24" viewBox="0 0 24 24" fill="none" xmlns="http://www.w3.org/2000/svg">
<path d="M12.1249 21.9663L12.1232 21.9672C12.0852 21.9877 12.0427 21.9985 11.9995 21.9985C11.9578 21.9985 11.9167 21.9884 11.8796 21.9692L11.8581 21.9569L11.8581 21.9569L11.7915 21.9188C11.4127 21.6944 11.0431 21.4548 10.6836 21.2007L10.6835 21.2006C9.74753 20.5395 8.87307 19.7955 8.07065 18.9776C6.17359 17.0346 4.25 14.1624 4.25 10.5C4.25 8.44457 5.06652 6.47333 6.51992 5.01992C7.97333 3.56652 9.94457 2.75 12 2.75C14.0554 2.75 16.0267 3.56652 17.4801 5.01992C18.9335 6.47333 19.75 8.44457 19.75 10.5C19.75 14.1633 17.8275 17.0344 15.9296 18.9773C15.1269 19.7954 14.252 20.5395 13.3156 21.2005L13.3153 21.2008C12.9558 21.455 12.5862 21.6948 12.2075 21.9194L12.1459 21.955L12.1249 21.9663ZM12 14C12.9283 14 13.8185 13.6313 14.4749 12.9749C15.1313 12.3185 15.5 11.4283 15.5 10.5C15.5 9.57174 15.1313 8.6815 14.4749 8.02513C13.8185 7.36875 12.9283 7 12 7C11.0717 7 10.1815 7.36875 9.52513 8.02513C8.86875 8.6815 8.5 9.57174 8.5 10.5C8.5 11.4283 8.86875 12.3185 9.52513 12.9749C10.1815 13.6313 11.0717 14 12 14Z" fill="#EB7927" stroke="#91440C"/>
</svg>
